<svg width="36" height="28" viewBox="0 0 36 28" fill="none" xmlns="http://www.w3.org/2000/svg">
<path d="M32.3144 6.97053C32.3364 7.27431 32.3364 7.57809 32.3364 7.88467C32.3364 17.2263 24.9068 28 11.3214 28V27.9944C7.30823 28 3.37843 26.8997 0 24.825C0.583547 24.8922 1.17002 24.9258 1.75795 24.9272C5.08373 24.93 8.31444 23.8619 10.9309 21.895C7.77038 21.8376 4.9989 19.8651 4.03071 16.9855C5.13784 17.1899 6.27861 17.1479 7.36527 16.8637C3.91956 16.1973 1.44059 13.2995 1.44059 9.93414C1.44059 9.90334 1.44059 9.87394 1.44059 9.84455C2.46728 10.3919 3.61682 10.6957 4.79269 10.7293C1.54735 8.65322 0.546984 4.52068 2.50676 1.28969C6.25667 5.70641 11.7894 8.39144 17.7287 8.67562C17.1335 6.22017 17.9466 3.64714 19.8654 1.92105C22.8402 -0.755585 27.5188 -0.618394 30.3152 2.22763C31.9693 1.91545 33.5547 1.33448 35.0055 0.511335C34.4541 2.14783 33.3002 3.53794 31.7587 4.42129C33.2227 4.2561 34.653 3.88092 36 3.30836C35.0084 4.73067 33.7594 5.96959 32.3144 6.97053Z" fill="#231F20"/>
</svg>
