<svg width="482" height="499" viewBox="0 0 482 499" fill="none" xmlns="http://www.w3.org/2000/svg">
<g clip-path="url(#clip0_251_34633)">
<path d="M19.9338 145.846L46.1044 106.081C49.9548 100.225 53.5244 96.7158 57.0139 95.3121C58.5781 94.6905 60.1022 94.3696 61.5661 94.3696C63.5515 94.3696 65.4366 94.9512 67.1612 96.0741L67.7027 96.4351C70.2696 98.1195 71.7536 100.426 72.0745 103.293C72.1547 103.915 72.1747 104.537 72.1747 105.158C73.0371 104.677 73.9997 104.196 75.0224 103.775C76.3059 103.233 77.6696 102.972 79.0934 102.972C79.5546 102.972 80.0159 102.992 80.4771 103.053C82.3823 103.273 84.2473 103.995 86.0321 105.158L86.6337 105.559C90.805 108.306 92.8706 112.097 92.7703 116.829C92.67 121.281 90.6847 126.394 86.6939 132.47L60.3829 172.456L19.9338 145.866V145.846ZM60.6637 145.685L72.0143 128.42C73.0972 126.775 73.2577 125.833 73.2577 125.412C73.2577 125.091 73.1975 124.73 72.5558 124.309C72.1346 124.028 71.914 123.948 71.7135 123.948C71.4528 123.948 70.5103 124.128 69.0062 126.414L57.6556 143.68L60.6837 145.665L60.6637 145.685ZM45.964 136.02L56.6729 119.737C58.2973 117.27 57.5954 116.829 57.3748 116.669C57.1743 116.528 57.0138 116.448 56.8935 116.448C56.6128 116.448 55.8507 116.869 54.7878 118.493L44.079 134.777L45.964 136.02Z" fill="white"/>
<path d="M61.5461 96.3748C63.1504 96.3748 64.6344 96.8361 66.0382 97.7585L66.5796 98.1195C68.6452 99.4831 69.8084 101.288 70.049 103.534C70.3097 105.78 70.049 107.905 69.2669 109.891C70.2094 108.948 71.1921 108.146 72.1948 107.484C73.1975 106.822 74.4007 106.201 75.7644 105.619C76.8072 105.178 77.9102 104.978 79.0533 104.978C79.4343 104.978 79.8153 104.998 80.2164 105.038C81.8007 105.218 83.3649 105.82 84.889 106.822L85.4907 107.224C92.6299 111.916 92.4695 119.977 84.9692 131.367L59.7613 169.689L22.6812 145.284L47.7488 107.183C51.3385 101.749 54.6475 98.4002 57.7157 97.177C59.0393 96.6556 60.3027 96.3748 61.526 96.3748H61.5461ZM46.5055 138.807L58.3174 120.84C60.1222 118.072 60.1824 116.127 58.4377 115.004L58.3374 114.944C57.8561 114.623 57.3548 114.463 56.8534 114.463C55.6301 114.463 54.3667 115.445 53.0632 117.41L41.2513 135.378L46.4854 138.827L46.5055 138.807ZM61.1851 148.493L73.6387 129.543C75.7444 126.354 75.7243 124.048 73.5986 122.664L73.4582 122.564C72.8566 122.163 72.255 121.983 71.6533 121.983C70.2094 121.983 68.7455 123.106 67.2615 125.351L54.8079 144.302L61.1851 148.493ZM61.506 92.3843C59.7813 92.3843 57.9965 92.7452 56.2117 93.4671C52.3212 95.0313 48.4507 98.8013 44.3798 104.998L19.3122 143.098L17.1062 146.447L20.4552 148.653L57.5352 173.058L60.8843 175.264L63.0902 171.915L88.2982 133.593C92.5096 127.196 94.5952 121.742 94.7155 116.889C94.8359 111.495 92.4093 107.003 87.6766 103.895L87.0749 103.494C85.0294 102.15 82.8636 101.328 80.6576 101.067C80.1162 101.007 79.5747 100.967 79.0332 100.967C77.3487 100.967 75.7243 101.288 74.1801 101.93C74.0598 101.97 73.9395 102.03 73.8192 102.09C73.2175 99.102 71.4728 96.5954 68.7254 94.7906L68.184 94.4297C66.1385 93.0861 63.8723 92.3843 61.4859 92.3843H61.506Z" fill="#1E1E1E"/>
<path d="M100.992 105.138C98.7865 105.138 96.8211 104.897 95.1767 104.416C93.432 103.915 91.7475 103.173 90.1832 102.19C88.6591 101.248 87.3757 100.245 86.393 99.2626C85.4505 98.3201 84.528 97.2372 83.6857 96.0541L82.6429 94.6103C81.7806 93.4271 81.0586 92.2039 80.457 91.0208C79.8153 89.7574 79.2939 88.2534 78.8928 86.5088C78.4717 84.7442 78.3112 82.9394 78.4115 81.1146C78.5118 79.2897 78.973 77.2243 79.7752 74.9783C80.5773 72.7524 81.7806 70.4864 83.3247 68.2405C84.8489 66.0547 86.9545 63.6283 89.6017 61.0415C92.2288 58.4747 95.3773 55.8678 98.9669 53.2809L101.353 51.5764C104.903 49.0096 108.372 46.864 111.621 45.1996C114.91 43.5151 117.878 42.2919 120.445 41.5298C123.072 40.7678 125.599 40.3668 127.945 40.3267H128.487C130.632 40.3267 132.558 40.5472 134.182 40.9684C135.947 41.4496 137.631 42.1715 139.195 43.1341C140.72 44.0766 142.003 45.0592 142.986 46.0418C143.948 47.0043 144.851 48.0872 145.693 49.2503L146.736 50.6941C147.578 51.8772 148.32 53.0804 148.922 54.2836C149.543 55.5269 150.085 57.0509 150.506 58.8156C150.927 60.6003 151.108 62.4251 151.027 64.2499C150.947 66.0948 150.506 68.1803 149.704 70.4463C148.922 72.6923 147.738 74.9783 146.214 77.2243C144.73 79.4301 142.625 81.8565 139.978 84.4434C137.35 87.0102 134.202 89.6171 130.612 92.2039L128.226 93.9084C124.636 96.4953 121.167 98.6409 117.898 100.325C114.609 102.01 111.641 103.233 109.054 103.975C106.427 104.717 103.88 105.118 101.494 105.138H101.012H100.992ZM121.147 60.2594C119.903 60.2594 118.379 60.6003 116.615 61.2821C114.449 62.1243 112.022 63.4879 109.415 65.3729C106.748 67.298 104.642 69.183 103.158 70.9677C101.775 72.6522 100.912 74.1361 100.631 75.4195C100.331 76.7029 100.291 77.8259 100.491 78.7483C100.692 79.6707 101.093 80.5731 101.694 81.4154L102.115 81.9969C102.717 82.8391 103.439 83.5009 104.321 84.0022C105.184 84.5035 106.327 84.8645 107.69 85.0249C107.931 85.045 108.172 85.065 108.432 85.065C109.636 85.065 111.1 84.7442 112.804 84.1225C115.01 83.3003 117.437 81.9367 120.044 80.0718C122.631 78.2069 124.716 76.3419 126.2 74.5171C127.584 72.8126 128.426 71.2886 128.707 70.0052C128.988 68.6616 129.028 67.4985 128.827 66.5159C128.627 65.5333 128.226 64.631 127.624 63.7887L127.143 63.1069C126.541 62.2647 125.839 61.623 124.997 61.1618C124.175 60.6805 123.072 60.3797 121.728 60.2594C121.548 60.2594 121.387 60.2393 121.207 60.2393L121.147 60.2594Z" fill="white"/>
<path d="M128.466 42.332C130.452 42.332 132.176 42.5325 133.64 42.9135C135.225 43.3346 136.729 43.9763 138.113 44.8386C139.496 45.7009 140.639 46.5632 141.522 47.4655C142.404 48.3479 143.226 49.3505 144.028 50.4334L145.071 51.8772C145.853 52.9801 146.535 54.0831 147.097 55.186C147.658 56.3089 148.14 57.6725 148.521 59.2768C148.902 60.881 149.062 62.5254 148.982 64.1697C148.902 65.8141 148.501 67.679 147.759 69.7846C147.017 71.8902 145.934 73.9957 144.51 76.0812C143.086 78.1868 141.081 80.4929 138.534 82.9995C135.967 85.5062 132.939 88.0128 129.409 90.5595L127.023 92.264C123.493 94.8108 120.144 96.8763 116.955 98.5206C113.767 100.145 110.939 101.328 108.473 102.01C106.006 102.692 103.66 103.073 101.434 103.113C101.273 103.113 101.133 103.113 100.972 103.113C98.9469 103.113 97.1821 102.892 95.7182 102.471C94.1339 102.01 92.6298 101.348 91.2261 100.486C89.8223 99.6235 88.6792 98.7211 87.7968 97.8388C86.9144 96.9565 86.0922 95.9538 85.29 94.8709L84.2472 93.4271C83.4651 92.3242 82.7833 91.2213 82.2218 90.0983C81.6602 88.9753 81.199 87.6318 80.818 86.0276C80.4369 84.4434 80.2966 82.8191 80.3968 81.1948C80.4771 79.5705 80.8982 77.7055 81.6402 75.62C82.3822 73.5345 83.4852 71.449 84.9491 69.3434C86.4131 67.2379 88.4185 64.9317 90.9653 62.4251C93.5323 59.9185 96.5604 57.4119 100.09 54.8651L102.476 53.1606C105.966 50.654 109.295 48.5685 112.483 46.9442C115.672 45.3199 118.5 44.1367 120.946 43.4349C123.413 42.713 125.719 42.352 127.925 42.3119C128.085 42.3119 128.266 42.3119 128.426 42.3119L128.466 42.332ZM108.392 87.0703C109.836 87.0703 111.521 86.7094 113.466 86.0075C115.852 85.1252 118.419 83.6813 121.167 81.7161C123.914 79.7309 126.1 77.7657 127.704 75.8005C129.309 73.8353 130.291 72.0506 130.612 70.4263C130.953 68.822 130.993 67.3782 130.733 66.1149C130.472 64.8515 129.95 63.6885 129.188 62.6256L128.707 61.9438C127.945 60.881 127.023 60.0388 125.94 59.4172C124.857 58.7955 123.493 58.4145 121.869 58.2741C121.628 58.2541 121.407 58.234 121.147 58.234C119.663 58.234 117.898 58.615 115.893 59.3971C113.546 60.2995 110.999 61.7433 108.252 63.7286C105.424 65.7539 103.218 67.7392 101.614 69.6843C100.01 71.6295 99.0271 73.3741 98.6661 74.9583C98.3051 76.5425 98.245 77.9462 98.5057 79.1494C98.7664 80.3525 99.2677 81.4956 100.05 82.5584L100.471 83.1399C101.233 84.2027 102.176 85.065 103.279 85.7067C104.382 86.3484 105.765 86.7896 107.41 86.9901C107.731 87.0302 108.051 87.0503 108.392 87.0503V87.0703ZM128.426 38.2812H127.865C125.338 38.3214 122.631 38.7625 119.843 39.5646C117.156 40.3467 114.068 41.6301 110.658 43.3747C107.309 45.0792 103.76 47.2851 100.13 49.912L97.7436 51.6165C94.0737 54.2635 90.845 56.9306 88.1578 59.5575C85.3903 62.2647 83.2646 64.7112 81.6402 67.0574C79.9958 69.4437 78.7123 71.8701 77.85 74.2564C76.9676 76.743 76.4662 78.9288 76.366 80.9742C76.2657 82.9795 76.4462 84.9848 76.9074 86.9299C77.3486 88.8149 77.9302 90.4793 78.6321 91.883C79.2738 93.1664 80.076 94.4699 80.9784 95.7332L82.0212 97.1971C82.9237 98.4604 83.9063 99.6235 84.9291 100.646C86.012 101.749 87.4158 102.832 89.0803 103.875C90.8049 104.938 92.6499 105.76 94.5751 106.321C96.4 106.843 98.5458 107.103 100.932 107.103H101.454C104.001 107.063 106.728 106.642 109.515 105.86C112.223 105.098 115.331 103.815 118.74 102.07C122.089 100.345 125.659 98.1396 129.329 95.5126L131.715 93.8081C135.385 91.1611 138.614 88.4941 141.301 85.8671C144.089 83.1399 146.214 80.6734 147.799 78.3272C149.403 75.9409 150.666 73.5145 151.509 71.1081C152.371 68.6616 152.852 66.3756 152.953 64.3502C153.033 62.3449 152.852 60.3195 152.391 58.3543C151.93 56.4293 151.368 54.805 150.646 53.3812C149.985 52.0777 149.202 50.7944 148.3 49.531L147.257 48.0872C146.355 46.8238 145.372 45.6608 144.349 44.6381C143.246 43.5151 141.883 42.4723 140.198 41.4296C138.473 40.3668 136.608 39.5646 134.643 39.0433C132.838 38.562 130.753 38.3214 128.426 38.3214V38.2812ZM108.392 83.0396C108.232 83.0396 108.071 83.0396 107.911 83.0196C106.808 82.8792 105.926 82.6185 105.284 82.2576C104.662 81.8966 104.141 81.4154 103.7 80.7937L103.279 80.2122C102.837 79.6106 102.557 78.9889 102.416 78.3071C102.276 77.6855 102.336 76.8232 102.557 75.8406C102.677 75.2992 103.118 74.116 104.682 72.2311C106.066 70.5667 108.031 68.802 110.578 66.9772C113.045 65.2125 115.311 63.909 117.316 63.147C119.242 62.4051 120.445 62.2446 121.127 62.2446C121.247 62.2446 121.367 62.2446 121.468 62.2446C122.51 62.3449 123.353 62.5655 123.934 62.8863C124.516 63.2272 125.017 63.6684 125.438 64.27L125.94 64.9518C126.381 65.5534 126.662 66.1951 126.802 66.8969C126.942 67.5988 126.902 68.5012 126.682 69.564C126.541 70.2257 126.06 71.4089 124.596 73.2137C123.212 74.8981 121.267 76.6427 118.82 78.4074C116.374 80.1721 114.108 81.4354 112.062 82.1974C110.237 82.8792 109.054 83.0196 108.392 83.0196V83.0396Z" fill="#1E1E1E"/>
<path d="M147.658 23.6626L170.239 17.2055L200.882 32.105L194.625 10.2271L216.143 4.0708L229.459 50.6139L209.004 56.4494L175.754 40.5272L182.472 64.0495L160.954 70.2057L147.658 23.6626Z" fill="white"/>
<path d="M214.779 6.55735L226.992 49.2302L209.204 54.3237L172.606 36.7973L180.006 62.6658L162.338 67.7191L150.125 25.0463L170.039 19.3512L204.03 35.8749L197.092 11.6107L214.759 6.55735H214.779ZM217.507 1.60425L213.656 2.70717L195.989 7.76053L192.138 8.86345L193.241 12.7136L197.713 28.335L171.803 15.7416L170.42 15.0799L168.936 15.501L149.022 21.1961L145.172 22.299L146.275 26.1492L158.488 68.8221L159.591 72.6723L163.441 71.5693L181.109 66.516L184.959 65.413L183.856 61.5629L178.903 44.2571L207.46 57.9333L208.823 58.595L210.287 58.1739L228.075 53.0804L231.926 51.9775L230.823 48.1273L218.61 5.45443L217.507 1.60425Z" fill="#1E1E1E"/>
<path d="M272.214 52.1178C270.851 52.1178 269.427 52.0777 267.963 52.0175L231.525 50.4534L233.61 2.10547L269.988 3.66961C275.483 3.91024 280.396 4.53189 284.628 5.53454C288.919 6.55724 292.449 7.82059 295.116 9.34462C297.823 10.8887 300.07 12.7536 301.774 14.8793C303.479 17.0249 304.662 19.2107 305.243 21.4166C305.825 23.5422 306.066 25.8483 305.965 28.2747L305.885 30.0594C305.785 32.4056 305.384 34.6516 304.702 36.697C304 38.8426 302.697 40.9683 300.852 43.0337C299.027 45.0992 296.68 46.8438 293.913 48.2074C291.186 49.551 287.556 50.6138 283.104 51.3156C279.835 51.837 276.185 52.1178 272.214 52.1178ZM266.439 36.1756C267.241 36.2157 268.003 36.2358 268.745 36.2358C282.362 36.2358 282.602 30.4204 282.703 28.4953V28.1343C282.803 26.0889 283.064 19.8925 267.181 19.2107L255.449 18.7094L254.707 35.6743L266.439 36.1756Z" fill="white"/>
<path d="M235.535 4.17103L269.908 5.65496C275.283 5.8956 280.035 6.49719 284.167 7.45973C288.298 8.44233 291.607 9.62546 294.113 11.0492C296.62 12.473 298.646 14.1575 300.19 16.0825C301.734 18.0076 302.777 19.9528 303.298 21.8979C303.82 23.823 304.04 25.9085 303.94 28.1344L303.86 29.9191C303.759 32.1049 303.398 34.1303 302.777 36.0153C302.155 37.9003 301.012 39.7852 299.348 41.6502C297.683 43.5352 295.577 45.0993 293.01 46.3626C290.464 47.626 287.054 48.6086 282.783 49.2904C279.614 49.8118 276.085 50.0524 272.214 50.0524C270.871 50.0524 269.487 50.0123 268.063 49.9521L233.63 48.4682L235.555 4.11087L235.535 4.17103ZM268.765 38.1609C279.113 38.1609 284.427 34.9525 284.708 28.5154V28.1545C285.009 21.3164 279.193 17.6467 267.261 17.1253L253.524 16.5237L252.622 37.4992L266.359 38.1008C267.181 38.1409 267.983 38.1609 268.765 38.1609ZM231.705 0L231.525 4.01061L229.599 48.3679L229.419 52.3786L233.43 52.559L267.863 54.043C269.347 54.1031 270.791 54.1432 272.194 54.1432C276.265 54.1432 280.035 53.8625 283.405 53.321C288.117 52.559 291.827 51.4762 294.775 50.0324C297.783 48.5484 300.33 46.6434 302.336 44.3774C304.361 42.1114 305.785 39.7251 306.587 37.3388C307.329 35.1129 307.75 32.6865 307.871 30.1397L307.951 28.355C308.071 25.7281 307.81 23.2214 307.169 20.8953C306.507 18.4287 305.203 16.0023 303.318 13.6361C301.453 11.3099 299.027 9.28456 296.099 7.6001C293.231 5.97581 289.641 4.67236 285.089 3.5895C280.737 2.56679 275.684 1.92509 270.069 1.68446L235.696 0.180477L231.685 0H231.705ZM256.793 33.7493L257.354 20.775L267.081 21.1961C280.978 21.7977 280.777 26.4901 280.697 28.0342V28.3951C280.617 29.9793 280.437 34.2105 268.745 34.2105C268.023 34.2105 267.281 34.2105 266.519 34.1704L256.793 33.7493Z" fill="#1E1E1E"/>
<path d="M318.166 9.91694L305.522 56.6448L327.184 62.5055L339.828 15.7776L318.166 9.91694Z" fill="white"/>
<path d="M319.582 12.3527L337.39 17.1654L325.799 60.0188L307.991 55.206L319.582 12.3527ZM316.754 7.4397L315.711 11.3099L304.12 54.1633L303.077 58.0335L306.948 59.0763L324.756 63.889L328.626 64.9318L329.669 61.0615L341.26 18.2082L342.303 14.3379L338.433 13.2952L320.625 8.48246L316.754 7.4397Z" fill="#1E1E1E"/>
<path d="M374.951 84.5636L362.197 49.9721L350.626 71.5091L330.912 60.9412L353.794 18.2883L374.49 29.3777L386.081 61.4224L396.85 41.3694L416.563 51.9574L393.682 94.6102L374.951 84.5636Z" fill="white"/>
<path d="M354.596 20.9954L372.846 30.7813L385.72 66.3153L397.652 44.0765L413.836 52.7595L392.859 91.883L376.556 83.1398L362.518 45.0792L349.803 68.7818L333.62 60.0989L354.596 20.9754V20.9954ZM352.952 15.541L351.047 19.0704L330.07 58.1938L328.165 61.7232L331.695 63.6282L347.878 72.3112L351.408 74.2162L353.313 70.6869L361.816 54.8249L372.765 84.5235L373.287 85.9473L374.63 86.6692L390.934 95.4123L394.464 97.3173L396.369 93.788L417.346 54.6645L419.251 51.1352L415.721 49.2301L399.538 40.5472L396.008 38.6421L394.103 42.1715L386.422 56.4893L376.616 29.3977L376.094 27.9538L374.751 27.2319L356.501 17.4461L352.972 15.541H352.952Z" fill="#1E1E1E"/>
<path d="M433.79 139.248L434.733 137.945C435.455 136.962 436.076 135.98 436.578 134.997C430.381 133.714 423.964 129.342 417.486 121.962L416.504 120.839C413.054 116.909 410.327 113.039 408.382 109.289C406.416 105.499 405.193 102.09 404.732 99.1421C404.271 96.1742 404.331 93.2665 404.912 90.5594C405.494 87.8321 406.416 85.506 407.64 83.621C408.823 81.7962 410.267 80.1318 411.911 78.6679L413.175 77.565C414.899 76.061 416.724 74.8177 418.649 73.8953C420.635 72.9327 423.061 72.3512 425.829 72.1707C426.27 72.1507 426.711 72.1306 427.172 72.1306C429.519 72.1306 431.965 72.5317 434.452 73.3539C437.36 74.2963 440.649 76.1212 444.278 78.7682C447.848 81.3751 451.538 84.8242 455.228 89.0353L456.913 90.9404C460.703 95.2518 463.771 99.4028 466.037 103.233C468.363 107.183 469.827 110.432 470.549 113.159C471.271 115.926 471.472 118.533 471.151 120.96C470.83 123.446 470.248 125.351 469.386 126.815C468.564 128.179 467.541 129.442 466.338 130.565L465.496 131.347L465.696 131.568L443.897 150.698L433.81 139.228L433.79 139.248ZM433.148 93.1863C431.384 93.1863 429.719 93.8882 428.075 95.332L427.593 95.7531C425.688 97.4175 424.846 99.6233 424.986 102.491C425.147 105.499 426.932 108.968 430.301 112.818C431.805 114.523 433.289 116.007 434.713 117.21C436.116 118.393 437.34 119.255 438.322 119.797C438.423 119.837 438.503 119.897 438.603 119.937L429.819 109.951L439.345 101.589L450.214 113.961L450.555 113.48C450.656 113.34 450.736 113.159 450.796 112.979C450.796 112.979 450.876 112.678 450.856 111.715C450.856 111.013 450.696 110.251 450.415 109.409C450.114 108.507 449.452 107.243 448.47 105.659C447.467 104.035 446.143 102.29 444.539 100.466C440.288 95.6127 436.457 93.1663 433.148 93.1663V93.1863Z" fill="white"/>
<path d="M427.172 74.136C429.318 74.136 431.544 74.517 433.83 75.259C436.538 76.1413 439.626 77.8458 443.095 80.3926C446.565 82.9193 450.094 86.2481 453.704 90.3589L455.388 92.264C459.118 96.5152 462.086 100.506 464.292 104.256C466.498 108.006 467.942 111.154 468.584 113.661C469.226 116.187 469.426 118.533 469.145 120.719C468.865 122.905 468.363 124.589 467.661 125.793C466.939 126.996 466.057 128.099 464.974 129.101L464.934 129.142L452.22 114.643C452.44 114.342 452.601 114.001 452.721 113.641C452.841 113.28 452.902 112.638 452.902 111.715C452.902 110.793 452.701 109.81 452.34 108.788C451.979 107.745 451.277 106.361 450.214 104.637C449.152 102.912 447.768 101.087 446.083 99.1622C441.411 93.8482 437.119 91.1811 433.188 91.1811C430.922 91.1811 428.797 92.0634 426.791 93.8281L426.29 94.2693C423.924 96.3347 422.841 99.1221 423.021 102.611C423.202 106.101 425.127 109.951 428.837 114.162C430.421 115.947 431.965 117.491 433.469 118.754C434.973 120.017 436.297 120.96 437.42 121.582C438.543 122.183 439.566 122.644 440.508 122.945C441.33 123.206 441.992 123.326 442.514 123.326C442.594 123.326 442.674 123.326 442.734 123.326C443.276 123.286 443.677 123.166 443.917 122.945L432.707 110.171L439.205 104.456L462.889 131.428L444.098 147.931L436.397 139.168C437.821 137.223 438.864 135.298 439.506 133.393C432.968 133.012 426.15 128.761 419.05 120.679L418.068 119.556C414.719 115.746 412.092 112.016 410.227 108.407C408.341 104.797 407.198 101.609 406.777 98.8614C406.356 96.1142 406.396 93.4872 406.938 91.0006C407.479 88.5141 408.281 86.4285 409.384 84.7441C410.467 83.0596 411.791 81.5557 413.315 80.2121L414.578 79.1092C416.163 77.7255 417.827 76.6026 419.592 75.7403C421.357 74.878 423.502 74.3767 426.029 74.2162C426.43 74.1962 426.831 74.1761 427.232 74.1761L427.172 74.136ZM427.232 70.1655C426.731 70.1655 426.25 70.1655 425.768 70.2056C422.74 70.4062 420.073 71.0479 417.847 72.1307C415.782 73.1334 413.776 74.4769 411.931 76.1012L410.668 77.2041C408.883 78.7883 407.319 80.573 406.035 82.5583C404.692 84.6438 403.669 87.1906 403.047 90.1584C402.405 93.1263 402.345 96.2545 402.847 99.4831C403.348 102.692 404.611 106.221 406.697 110.252C408.723 114.142 411.53 118.152 415.08 122.203L416.062 123.326C421.918 130.004 427.794 134.335 433.57 136.26C433.449 136.441 433.329 136.621 433.188 136.802L431.283 139.409L433.409 141.835L441.11 150.598L443.757 153.606L446.765 150.959L465.556 134.456L468.564 131.809L468.323 131.528C469.426 130.405 470.369 129.182 471.151 127.878C472.154 126.174 472.815 124.008 473.176 121.261C473.517 118.574 473.297 115.706 472.535 112.698C471.773 109.77 470.228 106.361 467.822 102.25C465.496 98.2999 462.347 94.0688 458.477 89.6571L456.792 87.752C453.002 83.4406 449.212 79.8913 445.522 77.1841C441.671 74.3767 438.282 72.5117 435.134 71.489C432.467 70.6067 429.799 70.1655 427.232 70.1655ZM429.138 107.966C427.834 105.92 427.112 104.035 427.032 102.431C426.892 99.4831 428.055 98.0994 428.957 97.2973L429.458 96.8561C430.722 95.7532 431.945 95.2118 433.209 95.2118C435.876 95.2118 439.285 97.4978 443.095 101.829C444.619 103.574 445.883 105.238 446.825 106.762C447.026 107.063 447.186 107.364 447.347 107.625L442.233 101.809L439.586 98.8013L436.578 101.448L430.08 107.163L429.158 107.966H429.138Z" fill="#1E1E1E"/>
<path d="M65.6772 413.855C59.7211 413.855 53.9856 409.503 48.1298 400.58L21.5181 359.952L62.0073 333.442L88.4586 373.849C92.3491 379.785 94.1941 384.517 94.1139 388.307C94.0336 392.338 92.4494 395.386 89.4012 397.371L88.8597 397.732C87.1551 398.835 85.3703 399.397 83.5654 399.397C82.6429 399.397 81.7204 399.256 80.798 398.976C80.1963 398.795 79.6148 398.574 79.0532 398.314C79.1736 399.296 79.2137 400.379 79.2137 401.502C79.2137 403.347 78.7123 405.152 77.7297 406.836C76.7671 408.501 75.3833 409.944 73.5985 411.108L72.9969 411.509C70.6105 413.073 68.1438 413.855 65.6571 413.855H65.6772ZM57.6154 388.668C58.6582 390.252 59.6609 391.175 60.4029 391.175C60.6436 391.175 60.9244 391.075 61.2252 390.874C61.8669 390.453 61.9672 390.172 61.9471 389.791C61.9471 389.37 61.7666 388.387 60.6436 386.703L49.1325 369.137L46.1044 371.122L57.6154 388.688V388.668ZM71.6934 378.04C72.7763 379.684 73.5584 380.126 73.8592 380.126C73.9595 380.126 74.0999 380.065 74.2603 379.965C74.6614 379.705 74.6815 379.584 74.6815 379.344C74.6815 379.003 74.521 378.221 73.5785 376.797L62.7292 360.213L60.8441 361.456L71.6934 378.04Z" fill="white"/>
<path d="M61.4458 336.209L86.8142 374.932C90.444 380.467 92.2087 384.898 92.1486 388.247C92.0684 391.596 90.805 394.062 88.3584 395.667L87.8169 396.028C86.4532 396.93 85.0494 397.371 83.6256 397.371C82.9037 397.371 82.1817 397.251 81.4598 397.03C79.2739 396.349 77.4289 395.246 75.9048 393.722C76.4061 394.985 76.7471 396.208 76.9676 397.411C77.1882 398.615 77.2885 399.978 77.2685 401.482C77.2685 402.986 76.8473 404.45 76.0452 405.834C75.243 407.217 74.0799 408.42 72.5557 409.423L71.9541 409.824C69.8886 411.168 67.823 411.85 65.7173 411.85C60.5433 411.85 55.2491 407.719 49.8345 399.477L24.3257 360.534L61.4658 336.209H61.4458ZM73.8793 382.131C74.3807 382.131 74.882 381.971 75.3834 381.65L75.4836 381.589C77.1882 380.487 77.108 378.521 75.2831 375.714L63.3309 357.446L58.0967 360.875L70.049 379.143C71.3525 381.148 72.636 382.131 73.8994 382.131H73.8793ZM60.4431 393.18C61.0848 393.18 61.7265 392.98 62.3683 392.559L62.5086 392.458C64.5341 391.135 64.494 388.849 62.3683 385.6L49.7542 366.349L43.357 370.54L55.971 389.791C57.455 392.057 58.939 393.2 60.4431 393.2V393.18ZM62.649 330.675L59.3 332.881L22.1598 357.205L18.8108 359.411L21.0167 362.76L46.5255 401.703C52.7824 411.248 59.0593 415.88 65.7574 415.88C68.6452 415.88 71.4728 414.978 74.1801 413.193L74.7817 412.792C76.8273 411.449 78.4316 409.784 79.5546 407.839C80.6977 405.834 81.2793 403.708 81.2993 401.522C81.2993 401.402 81.2993 401.282 81.2993 401.161C82.0814 401.322 82.8635 401.422 83.6457 401.422C85.8516 401.422 87.9974 400.74 90.0429 399.417L90.5844 399.056C93.0711 397.431 96.0591 394.243 96.1995 388.367C96.2797 384.156 94.3345 379.063 90.2234 372.766L64.855 334.044L62.649 330.695V330.675Z" fill="#1E1E1E"/>
<path d="M123.132 459.596C120.184 459.596 116.675 458.874 112.684 457.45C108.573 455.986 104.221 453.64 99.7692 450.492L97.6034 448.968C93.011 445.719 89.2609 442.35 86.4733 438.921C83.6457 435.452 81.7205 432.243 80.7379 429.336C79.7753 426.428 79.3742 423.46 79.5747 420.552C79.7753 417.665 80.2967 415.218 81.139 413.273C81.9411 411.408 82.9839 409.563 84.2273 407.799L97.6034 388.869L116.274 402.064L103.64 419.931C102.898 420.974 102.356 422.077 102.035 423.159C101.714 424.222 101.614 425.445 101.735 426.749C101.835 427.952 102.416 429.316 103.499 430.8C104.662 432.404 106.367 434.008 108.593 435.592C110.779 437.136 112.844 438.199 114.709 438.741C115.792 439.061 116.795 439.222 117.678 439.222C118.199 439.222 118.68 439.162 119.121 439.061C120.425 438.741 121.528 438.239 122.43 437.598C123.353 436.936 124.195 436.053 124.937 435.011L137.551 417.143L156.161 430.298L142.785 449.228C141.562 450.973 140.138 452.557 138.574 453.961C136.949 455.405 134.784 456.708 132.136 457.831C129.449 458.954 126.541 459.576 123.513 459.636H123.092L123.132 459.596Z" fill="white"/>
<path d="M98.1248 391.656L113.526 402.525L102.055 418.748C101.193 419.991 100.551 421.254 100.17 422.558C99.7893 423.861 99.6489 425.305 99.7893 426.889C99.9096 428.473 100.632 430.158 101.935 431.943C103.239 433.727 105.084 435.492 107.49 437.197C109.876 438.881 112.102 440.024 114.208 440.626C115.492 441.007 116.675 441.187 117.738 441.187C118.42 441.187 119.081 441.107 119.683 440.946C121.227 440.545 122.551 439.964 123.654 439.162C124.757 438.36 125.739 437.337 126.622 436.114L138.093 419.891L153.434 430.739L141.201 448.025C140.058 449.649 138.754 451.113 137.29 452.417C135.826 453.72 133.861 454.883 131.415 455.926C128.948 456.969 126.321 457.51 123.513 457.59C123.393 457.59 123.253 457.59 123.132 457.59C120.405 457.59 117.156 456.909 113.366 455.565C109.395 454.141 105.264 451.915 100.932 448.867L98.7665 447.343C94.2945 444.195 90.7248 440.966 88.0376 437.678C85.3503 434.389 83.5455 431.401 82.6631 428.734C81.7807 426.067 81.4197 423.38 81.6002 420.713C81.7807 418.046 82.262 415.84 83.004 414.075C83.7661 412.311 84.7287 410.606 85.8918 408.962L98.1248 391.676V391.656ZM97.1622 386.081L94.856 389.35L82.623 406.636C81.2994 408.521 80.1764 410.486 79.3341 412.491C78.3916 414.697 77.8301 417.284 77.6095 420.432C77.3889 423.621 77.81 426.829 78.8528 429.997C79.9157 433.166 81.901 436.515 84.9292 440.225C87.837 443.774 91.7275 447.283 96.4603 450.632L98.6261 452.156C103.239 455.405 107.731 457.831 112.022 459.355C116.294 460.879 119.924 461.621 123.132 461.621C123.293 461.621 123.453 461.621 123.614 461.621C126.902 461.541 130.051 460.879 132.959 459.656C135.806 458.453 138.173 457.029 139.958 455.445C141.642 453.941 143.166 452.236 144.47 450.371L156.703 433.066L159.009 429.797L155.74 427.491L140.399 416.642L137.13 414.336L134.824 417.605L123.353 433.828C122.731 434.69 122.049 435.412 121.307 435.953C120.625 436.455 119.743 436.836 118.7 437.096C118.42 437.176 118.099 437.197 117.738 437.197C117.056 437.197 116.234 437.056 115.331 436.795C113.667 436.314 111.802 435.352 109.796 433.928C107.751 432.484 106.207 431.04 105.164 429.596C104.322 428.433 103.84 427.391 103.78 426.568C103.7 425.486 103.78 424.523 104.021 423.701C104.281 422.818 104.723 421.936 105.344 421.054L116.815 404.831L119.121 401.562L115.853 399.256L100.451 388.387L97.1822 386.081H97.1622Z" fill="#1E1E1E"/>
<path d="M157.267 427.39L139.501 472.421L160.637 480.759L178.403 435.728L157.267 427.39Z" fill="white"/>
<path d="M158.387 430.038L175.794 436.916L159.49 478.205L142.083 471.327L158.387 430.038ZM156.121 424.844L154.657 428.574L138.353 469.863L136.889 473.593L140.619 475.057L158.026 481.935L161.756 483.399L163.22 479.669L179.524 438.38L180.988 434.65L177.258 433.186L159.851 426.308L156.121 424.844Z" fill="#1E1E1E"/>
<path d="M170.259 485.184L178.923 437.558L201.343 441.648L195.668 472.811L229.258 478.927L226.25 495.371L170.259 485.184Z" fill="white"/>
<path d="M180.527 439.904L198.997 443.273L193.321 474.435L226.892 480.551L224.606 493.064L172.545 483.579L180.487 439.904H180.527ZM177.258 435.231L176.536 439.182L168.595 482.857L167.873 486.808L171.823 487.53L223.884 497.015L227.835 497.737L228.556 493.786L230.843 481.273L231.565 477.323L227.614 476.601L197.974 471.207L202.927 443.975L203.649 440.024L199.699 439.302L181.229 435.933L177.278 435.211L177.258 435.231Z" fill="#1E1E1E"/>
<path d="M232.527 448.687L269.206 444.496C272.876 444.075 276.366 443.854 279.554 443.854C281.159 443.854 282.703 443.914 284.187 444.015C288.659 444.336 292.389 445.037 295.277 446.1C298.245 447.183 300.771 448.687 302.817 450.512C304.862 452.357 306.387 454.342 307.329 456.407C308.252 458.413 308.853 460.659 309.114 463.065L309.314 464.85C309.575 467.196 309.535 469.482 309.174 471.608C308.793 473.834 307.83 476.14 306.326 478.486C304.802 480.812 302.737 482.898 300.19 484.682C297.663 486.447 294.194 488.051 289.862 489.455C285.59 490.839 280.517 491.881 274.801 492.543L238.042 496.754L232.547 448.667L232.527 448.687ZM258.878 478.526L270.75 477.162C286.834 475.317 286.112 469.061 285.871 466.995L285.831 466.655C285.51 463.767 283.946 459.957 274.2 459.957C272.575 459.957 270.771 460.077 268.825 460.298L256.953 461.661L258.878 478.546V478.526Z" fill="white"/>
<path d="M279.554 445.859C281.118 445.859 282.602 445.92 284.026 446.02C288.318 446.321 291.827 446.982 294.575 448.005C297.322 449.028 299.608 450.351 301.453 452.016C303.298 453.68 304.642 455.425 305.484 457.27C306.306 459.094 306.848 461.12 307.108 463.326L307.309 465.11C307.55 467.276 307.51 469.342 307.189 471.307C306.868 473.272 306.005 475.297 304.622 477.423C303.238 479.549 301.373 481.434 299.007 483.078C296.64 484.722 293.371 486.226 289.2 487.59C285.029 488.953 280.136 489.936 274.541 490.598L239.787 494.568L234.753 450.472L269.447 446.501C273.077 446.08 276.446 445.88 279.554 445.88V445.859ZM257.114 480.752L270.971 479.168C283.023 477.784 288.639 473.673 287.857 466.795L287.816 466.434C287.175 460.779 282.622 457.951 274.18 457.951C272.475 457.951 270.61 458.072 268.565 458.292L254.707 459.877L257.094 480.752H257.114ZM279.534 441.869C276.285 441.869 272.716 442.089 268.966 442.511L234.272 446.481L230.281 446.942L230.742 450.933L235.776 495.03L236.237 499.02L240.228 498.559L274.982 494.588C280.838 493.927 286.032 492.844 290.444 491.42C295.036 489.936 298.585 488.272 301.313 486.387C304.08 484.442 306.326 482.176 307.991 479.629C309.655 477.062 310.718 474.495 311.139 471.989C311.54 469.662 311.581 467.196 311.3 464.669L311.099 462.884C310.798 460.278 310.137 457.831 309.134 455.625C308.071 453.299 306.387 451.093 304.14 449.048C301.914 447.043 299.167 445.418 295.958 444.255C292.85 443.112 289.04 442.39 284.307 442.049C282.783 441.949 281.179 441.889 279.534 441.889V441.869ZM259.159 463.426L269.046 462.303C270.911 462.082 272.656 461.982 274.2 461.982C283.284 461.982 283.665 465.431 283.846 466.915L283.886 467.276C284.066 468.84 284.608 473.593 270.53 475.217L260.643 476.34L259.159 463.446V463.426Z" fill="#1E1E1E"/>
<path d="M325.634 429.982L304.251 437.667L320.626 483.222L342.008 475.537L325.634 429.982Z" fill="white"/>
<path d="M324.455 432.504L339.476 474.275L321.868 480.611L306.848 438.841L324.455 432.504ZM326.882 427.371L323.112 428.734L305.504 435.071L301.734 436.435L303.098 440.205L318.118 481.975L319.482 485.745L323.252 484.381L340.859 478.045L344.63 476.681L343.266 472.911L328.245 431.141L326.882 427.371Z" fill="#1E1E1E"/>
<path d="M327.022 432.645L346.855 419.47L380.967 424.182L368.353 405.192L387.224 392.659L413.997 432.986L396.068 444.897L359.129 440.024L372.685 460.418L353.814 472.971L327.022 432.645Z" fill="white"/>
<path d="M386.663 395.446L411.229 432.424L395.587 442.812L355.017 437.457L369.898 459.877L354.356 470.204L329.789 433.226L347.317 421.595L385.079 426.809L371.121 405.794L386.663 395.466V395.446ZM387.786 389.912L384.437 392.138L368.895 402.465L365.546 404.691L367.772 408.04L376.816 421.656L347.858 417.665L346.354 417.464L345.091 418.307L327.563 429.937L324.214 432.163L326.44 435.512L351.007 472.49L353.233 475.839L356.582 473.613L372.124 463.286L375.473 461.06L373.247 457.711L363.24 442.651L395.045 446.862L396.529 447.063L397.773 446.221L413.415 435.833L416.764 433.607L414.538 430.258L389.972 393.281L387.746 389.932L387.786 389.912Z" fill="#1E1E1E"/>
<path d="M417.145 414.056C414.919 414.056 412.894 413.755 411.129 413.193C409.063 412.532 407.078 411.549 405.253 410.306L403.869 409.363C401.984 408.08 400.32 406.616 398.936 404.992C397.512 403.307 396.329 401.101 395.467 398.434C394.604 395.787 394.263 392.859 394.484 389.731C394.685 386.663 395.647 382.953 397.312 378.742C398.956 374.571 401.403 370.079 404.591 365.387L406.035 363.241C409.284 358.408 412.553 354.338 415.741 351.109C419.01 347.8 421.798 345.514 424.284 344.111C426.791 342.687 429.298 341.804 431.724 341.464C432.767 341.323 433.75 341.243 434.652 341.243C435.856 341.243 436.938 341.383 437.861 341.644C439.385 342.065 440.889 342.747 442.293 343.629L443.276 344.251L443.436 344.01L467.481 360.253L458.838 373.047L457.334 372.466C456.17 372.024 455.047 371.663 453.964 371.423C454.265 377.82 451.598 385.239 446.023 393.501L445.181 394.764C442.213 399.156 439.124 402.826 435.956 405.713C432.767 408.621 429.739 410.727 426.992 411.95C424.204 413.193 421.377 413.875 418.589 414.035C418.108 414.056 417.626 414.076 417.165 414.076L417.145 414.056ZM429.077 363.361C429.077 363.361 428.756 363.361 427.834 363.622C427.152 363.803 426.43 364.164 425.688 364.665C424.886 365.206 423.823 366.169 422.5 367.553C421.176 368.956 419.792 370.721 418.409 372.766C410.888 383.896 414.257 388.047 417.466 390.212L418.007 390.573C419.291 391.436 420.635 391.857 422.139 391.857C423.101 391.857 424.124 391.676 425.207 391.335C428.115 390.393 431.063 387.726 433.97 383.414C435.274 381.489 436.337 379.665 437.159 377.94C437.961 376.256 438.503 374.832 438.783 373.729C438.804 373.629 438.844 373.528 438.864 373.428L431.323 384.598L420.835 377.519L430.2 363.642L429.679 363.442C429.498 363.381 429.318 363.341 429.117 363.321L429.077 363.361Z" fill="white"/>
<path d="M434.652 343.268C435.675 343.268 436.558 343.368 437.32 343.589C438.663 343.97 439.967 344.552 441.21 345.334L441.27 345.374L430.321 361.597C429.98 361.476 429.599 361.396 429.218 361.376C429.178 361.376 429.158 361.376 429.118 361.376C428.716 361.376 428.115 361.496 427.313 361.717C426.43 361.958 425.508 362.399 424.585 363.04C423.663 363.662 422.48 364.725 421.076 366.209C419.652 367.693 418.228 369.518 416.764 371.683C410.427 381.068 410.287 387.826 416.343 391.917L416.885 392.278C418.489 393.361 420.234 393.902 422.139 393.902C423.302 393.902 424.545 393.702 425.829 393.28C429.178 392.198 432.446 389.29 435.635 384.577C436.999 382.572 438.102 380.647 438.964 378.842C439.826 377.038 440.408 375.493 440.729 374.25C441.05 373.007 441.23 371.884 441.29 370.881C441.351 369.879 441.29 369.117 441.11 368.595C440.929 368.074 440.709 367.733 440.448 367.552L430.782 381.85L423.603 377.017L443.998 346.818L464.714 360.815L458.096 370.621C455.85 369.738 453.724 369.237 451.698 369.097C452.942 375.574 450.495 383.334 444.379 392.398L443.536 393.661C440.649 397.933 437.681 401.462 434.632 404.25C431.584 407.037 428.777 408.982 426.19 410.125C423.623 411.268 421.056 411.89 418.489 412.03C418.048 412.05 417.606 412.07 417.165 412.07C415.14 412.07 413.355 411.81 411.791 411.308C409.886 410.687 408.081 409.804 406.416 408.681L405.033 407.739C403.288 406.556 401.784 405.232 400.5 403.728C399.217 402.224 398.194 400.279 397.412 397.853C396.63 395.426 396.329 392.779 396.51 389.912C396.71 387.044 397.592 383.575 399.197 379.524C400.801 375.473 403.168 371.142 406.276 366.55L407.72 364.404C410.928 359.652 414.077 355.701 417.185 352.573C420.294 349.445 422.981 347.219 425.287 345.915C427.573 344.612 429.819 343.81 432.025 343.509C432.988 343.368 433.87 343.308 434.673 343.308L434.652 343.268ZM434.673 339.298C433.69 339.298 432.627 339.378 431.484 339.538C428.797 339.899 426.049 340.882 423.322 342.426C420.675 343.91 417.747 346.316 414.358 349.765C411.089 353.074 407.74 357.245 404.411 362.178L402.967 364.304C399.718 369.117 397.191 373.749 395.487 378.04C393.702 382.512 392.739 386.322 392.519 389.631C392.298 393 392.659 396.188 393.602 399.096C394.544 402.004 395.848 404.43 397.452 406.315C398.956 408.08 400.741 409.684 402.787 411.068L404.17 412.01C406.156 413.354 408.301 414.396 410.547 415.138C412.513 415.78 414.739 416.101 417.165 416.101C417.667 416.101 418.168 416.101 418.689 416.061C421.738 415.9 424.806 415.138 427.794 413.815C430.782 412.491 433.89 410.346 437.3 407.237C440.568 404.25 443.777 400.459 446.825 395.928L447.668 394.664C452.741 387.164 455.489 380.286 455.93 374.11C456.15 374.19 456.371 374.27 456.592 374.35L459.58 375.513L461.385 372.846L468.002 363.04L470.248 359.712L466.919 357.466L446.204 343.469L442.875 341.223L442.674 341.524C441.31 340.742 439.867 340.12 438.403 339.719C437.3 339.398 436.036 339.258 434.652 339.258L434.673 339.298ZM422.139 389.912C421.036 389.912 420.093 389.611 419.131 388.969L418.589 388.608C416.864 387.445 412.814 384.718 420.073 373.949C421.397 371.984 422.7 370.32 423.964 368.996C424.204 368.736 424.445 368.495 424.666 368.274L420.254 374.792L418.008 378.12L421.337 380.366L428.516 385.199L429.539 385.901C427.834 387.766 426.15 388.989 424.585 389.49C423.703 389.771 422.881 389.912 422.139 389.912Z" fill="#1E1E1E"/>
<path d="M14.459 276.492V266.004H2.00537V252.969H14.459V242.542H30.3819V252.969H42.8957V266.004H30.3819V276.492H14.459Z" fill="white"/>
<path d="M28.3765 244.547V254.995H40.8903V263.998H28.3765V274.506H16.4644V263.998H4.01082V254.995H16.4644V244.547H28.3765ZM32.3874 240.536H12.4536V250.984H0V268.009H12.4536V278.517H32.3874V268.009H44.9011V250.984H32.3874V240.536Z" fill="#1E1E1E"/>
<path d="M479.995 243.985H454.486V259.085H479.995V243.985Z" fill="white"/>
<path d="M477.989 245.991V257.08H456.491V245.991H477.989ZM482 241.98H452.48V261.091H482V241.98Z" fill="#1E1E1E"/>
<path d="M244.339 341.363C296.605 341.363 338.974 298.996 338.974 246.733C338.974 194.47 296.605 152.103 244.339 152.103C192.073 152.103 149.704 194.47 149.704 246.733C149.704 298.996 192.073 341.363 244.339 341.363Z" fill="#F1E5E0"/>
<path d="M339.074 246.733C339.074 299.011 296.7 341.363 244.439 341.363C206.156 341.363 173.207 318.663 158.287 285.977C175.634 307.895 202.446 321.952 232.547 321.952C284.828 321.952 327.182 279.58 327.182 227.301C327.182 213.324 324.154 200.049 318.72 188.098C331.454 204.22 339.074 224.574 339.074 246.733Z" fill="#C4B8AF"/>
<path d="M244.339 152.103C296.6 152.103 338.974 194.475 338.974 246.733C338.974 298.991 296.6 341.363 244.339 341.363C192.078 341.363 149.704 298.991 149.704 246.733C149.704 194.475 192.078 152.103 244.339 152.103ZM244.339 149.335C190.634 149.335 146.936 193.031 146.936 246.733C146.936 300.435 190.634 344.13 244.339 344.13C298.044 344.13 341.742 300.435 341.742 246.733C341.742 193.031 298.044 149.335 244.339 149.335Z" fill="#231F20"/>
<path d="M220.094 274.947C219.693 274.947 219.271 274.947 218.87 274.947C206.738 274.747 194.685 271.518 184.036 265.603C176.877 261.632 174.31 252.628 178.261 245.489C182.232 238.331 191.236 235.764 198.375 239.714C202.867 242.201 210.147 245.189 219.352 245.349C229.619 245.51 237.681 242.121 242.614 239.253C249.673 235.142 258.738 237.548 262.849 244.627C266.96 251.706 264.554 260.75 257.474 264.861C249.473 269.513 236.578 274.967 220.094 274.967V274.947Z" fill="white"/>
<path d="M248.47 237.248C247.387 237.689 246.364 238.27 245.362 238.972C240.469 242.481 232.367 246.853 221.578 247.715C211.891 248.477 203.95 246.071 198.997 243.925C191.095 240.496 181.911 244.106 178.481 252.007C177.719 253.751 177.298 255.556 177.198 257.361C175.894 253.531 176.135 249.199 178.241 245.389C182.211 238.23 191.216 235.663 198.355 239.614C202.827 242.1 210.127 245.088 219.332 245.249C229.599 245.409 237.641 242.02 242.594 239.153C244.439 238.07 246.445 237.448 248.43 237.228L248.47 237.248Z" fill="#E8E8E8"/>
<path d="M220.094 276.331C219.672 276.331 219.251 276.331 218.83 276.331C206.477 276.13 194.204 272.842 183.334 266.826C179.544 264.74 176.817 261.291 175.614 257.14C174.41 252.989 174.912 248.618 177.017 244.828C181.349 237.027 191.216 234.199 199.017 238.511C203.369 240.917 210.428 243.825 219.352 243.965C229.339 244.126 237.12 240.837 241.912 238.07C245.643 235.904 250.014 235.322 254.186 236.425C258.357 237.528 261.866 240.195 264.032 243.945C266.198 247.675 266.78 252.047 265.677 256.218C264.574 260.389 261.906 263.898 258.156 266.064C250.074 270.756 236.899 276.351 220.074 276.351L220.094 276.331ZM191.216 239.233C186.483 239.233 181.911 241.719 179.444 246.151C177.699 249.279 177.298 252.909 178.281 256.358C179.264 259.807 181.55 262.655 184.678 264.399C195.146 270.195 206.958 273.363 218.87 273.564C235.696 273.824 248.791 268.29 256.773 263.657C259.881 261.853 262.087 258.965 263.009 255.496C263.932 252.027 263.451 248.417 261.646 245.309C259.841 242.201 256.953 239.995 253.484 239.072C250.014 238.15 246.405 238.631 243.296 240.436C238.202 243.404 229.9 246.873 219.312 246.713C209.806 246.552 202.306 243.464 197.693 240.917C195.648 239.774 193.402 239.233 191.216 239.233Z" fill="#231F20"/>
<path d="M202.086 241.712L194.967 270.648L196.759 271.088L203.877 242.152L202.086 241.712Z" fill="#231F20"/>
<path d="M223.118 245.277L221.274 245.34L222.287 274.921L224.131 274.858L223.118 245.277Z" fill="#231F20"/>
<path d="M239.101 241.122L237.409 241.857L249.212 269.001L250.904 268.265L239.101 241.122Z" fill="#231F20"/>
<path d="M262.648 214.668C262.127 221.426 259.38 227.261 255.509 230.871C252.341 229.567 248.39 228.525 243.898 228.585C243.015 228.585 242.113 228.645 241.211 228.745C239.626 228.926 238.142 229.226 236.779 229.607C233.41 225.457 231.524 219.16 232.046 212.302C232.948 200.611 240.549 191.647 248.992 192.309C255.97 192.85 261.345 199.769 262.468 208.772C262.749 210.657 262.789 212.663 262.628 214.688L262.648 214.668Z" fill="white"/>
<path d="M262.648 214.668C262.127 221.426 259.38 227.261 255.509 230.871C252.341 229.567 248.39 228.525 243.898 228.585C243.437 226.66 243.196 224.574 243.216 222.388L250.074 217.656L244.58 214.187C246.665 207.87 251.017 203.599 255.65 203.98C258.377 204.18 260.783 205.965 262.488 208.772C262.769 210.657 262.809 212.663 262.648 214.688V214.668Z" fill="#080B0A"/>
<path d="M255.79 232.475L254.968 232.134C251.338 230.63 247.648 229.908 243.918 229.948C243.096 229.948 242.233 230.008 241.351 230.109C239.947 230.269 238.523 230.53 237.16 230.931L236.277 231.172L235.716 230.47C231.966 225.857 230.141 219.2 230.682 212.181C231.143 206.246 233.269 200.771 236.658 196.76C240.148 192.63 244.58 190.564 249.112 190.905C256.572 191.487 262.628 198.746 263.852 208.572C264.132 210.517 264.193 212.602 264.012 214.768C263.471 221.646 260.723 227.883 256.432 231.873L255.79 232.475ZM244.239 227.181C247.909 227.181 251.579 227.863 255.168 229.246C258.598 225.717 260.803 220.423 261.265 214.548C261.425 212.582 261.365 210.697 261.124 208.933C260.061 200.41 255.028 194.134 248.891 193.652C245.262 193.372 241.672 195.096 238.764 198.525C235.756 202.075 233.851 207.008 233.43 212.362C232.968 218.237 234.412 223.993 237.32 228.003C238.543 227.702 239.807 227.482 241.05 227.341C242.033 227.241 242.975 227.181 243.878 227.161C243.998 227.161 244.118 227.161 244.239 227.161V227.181Z" fill="#231F20"/>
<path d="M259.119 234.36C258.878 234.36 258.638 234.3 258.417 234.159C255.77 232.575 251.458 230.59 245.923 230.209C241.892 229.928 237.781 230.55 233.991 231.994C233.269 232.274 232.487 231.913 232.206 231.192C231.926 230.49 232.287 229.688 233.009 229.407C237.16 227.823 241.712 227.141 246.124 227.442C250.957 227.783 255.69 229.266 259.861 231.773C260.523 232.174 260.723 233.016 260.322 233.658C260.061 234.079 259.6 234.32 259.139 234.32L259.119 234.36Z" fill="#231F20"/>
<path d="M211.751 214.447C211.229 221.145 208.502 226.92 204.692 230.49C201.563 229.206 197.653 228.164 193.201 228.224C192.339 228.224 191.436 228.284 190.534 228.384C188.949 228.565 187.485 228.865 186.142 229.226C182.813 225.115 180.928 218.899 181.469 212.081C182.372 200.51 189.892 191.647 198.234 192.289C205.133 192.83 210.467 199.688 211.59 208.572C211.851 210.437 211.911 212.422 211.751 214.427V214.447Z" fill="white"/>
<path d="M211.751 214.447C211.23 221.145 208.502 226.92 204.692 230.49C201.564 229.206 197.653 228.164 193.201 228.224C192.74 226.319 192.499 224.253 192.519 222.088L199.298 217.415L193.863 213.986C195.928 207.73 200.24 203.518 204.832 203.879C207.54 204.08 209.906 205.845 211.611 208.632C211.871 210.497 211.932 212.482 211.771 214.488L211.751 214.447Z" fill="#080B0A"/>
<path d="M204.973 232.094L204.151 231.753C200.561 230.269 196.911 229.547 193.201 229.587C192.399 229.587 191.536 229.648 190.654 229.748C189.27 229.908 187.867 230.169 186.503 230.55L185.621 230.791L185.059 230.089C181.349 225.517 179.544 218.919 180.086 211.981C180.547 206.105 182.653 200.671 186.002 196.72C189.471 192.63 193.863 190.584 198.335 190.925C205.715 191.487 211.731 198.686 212.954 208.411C213.235 210.336 213.295 212.402 213.115 214.548C212.593 221.366 209.846 227.542 205.614 231.492L204.973 232.094ZM193.542 226.84C197.172 226.84 200.801 227.522 204.351 228.885C207.74 225.396 209.926 220.142 210.367 214.367C210.528 212.422 210.468 210.557 210.227 208.812C209.164 200.37 204.191 194.174 198.134 193.712C194.545 193.432 190.995 195.156 188.107 198.545C185.119 202.075 183.254 206.927 182.833 212.241C182.392 218.037 183.816 223.752 186.663 227.702C187.887 227.402 189.11 227.181 190.353 227.041C191.316 226.94 192.258 226.88 193.161 226.86C193.281 226.86 193.402 226.86 193.522 226.86L193.542 226.84Z" fill="#231F20"/>
<path d="M208.161 233.939C207.921 233.939 207.68 233.879 207.459 233.738C204.852 232.174 200.581 230.209 195.086 229.828C191.115 229.547 187.024 230.169 183.274 231.593C182.572 231.873 181.77 231.512 181.489 230.79C181.209 230.069 181.57 229.287 182.292 229.006C186.403 227.442 190.895 226.76 195.267 227.061C200.039 227.402 204.752 228.885 208.863 231.352C209.525 231.753 209.726 232.595 209.324 233.237C209.064 233.658 208.602 233.899 208.141 233.899L208.161 233.939Z" fill="#231F20"/>
<path d="M228.276 228.544C228.276 231.592 225.97 234.3 222.36 236.064C219.652 237.408 216.183 238.19 212.433 238.19C203.689 238.19 196.61 233.879 196.61 228.544C196.61 226.78 197.372 225.155 198.716 223.732C201.443 220.844 206.557 218.899 212.433 218.899C221.177 218.899 228.256 223.21 228.256 228.544H228.276Z" fill="#FECD0A"/>
<path d="M222.36 236.064C219.652 237.408 216.183 238.19 212.433 238.19C203.689 238.19 196.61 233.879 196.61 228.544C196.61 226.78 197.372 225.155 198.716 223.732C199.318 225.416 200.22 227.241 201.624 228.905C206.457 234.641 214.779 235.944 222.36 236.064Z" fill="#EEB91D"/>
<path d="M212.433 239.574C202.787 239.574 195.227 234.721 195.227 228.545C195.227 226.479 196.089 224.494 197.713 222.789C200.822 219.501 206.337 217.535 212.433 217.535C222.079 217.535 229.639 222.388 229.639 228.565C229.639 232.054 227.213 235.242 222.961 237.328C219.933 238.812 216.303 239.594 212.433 239.594V239.574ZM212.433 220.283C207.159 220.283 202.286 221.967 199.719 224.694C198.576 225.898 197.994 227.201 197.994 228.565C197.994 233.036 204.612 236.826 212.433 236.826C215.822 236.826 219.131 236.125 221.738 234.841C225.007 233.237 226.872 230.951 226.872 228.565C226.872 224.093 220.254 220.303 212.433 220.303V220.283Z" fill="#231F20"/>
<path d="M218.63 286.939C214.859 286.939 210.608 286.217 206.517 283.911C204.632 282.848 202.867 281.485 201.323 279.9C200.782 279.359 200.802 278.477 201.343 277.955C201.884 277.414 202.767 277.434 203.288 277.975C204.672 279.379 206.216 280.582 207.881 281.525C215.642 285.916 224.305 283.831 227.674 282.748C228.396 282.507 229.178 282.908 229.419 283.63C229.659 284.352 229.258 285.134 228.536 285.375C226.551 286.017 222.921 286.959 218.63 286.959V286.939Z" fill="#231F20"/>
<path d="M289.902 165.558L289.761 165.257C289.08 163.673 287.796 162.41 286.192 161.748L285.991 161.668L286.452 161.447C287.916 160.766 289.08 159.582 289.721 158.119L289.882 157.758L289.942 157.898C290.604 159.542 291.907 160.866 293.532 161.548L293.772 161.648C291.967 162.31 290.543 163.733 289.882 165.538L289.902 165.558Z" fill="white"/>
<path d="M290.764 165.879L289.04 165.217C289.802 163.172 291.426 161.568 293.471 160.806C293.953 160.625 294.474 160.866 294.655 161.347C294.835 161.828 294.595 162.35 294.113 162.53C292.549 163.112 291.346 164.335 290.764 165.879Z" fill="#231F20"/>
<path d="M293.792 162.57C293.672 162.57 293.552 162.55 293.432 162.49L293.191 162.39C291.326 161.608 289.842 160.104 289.1 158.219L289.04 158.078C288.859 157.597 289.08 157.076 289.561 156.875C290.022 156.695 290.564 156.915 290.764 157.396L290.824 157.537C291.386 158.941 292.509 160.104 293.913 160.685L294.153 160.785C294.615 160.986 294.835 161.527 294.655 161.989C294.514 162.35 294.174 162.55 293.813 162.55L293.792 162.57Z" fill="#231F20"/>
<path d="M285.991 162.57C285.65 162.57 285.309 162.37 285.149 162.029C284.928 161.568 285.149 161.026 285.59 160.806L286.051 160.585C287.315 160.003 288.318 158.981 288.879 157.717L289.04 157.356C289.24 156.895 289.782 156.675 290.263 156.895C290.724 157.096 290.945 157.637 290.724 158.118L290.564 158.479C289.822 160.144 288.498 161.507 286.834 162.269L286.372 162.49C286.252 162.55 286.112 162.57 285.991 162.57Z" fill="#231F20"/>
<path d="M289.902 166.481C289.541 166.481 289.2 166.28 289.06 165.919L288.919 165.618C288.318 164.235 287.235 163.172 285.851 162.59L285.65 162.51C285.189 162.31 284.949 161.788 285.149 161.307C285.35 160.826 285.891 160.605 286.352 160.806L286.553 160.886C288.378 161.648 289.822 163.052 290.604 164.876L290.744 165.177C290.945 165.638 290.744 166.18 290.263 166.38C290.143 166.441 290.022 166.461 289.902 166.461V166.481Z" fill="#231F20"/>
<path d="M296.359 337.393L296.079 336.731C294.594 333.282 291.827 330.555 288.358 329.131L287.917 328.95L288.919 328.489C292.088 327.025 294.615 324.459 296.018 321.27L296.359 320.488L296.48 320.789C297.903 324.378 300.711 327.226 304.281 328.71L304.822 328.93C300.912 330.374 297.823 333.462 296.379 337.373L296.359 337.393Z" fill="white"/>
<path d="M296.359 338.315C296.259 338.315 296.159 338.315 296.059 338.255C295.577 338.074 295.337 337.573 295.497 337.092C297.061 332.901 300.33 329.632 304.501 328.088C304.983 327.908 305.504 328.148 305.684 328.629C305.865 329.111 305.624 329.632 305.143 329.813C301.473 331.176 298.605 334.044 297.242 337.713C297.101 338.094 296.74 338.315 296.379 338.315H296.359Z" fill="#231F20"/>
<path d="M304.802 329.873C304.682 329.873 304.561 329.853 304.441 329.792L303.9 329.572C300.129 328.008 297.121 324.92 295.597 321.15L295.477 320.849C295.296 320.368 295.517 319.846 295.998 319.646C296.46 319.465 297.001 319.686 297.202 320.167L297.322 320.468C298.645 323.797 301.313 326.504 304.622 327.887L305.143 328.108C305.604 328.309 305.825 328.85 305.644 329.311C305.504 329.672 305.163 329.873 304.802 329.873Z" fill="#231F20"/>
<path d="M287.917 329.873C287.576 329.873 287.235 329.672 287.074 329.331C286.854 328.87 287.074 328.329 287.516 328.108L288.518 327.647C291.486 326.283 293.853 323.877 295.176 320.889L295.517 320.107C295.718 319.646 296.259 319.425 296.74 319.646C297.202 319.846 297.422 320.388 297.202 320.869L296.861 321.651C295.357 325.04 292.669 327.767 289.3 329.331L288.298 329.793C288.177 329.853 288.037 329.873 287.917 329.873Z" fill="#231F20"/>
<path d="M296.359 338.315C295.998 338.315 295.658 338.115 295.517 337.754L295.236 337.092C293.833 333.843 291.286 331.317 288.017 329.973L287.576 329.793C287.114 329.592 286.874 329.071 287.074 328.589C287.275 328.128 287.816 327.888 288.278 328.088L288.719 328.269C292.429 329.793 295.337 332.66 296.941 336.35L297.222 337.012C297.422 337.473 297.222 338.014 296.74 338.215C296.62 338.275 296.5 338.295 296.379 338.295L296.359 338.315Z" fill="#231F20"/>
<path d="M211.29 282.327C212.573 282.868 213.977 283.089 215.361 283.009C215.962 282.969 216.544 282.507 216.504 281.866C216.484 281.264 216.003 280.683 215.361 280.723C214.819 280.763 214.258 280.723 213.716 280.663L214.017 280.703C213.295 280.602 212.573 280.402 211.891 280.121C211.631 280.021 211.23 280.121 211.009 280.241C210.768 280.382 210.548 280.663 210.488 280.923C210.427 281.224 210.427 281.545 210.608 281.806C210.788 282.066 211.009 282.207 211.29 282.327Z" fill="#231F20"/>
<path d="M187.927 187.175C190.995 184.729 194.946 183.566 198.836 183.867C202.968 184.187 206.397 186.173 209.405 188.9C210.488 189.902 212.132 188.278 211.029 187.276C207.56 184.107 203.609 181.921 198.836 181.56C194.064 181.199 189.832 182.723 186.303 185.551C185.139 186.473 186.784 188.098 187.927 187.175Z" fill="#231F20"/>
<path d="M240.168 187.175C243.236 184.729 247.187 183.566 251.077 183.867C255.208 184.187 258.638 186.173 261.646 188.9C262.729 189.902 264.373 188.278 263.27 187.276C259.801 184.107 255.85 181.921 251.077 181.56C246.304 181.199 242.073 182.723 238.543 185.551C237.38 186.473 239.025 188.098 240.168 187.175Z" fill="#231F20"/>
<path d="M132.257 360.855C131.876 360.855 131.515 360.614 131.394 360.233C126.26 345.294 134.924 316.096 154.597 282.147C154.858 281.705 155.419 281.565 155.86 281.806C156.301 282.066 156.442 282.628 156.201 283.069C137.09 316.056 128.266 345.394 133.159 359.632C133.319 360.113 133.079 360.634 132.598 360.795C132.497 360.835 132.397 360.855 132.297 360.855H132.257Z" fill="#231F20"/>
<path d="M151.007 372.285C147.618 372.285 144.55 371.804 141.863 370.821C141.381 370.641 141.141 370.119 141.321 369.638C141.502 369.157 142.023 368.916 142.504 369.097C145.071 370.039 148.019 370.5 151.288 370.5C180.808 370.5 236.759 332.981 288.277 277.374C344.77 216.393 379.423 151.18 368.895 125.673C368.694 125.211 368.935 124.67 369.396 124.469C369.878 124.269 370.399 124.51 370.6 124.971C375.854 137.684 370.6 160.184 355.78 188.298C340.94 216.513 317.436 248.578 289.621 278.617C237.761 334.585 181.189 372.285 151.007 372.285Z" fill="#231F20"/>
<path d="M270.369 155.11C270.088 155.11 269.828 154.99 269.647 154.749C269.346 154.348 269.407 153.767 269.808 153.466C308.372 123.848 341.822 109.329 359.269 114.603C359.75 114.744 360.031 115.265 359.891 115.746C359.75 116.227 359.229 116.508 358.748 116.368C342.103 111.335 308.452 126.114 270.931 154.93C270.77 155.05 270.57 155.11 270.369 155.11Z" fill="#231F20"/>
<path d="M209.004 158.118C208.843 158.118 208.683 158.078 208.543 157.998C175.554 138.888 146.214 130.064 131.976 134.957C131.495 135.118 130.973 134.857 130.813 134.396C130.652 133.914 130.893 133.393 131.374 133.233C146.315 128.099 175.513 136.762 209.465 156.434C209.906 156.695 210.047 157.256 209.806 157.697C209.625 157.998 209.325 158.159 209.004 158.159V158.118Z" fill="#231F20"/>
<path d="M355.198 374.39C342.203 374.39 324.335 368.655 303.298 357.606C275.082 342.767 243.016 319.265 212.975 291.451C150.687 233.758 111.06 170.25 120.766 143.7C120.946 143.219 121.468 142.978 121.949 143.159C122.43 143.339 122.671 143.861 122.49 144.342C113.025 170.23 152.451 232.896 214.218 290.108C275.202 346.597 340.418 381.249 365.927 370.721C366.388 370.52 366.93 370.741 367.13 371.222C367.331 371.683 367.09 372.225 366.629 372.425C363.42 373.749 359.57 374.411 355.178 374.411L355.198 374.39Z" fill="#231F20"/>
<path d="M376.155 361.737C376.155 361.737 375.974 361.737 375.894 361.697C375.413 361.557 375.132 361.035 375.272 360.554C380.306 343.91 365.526 310.261 336.708 272.742C336.407 272.341 336.468 271.759 336.869 271.458C337.27 271.137 337.851 271.218 338.152 271.619C367.772 310.181 382.291 343.629 377.017 361.075C376.897 361.476 376.536 361.737 376.135 361.737H376.155Z" fill="#231F20"/>
<path d="M84.0668 245.79C83.9264 245.79 83.786 245.75 83.6657 245.69C83.2044 245.47 83.0239 244.908 83.2445 244.467C90.2434 230.309 117.056 215.891 155.018 205.945C155.499 205.825 156.021 206.105 156.141 206.607C156.261 207.108 155.981 207.609 155.479 207.73C118.6 217.415 91.5469 231.793 84.889 245.289C84.7286 245.61 84.4077 245.81 84.0668 245.81V245.79Z" fill="#231F20"/>
<path d="M234.011 299.633C157.324 299.633 94.0336 283.149 83.1041 259.386C82.8835 258.925 83.1041 258.384 83.5453 258.163C84.0066 257.942 84.548 258.163 84.7686 258.624C96.2797 283.67 168.414 300.375 252.561 297.487C335.625 294.639 406.336 273.303 417.045 247.856C417.245 247.394 417.787 247.174 418.248 247.354C418.709 247.555 418.93 248.096 418.749 248.558C413.415 261.251 393.742 273.343 363.36 282.648C332.878 291.972 293.552 297.888 252.641 299.292C246.364 299.512 240.148 299.613 234.011 299.613V299.633Z" fill="#231F20"/>
<path d="M417.326 234.561C417.005 234.561 416.684 234.38 416.503 234.079C408.361 218.719 374.169 205.243 327.283 198.906C326.781 198.846 326.42 198.365 326.501 197.864C326.561 197.362 327.042 197.001 327.543 197.081C375.733 203.599 409.605 217.114 418.148 233.217C418.388 233.658 418.208 234.22 417.767 234.46C417.626 234.541 417.486 234.561 417.346 234.561H417.326Z" fill="#231F20"/>
<path d="M156.663 287.882L156.462 287.44C155.479 285.154 153.634 283.33 151.308 282.367L151.007 282.247L151.669 281.946C153.775 280.963 155.459 279.259 156.402 277.133L156.622 276.612L156.703 276.812C157.665 279.199 159.53 281.104 161.897 282.086L162.258 282.227C159.651 283.189 157.605 285.255 156.622 287.862L156.663 287.882Z" fill="white"/>
<path d="M157.525 288.202L155.8 287.561C156.863 284.693 159.109 282.447 161.977 281.384C162.458 281.204 162.979 281.445 163.16 281.926C163.34 282.407 163.1 282.928 162.618 283.109C160.252 283.991 158.407 285.836 157.525 288.202Z" fill="#231F20"/>
<path d="M162.298 283.169C162.177 283.169 162.057 283.149 161.937 283.089L161.576 282.948C158.989 281.866 156.923 279.76 155.88 277.153L155.8 276.953C155.62 276.471 155.84 275.95 156.322 275.749C156.803 275.569 157.324 275.79 157.525 276.271L157.605 276.471C158.467 278.617 160.172 280.362 162.298 281.244L162.659 281.384C163.12 281.585 163.34 282.126 163.16 282.587C163.02 282.948 162.679 283.149 162.318 283.149L162.298 283.169Z" fill="#231F20"/>
<path d="M151.027 283.169C150.686 283.169 150.345 282.969 150.185 282.628C149.964 282.166 150.185 281.625 150.626 281.404L151.288 281.104C153.193 280.221 154.717 278.677 155.559 276.752L155.78 276.231C155.981 275.769 156.522 275.549 157.003 275.77C157.465 275.97 157.685 276.511 157.465 276.993L157.244 277.514C156.201 279.84 154.356 281.725 152.05 282.788L151.388 283.089C151.268 283.149 151.127 283.169 151.007 283.169H151.027Z" fill="#231F20"/>
<path d="M156.662 288.804C156.302 288.804 155.961 288.603 155.82 288.243L155.62 287.801C154.717 285.716 153.073 284.092 150.967 283.229L150.666 283.109C150.205 282.908 149.964 282.387 150.165 281.906C150.365 281.445 150.907 281.204 151.368 281.404L151.669 281.525C154.216 282.568 156.221 284.553 157.304 287.079L157.505 287.521C157.705 287.982 157.505 288.523 157.023 288.724C156.903 288.784 156.783 288.804 156.662 288.804Z" fill="#231F20"/>
<path d="M377.659 118.253C377.659 124.509 372.585 129.603 366.308 129.603C364.503 129.603 362.779 129.182 361.254 128.42C357.524 126.555 354.978 122.705 354.978 118.273C354.978 112.016 360.051 106.923 366.328 106.923C367.792 106.923 369.196 107.204 370.479 107.705C374.691 109.369 377.659 113.46 377.659 118.253Z" fill="#EE3925"/>
<path d="M377.659 118.253C377.659 124.51 372.585 129.603 366.308 129.603C364.503 129.603 362.779 129.182 361.254 128.42C365.386 125.412 368.875 121.522 370.239 116.508C371.101 113.34 370.941 110.352 370.479 107.705C374.691 109.369 377.659 113.46 377.659 118.253Z" fill="#E12D26"/>
<path d="M366.308 130.505C359.55 130.505 354.055 125.011 354.055 118.253C354.055 111.495 359.55 106 366.308 106C373.066 106 378.561 111.495 378.561 118.253C378.561 125.011 373.066 130.505 366.308 130.505ZM366.308 107.825C360.552 107.825 355.88 112.498 355.88 118.253C355.88 124.008 360.552 128.68 366.308 128.68C372.064 128.68 376.736 124.008 376.736 118.253C376.736 112.498 372.064 107.825 366.308 107.825Z" fill="#231F20"/>
<path d="M425.949 240.015C425.949 246.272 420.875 251.365 414.598 251.365C412.793 251.365 411.069 250.944 409.545 250.182C405.814 248.317 403.268 244.467 403.268 240.035C403.268 233.779 408.341 228.685 414.618 228.685C416.082 228.685 417.486 228.966 418.769 229.467C422.981 231.132 425.949 235.222 425.949 240.015Z" fill="#EE3925"/>
<path d="M425.949 240.015C425.949 246.271 420.875 251.365 414.598 251.365C412.793 251.365 411.069 250.944 409.545 250.182C413.676 247.174 417.165 243.284 418.529 238.27C419.391 235.102 419.231 232.114 418.77 229.467C422.981 231.131 425.949 235.222 425.949 240.015Z" fill="#E12D26"/>
<path d="M414.598 252.288C407.84 252.288 402.345 246.793 402.345 240.035C402.345 233.277 407.84 227.783 414.598 227.783C421.356 227.783 426.851 233.277 426.851 240.035C426.851 246.793 421.356 252.288 414.598 252.288ZM414.598 229.608C408.843 229.608 404.17 234.28 404.17 240.035C404.17 245.79 408.843 250.463 414.598 250.463C420.354 250.463 425.026 245.79 425.026 240.035C425.026 234.28 420.354 229.608 414.598 229.608Z" fill="#231F20"/>
<path d="M383.013 365.006C383.013 371.262 377.939 376.356 371.662 376.356C369.858 376.356 368.133 375.935 366.609 375.173C362.879 373.308 360.332 369.458 360.332 365.026C360.332 358.769 365.405 353.676 371.682 353.676C373.146 353.676 374.55 353.957 375.834 354.458C380.045 356.122 383.013 360.213 383.013 365.006Z" fill="#EE3925"/>
<path d="M383.013 365.006C383.013 371.262 377.939 376.356 371.663 376.356C369.858 376.356 368.133 375.935 366.609 375.173C370.74 372.165 374.229 368.274 375.593 363.261C376.455 360.093 376.295 357.105 375.834 354.458C380.045 356.122 383.013 360.213 383.013 365.006Z" fill="#E12D26"/>
<path d="M371.662 377.278C364.904 377.278 359.409 371.783 359.409 365.026C359.409 358.268 364.904 352.773 371.662 352.773C378.421 352.773 383.916 358.268 383.916 365.026C383.916 371.783 378.421 377.278 371.662 377.278ZM371.662 354.598C365.907 354.598 361.234 359.27 361.234 365.026C361.234 370.781 365.907 375.453 371.662 375.453C377.418 375.453 382.091 370.781 382.091 365.026C382.091 359.27 377.418 354.598 371.662 354.598Z" fill="#231F20"/>
<path d="M146.896 365.407C146.896 371.663 141.823 376.757 135.546 376.757C133.741 376.757 132.016 376.336 130.492 375.574C126.762 373.709 124.215 369.858 124.215 365.427C124.215 359.17 129.289 354.077 135.566 354.077C137.03 354.077 138.433 354.357 139.717 354.859C143.928 356.523 146.896 360.614 146.896 365.407Z" fill="#EE3925"/>
<path d="M146.896 365.407C146.896 371.663 141.823 376.757 135.546 376.757C133.741 376.757 132.016 376.336 130.492 375.574C134.623 372.566 138.113 368.675 139.476 363.662C140.339 360.494 140.178 357.506 139.717 354.859C143.928 356.523 146.896 360.614 146.896 365.407Z" fill="#E12D26"/>
<path d="M135.546 377.659C128.787 377.659 123.292 372.165 123.292 365.407C123.292 358.649 128.787 353.154 135.546 353.154C142.304 353.154 147.799 358.649 147.799 365.407C147.799 372.165 142.304 377.659 135.546 377.659ZM135.546 354.979C129.79 354.979 125.117 359.651 125.117 365.407C125.117 371.162 129.79 375.834 135.546 375.834C141.301 375.834 145.974 371.162 145.974 365.407C145.974 359.651 141.301 354.979 135.546 354.979Z" fill="#231F20"/>
<path d="M95.4175 251.365C95.4175 257.622 90.3438 262.715 84.0669 262.715C82.262 262.715 80.5374 262.294 79.0133 261.532C75.2832 259.667 72.7363 255.817 72.7363 251.385C72.7363 245.129 77.81 240.035 84.0869 240.035C85.5509 240.035 86.9547 240.316 88.2381 240.817C92.4495 242.482 95.4175 246.572 95.4175 251.365Z" fill="#EE3925"/>
<path d="M95.4174 251.365C95.4174 257.622 90.3437 262.715 84.0668 262.715C82.2619 262.715 80.5373 262.294 79.0132 261.532C83.1443 258.524 86.6337 254.634 87.9974 249.62C88.8597 246.452 88.6993 243.464 88.2381 240.817C92.4494 242.482 95.4174 246.572 95.4174 251.365Z" fill="#E12D26"/>
<path d="M84.0668 263.617C77.3085 263.617 71.8137 258.123 71.8137 251.365C71.8137 244.607 77.3085 239.113 84.0668 239.113C90.825 239.113 96.3198 244.607 96.3198 251.365C96.3198 258.123 90.825 263.617 84.0668 263.617ZM84.0668 240.937C78.3112 240.937 73.6386 245.61 73.6386 251.365C73.6386 257.12 78.3112 261.793 84.0668 261.793C89.8223 261.793 94.4949 257.12 94.4949 251.365C94.4949 245.61 89.8223 240.937 84.0668 240.937Z" fill="#231F20"/>
<path d="M139.115 135.819C139.115 142.076 134.042 147.169 127.765 147.169C125.96 147.169 124.235 146.748 122.711 145.986C118.981 144.121 116.434 140.271 116.434 135.84C116.434 129.583 121.508 124.49 127.785 124.49C129.249 124.49 130.652 124.77 131.936 125.272C136.147 126.936 139.115 131.027 139.115 135.819Z" fill="#EE3925"/>
<path d="M139.115 135.819C139.115 142.076 134.041 147.169 127.765 147.169C125.96 147.169 124.235 146.748 122.711 145.986C126.842 142.978 130.331 139.088 131.695 134.075C132.557 130.906 132.397 127.918 131.936 125.271C136.147 126.936 139.115 131.027 139.115 135.819Z" fill="#E12D26"/>
<path d="M127.765 148.092C121.006 148.092 115.511 142.597 115.511 135.839C115.511 129.081 121.006 123.587 127.765 123.587C134.523 123.587 140.018 129.081 140.018 135.839C140.018 142.597 134.523 148.092 127.765 148.092ZM127.765 125.412C122.009 125.412 117.336 130.084 117.336 135.839C117.336 141.595 122.009 146.267 127.765 146.267C133.52 146.267 138.193 141.595 138.193 135.839C138.193 130.084 133.52 125.412 127.765 125.412Z" fill="#231F20"/>
</g>
<defs>
<clipPath id="clip0_251_34633">
<rect width="482" height="499" fill="white"/>
</clipPath>
</defs>
</svg>
