<svg width="39" height="29" viewBox="0 0 39 29" fill="none" xmlns="http://www.w3.org/2000/svg">
<path d="M33.0151 2.40394C30.5294 1.29126 27.8639 0.471488 25.0768 0.00196957C25.0261 -0.00709199 24.9754 0.0155533 24.9492 0.0608451C24.6064 0.655666 24.2267 1.43166 23.9608 2.04159C20.9632 1.60378 17.9809 1.60378 15.0448 2.04159C14.7788 1.4181 14.3853 0.655666 14.0409 0.0608451C14.0148 0.0170645 13.9641 -0.00558084 13.9133 0.00196957C11.1279 0.469988 8.46229 1.28976 5.97502 2.40394C5.95349 2.413 5.93503 2.42811 5.92278 2.44772C0.866762 9.81668 -0.518294 17.0045 0.161168 24.1032C0.164242 24.138 0.184226 24.1712 0.211897 24.1923C3.54771 26.5822 6.77902 28.033 9.95033 28.9947C10.0011 29.0098 10.0549 28.9917 10.0872 28.9509C10.8373 27.9515 11.506 26.8977 12.0794 25.7896C12.1132 25.7247 12.0809 25.6477 12.0118 25.622C10.9511 25.2295 9.9411 24.7509 8.96956 24.2074C8.89271 24.1636 8.88656 24.0564 8.95726 24.0051C9.16171 23.8556 9.36621 23.7001 9.56143 23.5431C9.59675 23.5144 9.64596 23.5084 9.68749 23.5265C16.0701 26.3693 22.98 26.3693 29.2873 23.5265C29.3288 23.5069 29.378 23.5129 29.4149 23.5416C29.6102 23.6986 29.8146 23.8556 30.0206 24.0051C30.0913 24.0564 30.0867 24.1636 30.0098 24.2074C29.0383 24.7614 28.0283 25.2295 26.9661 25.6205C26.8969 25.6462 26.8662 25.7247 26.9 25.7896C27.4857 26.8962 28.1544 27.95 28.8907 28.9494C28.9215 28.9917 28.9768 29.0098 29.0275 28.9947C32.2142 28.033 35.4455 26.5822 38.7813 24.1923C38.8105 24.1712 38.829 24.1395 38.8321 24.1047C39.6453 15.8978 37.47 8.76895 33.0658 2.44922C33.0551 2.42811 33.0367 2.413 33.0151 2.40394ZM13.0325 19.7809C11.1109 19.7809 9.52759 18.0598 9.52759 15.9462C9.52759 13.8325 11.0802 12.1115 13.0325 12.1115C15.0002 12.1115 16.5682 13.8477 16.5374 15.9462C16.5374 18.0598 14.9848 19.7809 13.0325 19.7809ZM25.9915 19.7809C24.0699 19.7809 22.4866 18.0598 22.4866 15.9462C22.4866 13.8325 24.0392 12.1115 25.9915 12.1115C27.9592 12.1115 29.5271 13.8477 29.4964 15.9462C29.4964 18.0598 27.9592 19.7809 25.9915 19.7809Z" fill="#231F20"/>
</svg>
