<svg width="482" height="319" viewBox="0 0 482 319" fill="none" xmlns="http://www.w3.org/2000/svg">
<g clip-path="url(#clip0_251_29607)">
<path d="M108.175 134.639L62.3743 139.806C61.9693 139.855 61.6291 140.115 61.4833 140.489L52.4268 162.23C52.1676 162.831 51.4548 163.091 50.8877 162.782L14.2408 143.284C13.7061 143.007 13.4955 142.357 13.7709 141.805L81.8967 3.10357C82.2855 2.32362 83.371 2.27487 83.8246 3.00608L165.738 134.704C166.094 135.273 165.867 136.036 165.235 136.313L120.261 155.811C119.71 156.055 119.078 155.811 118.819 155.275L109.293 135.273C109.082 134.85 108.645 134.59 108.175 134.655V134.639ZM94.0314 103.084L86.1576 86.3308C85.7526 85.4534 84.5051 85.4859 84.1325 86.3796L76.2749 105.18C75.9509 105.976 76.5989 106.821 77.4414 106.707L93.1889 104.66C93.9342 104.562 94.3716 103.766 94.0476 103.084H94.0314Z" fill="#231F20"/>
<path d="M115.595 133.778L69.7945 138.945C69.3895 138.994 69.0492 139.254 68.9034 139.627L59.847 161.368C59.5878 161.97 58.8749 162.23 58.3079 161.921L21.6609 142.422C21.1263 142.146 20.9157 141.496 21.1911 140.944L89.3007 2.24224C89.6895 1.46229 90.775 1.41355 91.2286 2.14475L173.142 133.843C173.498 134.411 173.271 135.175 172.639 135.451L127.665 154.95C127.114 155.194 126.482 154.95 126.223 154.414L116.697 134.411C116.486 133.989 116.049 133.729 115.579 133.794L115.595 133.778ZM101.452 102.222L93.5778 85.4695C93.1727 84.5921 91.9252 84.6246 91.5526 85.5183L83.6951 104.318C83.371 105.115 84.0191 105.959 84.8615 105.846L100.609 103.798C101.354 103.701 101.792 102.905 101.468 102.222H101.452Z" fill="white"/>
<path d="M58.8102 163.676C58.3727 163.676 57.9353 163.562 57.5303 163.351L20.8833 143.852C19.571 143.154 19.0526 141.561 19.7168 140.229L87.8426 1.5274C88.28 0.633709 89.1711 0.048746 90.1594 -9.66247e-07C91.1638 -0.0649969 92.0873 0.438722 92.6057 1.28367L174.519 132.982C174.94 133.664 175.037 134.477 174.81 135.24C174.567 136.004 174.016 136.621 173.287 136.93L128.313 156.429C126.952 157.014 125.397 156.429 124.765 155.096L115.401 135.435L70.2644 140.521L61.3213 161.986C61.0297 162.701 60.4465 163.253 59.7174 163.513C59.4258 163.627 59.118 163.676 58.7939 163.676H58.8102ZM22.8436 141.22L58.5509 160.215L67.3968 138.978C67.7856 138.068 68.628 137.418 69.6163 137.32L115.417 132.153C116.567 132.039 117.685 132.64 118.187 133.697L127.503 153.244L171.473 134.184L90.3538 3.78601L22.8436 141.22ZM84.6996 107.487C83.8571 107.487 83.0633 107.097 82.5448 106.415C81.9454 105.635 81.8158 104.611 82.2046 103.701L90.0621 84.9009C90.4834 83.8935 91.423 83.2435 92.5247 83.2273C93.675 83.2435 94.5823 83.8122 95.0521 84.7872L102.926 101.54C103.298 102.32 103.266 103.246 102.845 104.026C102.424 104.806 101.662 105.31 100.803 105.423L85.0722 107.471C84.9588 107.471 84.8292 107.487 84.7158 107.487H84.6996ZM92.5895 87.2083L85.5258 104.123L99.6856 102.287L92.5895 87.2245V87.2083Z" fill="#231F20"/>
<path d="M150.59 64.3459L146.021 64.1997C145.551 64.1997 145.162 64.5572 145.146 65.0284L145.049 69.6106L144.595 93.3016L144.514 97.7376C144.514 98.1926 144.871 98.5826 145.324 98.5988L149.747 98.7938L167.698 99.5575C168.168 99.5737 168.524 99.98 168.508 100.451L165.77 155.763L165.543 160.426C165.527 160.897 165.9 161.304 166.37 161.32L171.035 161.417L199.582 161.97L204.07 162.051C204.539 162.051 204.912 161.694 204.928 161.222L205.042 156.721L206.5 102.092C206.5 101.621 206.905 101.247 207.375 101.264L220.643 101.832L225.277 102.027C225.747 102.044 226.152 101.67 226.152 101.199L226.249 96.5514L226.719 72.0155L226.8 67.5308C226.8 67.0595 226.443 66.6858 225.974 66.6696L221.502 66.5396L150.557 64.3459H150.59Z" fill="#231F20"/>
<path d="M156.535 60.4136L151.967 60.2673C151.497 60.2673 151.108 60.6248 151.092 61.096L150.995 65.6782L150.541 89.3693L150.46 93.8052C150.46 94.2602 150.816 94.6502 151.27 94.6664L155.693 94.8614L173.644 95.6251C174.114 95.6414 174.47 96.0476 174.454 96.5188L171.716 151.83L171.489 156.494C171.473 156.965 171.845 157.371 172.315 157.387L176.981 157.485L205.528 158.037L210.015 158.119C210.485 158.119 210.858 157.761 210.874 157.29L210.987 152.789L212.446 98.16C212.446 97.6887 212.851 97.315 213.32 97.3313L226.589 97.9L231.223 98.095C231.692 98.1112 232.097 97.7375 232.097 97.2663L232.195 92.6191L232.665 68.0831L232.746 63.5984C232.746 63.1272 232.389 62.7534 231.919 62.7372L227.448 62.6072L156.503 60.4136H156.535Z" fill="white"/>
<path d="M210.031 159.76H209.983L172.283 159.029C171.619 159.029 170.987 158.736 170.533 158.249C170.079 157.761 169.836 157.111 169.869 156.445L172.801 97.2338L151.205 96.3239C149.877 96.2751 148.824 95.1377 148.84 93.8053L149.472 61.0961C149.472 60.4299 149.763 59.8124 150.249 59.3412C150.735 58.8862 151.351 58.6262 152.031 58.6587L232.016 61.1286C233.361 61.1773 234.43 62.2985 234.398 63.6472L233.75 97.3151C233.75 97.9813 233.458 98.5987 232.972 99.0699C232.486 99.5412 231.854 99.7687 231.19 99.7362L214.082 99.0049L212.51 157.355C212.478 158.687 211.376 159.76 210.048 159.76H210.031ZM173.141 155.795L209.286 156.51L210.858 98.1438C210.874 97.4775 211.149 96.8601 211.635 96.4051C212.121 95.9501 212.753 95.7226 213.418 95.7389L230.51 96.4701L231.142 64.3621L152.696 61.941L152.096 93.1066L173.709 94.0165C174.373 94.049 174.972 94.3252 175.426 94.8127C175.879 95.3002 176.106 95.9339 176.074 96.6001L173.158 155.779L173.141 155.795Z" fill="#231F20"/>
<path d="M322.435 104.01V103.977C320.863 98.4688 318.19 93.4153 314.464 88.9631C310.721 84.5109 306.153 80.9198 300.887 78.255C295.476 75.4927 289.514 73.819 283.18 73.3153C281.721 73.2016 280.28 73.1528 278.886 73.1528C267.724 73.1528 257.371 76.6139 248.12 83.4547C243.147 87.1107 238.983 91.5304 235.726 96.5676C232.389 101.816 230.186 107.487 229.165 113.467C228.16 119.511 228.452 125.475 230.056 131.194C231.579 136.703 234.252 141.772 237.978 146.241C241.688 150.693 246.257 154.284 251.571 156.949C256.966 159.711 262.944 161.369 269.311 161.889C270.769 162.002 272.211 162.051 273.605 162.051C284.767 162.051 295.12 158.59 304.371 151.749C309.344 148.077 313.492 143.673 316.684 138.62C320.07 133.404 322.289 127.701 323.294 121.705C324.298 115.725 324.023 109.778 322.451 104.026V103.993L322.435 104.01ZM263.949 116.749C264.451 113.775 266.023 111.322 268.712 109.291C271.256 107.454 273.929 106.561 276.926 106.561C277.299 106.561 277.687 106.561 278.06 106.609C281.365 106.869 283.811 108.072 285.756 110.396C287.538 112.54 288.17 114.896 287.683 117.789C287.165 120.811 285.61 123.265 282.92 125.247C280.425 127.083 277.768 127.993 274.82 127.993C274.431 127.993 274.01 127.977 273.605 127.944C270.267 127.701 267.837 126.514 265.942 124.223C264.095 122.03 263.479 119.657 263.949 116.765V116.749Z" fill="#231F20"/>
<path d="M328.689 98.7938V98.7613C327.117 93.2529 324.444 88.1995 320.718 83.7473C316.975 79.295 312.406 75.704 307.141 73.0392C301.73 70.2769 295.768 68.6032 289.433 68.0995C287.975 67.9858 286.533 67.937 285.14 67.937C273.977 67.937 263.625 71.398 254.374 78.2389C249.4 81.8949 245.237 86.3146 241.98 91.3518C238.643 96.6002 236.439 102.271 235.419 108.251C234.414 114.295 234.706 120.259 236.31 125.978C237.833 131.487 240.506 136.556 244.232 141.025C247.942 145.477 252.511 149.068 257.825 151.733C263.22 154.495 269.198 156.153 275.565 156.673C277.023 156.786 278.465 156.835 279.858 156.835C291.021 156.835 301.373 153.374 310.624 146.533C315.598 142.861 319.746 138.458 322.937 133.404C326.323 128.188 328.543 122.485 329.547 116.489C330.552 110.509 330.276 104.562 328.705 98.8101V98.7776L328.689 98.7938ZM270.202 111.533C270.705 108.559 272.276 106.106 274.966 104.075C277.509 102.239 280.182 101.345 283.18 101.345C283.552 101.345 283.941 101.345 284.314 101.394C287.619 101.654 290.065 102.856 292.009 105.18C293.791 107.325 294.423 109.681 293.937 112.573C293.419 115.595 291.863 118.049 289.174 120.031C286.679 121.867 284.022 122.777 281.073 122.777C280.685 122.777 280.263 122.761 279.858 122.729C276.521 122.485 274.091 121.299 272.195 119.008C270.348 116.814 269.733 114.442 270.202 111.549V111.533Z" fill="white"/>
<path d="M279.842 158.46C278.4 158.46 276.91 158.395 275.419 158.281C268.841 157.745 262.669 156.039 257.063 153.163C251.555 150.401 246.808 146.663 242.968 142.049C239.096 137.401 236.326 132.137 234.738 126.401C233.069 120.437 232.762 114.23 233.798 107.958C234.868 101.751 237.152 95.869 240.603 90.4581C243.973 85.2422 248.282 80.6925 253.418 76.9065C264.159 68.977 276.245 65.4509 289.579 66.4584C296.124 66.9946 302.281 68.7007 307.886 71.5768C313.346 74.3391 318.093 78.0764 321.965 82.6911C325.821 87.3221 328.608 92.5867 330.244 98.3226L330.276 98.4526C331.896 104.383 332.188 110.558 331.135 116.765C330.098 122.989 327.797 128.887 324.282 134.298C320.993 139.498 316.7 144.063 311.564 147.85C302.021 154.885 291.345 158.46 279.826 158.46H279.842ZM285.14 69.5619C274.334 69.5619 264.305 72.9255 255.33 79.5388C250.518 83.0811 246.484 87.3545 243.325 92.2292C240.117 97.2664 237.978 102.759 236.99 108.527C236.018 114.312 236.31 120.048 237.849 125.54C239.323 130.837 241.883 135.695 245.447 139.985C249.011 144.258 253.402 147.72 258.521 150.287C263.754 152.968 269.522 154.56 275.662 155.064C288.105 156.023 299.526 152.708 309.652 145.25C314.464 141.707 318.482 137.434 321.56 132.559C324.833 127.506 326.971 122.03 327.943 116.245C328.915 110.493 328.64 104.79 327.133 99.2651C325.61 93.9354 323.051 89.0769 319.486 84.8035C315.89 80.53 311.499 77.0689 306.428 74.5016C301.195 71.8205 295.428 70.2281 289.32 69.7244C287.926 69.6107 286.517 69.5619 285.14 69.5619ZM281.073 124.402C280.636 124.402 280.182 124.386 279.745 124.353C275.954 124.077 273.167 122.712 270.964 120.064C268.841 117.529 268.064 114.653 268.615 111.306C269.198 107.926 270.996 105.066 273.993 102.807C277.185 100.5 280.555 99.525 284.427 99.8013C288.153 100.094 291.037 101.524 293.257 104.156C295.347 106.675 296.092 109.518 295.557 112.849C294.974 116.326 293.208 119.105 290.162 121.364C287.359 123.427 284.395 124.418 281.09 124.418L281.073 124.402ZM271.79 111.826C271.401 114.263 271.904 116.148 273.426 117.968C275.063 119.934 277.072 120.892 279.972 121.104C283.066 121.331 285.691 120.584 288.202 118.731C290.535 117.009 291.896 114.897 292.333 112.313C292.722 109.908 292.236 108.04 290.745 106.236C289.077 104.253 287.052 103.262 284.168 103.035C283.844 103.019 283.487 103.002 283.163 103.002C280.523 103.002 278.141 103.799 275.889 105.423C273.572 107.162 272.211 109.274 271.774 111.826H271.79Z" fill="#231F20"/>
<path d="M446.762 130.983L408.107 59.5363L404.234 52.3705C403.927 51.7855 403.084 51.7855 402.76 52.3542L398.726 59.4225L380.743 90.9455C380.484 91.4005 379.868 91.5143 379.463 91.173L348.989 65.2072L342.897 60.0237C342.395 59.6013 341.617 59.8775 341.52 60.5275L340.208 68.4245L326.906 148.808L326.194 153.163C326.113 153.618 326.42 154.04 326.858 154.138L331.167 154.983L362.419 161.109L367.215 162.051C367.701 162.149 368.155 161.807 368.219 161.32L368.786 156.445L370.99 137.58C371.071 136.898 371.881 136.589 372.399 137.044L384.988 148.499L389.167 152.302C389.572 152.659 390.204 152.562 390.464 152.09L393.266 147.183L399.779 135.744C400.103 135.175 400.946 135.175 401.253 135.744L410.099 152.058L412.335 156.169C412.562 156.591 413.096 156.738 413.502 156.494L417.536 154.138L444.77 138.198L448.561 135.988C448.95 135.76 449.095 135.257 448.885 134.85L446.795 130.983H446.762Z" fill="#231F20"/>
<path d="M453.891 124.955L415.235 53.5079L411.363 46.3421C411.055 45.7572 410.213 45.7572 409.889 46.3259L405.855 53.3942L387.871 84.9172C387.612 85.3722 386.997 85.4859 386.592 85.1447L356.117 59.1788L350.026 53.9954C349.523 53.5729 348.746 53.8492 348.649 54.4991L347.336 62.3961L334.035 142.78L333.322 147.135C333.241 147.59 333.549 148.012 333.987 148.11L338.296 148.954L369.548 155.08L374.344 156.023C374.83 156.12 375.283 155.779 375.348 155.292L375.915 150.417L378.118 131.552C378.199 130.869 379.009 130.561 379.528 131.016L392.116 142.471L396.296 146.273C396.701 146.631 397.333 146.533 397.592 146.062L400.395 141.155L406.908 129.716C407.232 129.147 408.074 129.147 408.382 129.716L417.228 146.03L419.464 150.141C419.69 150.563 420.225 150.709 420.63 150.466L424.664 148.11L451.898 132.169L455.689 129.959C456.078 129.732 456.224 129.228 456.013 128.822L453.923 124.955H453.891Z" fill="white"/>
<path d="M374.522 157.648C374.36 157.648 374.214 157.648 374.052 157.599L333.695 149.702C332.383 149.442 331.508 148.207 331.735 146.875L347.061 54.2392C347.207 53.3617 347.806 52.6305 348.649 52.3218C349.491 52.0131 350.414 52.1918 351.095 52.7605L386.932 83.3086L408.479 45.5297C408.917 44.7498 409.711 44.2786 410.65 44.2786C411.541 44.2786 412.368 44.7823 412.789 45.5785L457.423 128.042C458.071 129.228 457.65 130.674 456.499 131.357L421.456 151.863C420.889 152.204 420.193 152.286 419.561 152.107C418.929 151.928 418.378 151.489 418.054 150.904L407.653 131.714L399.034 146.842C398.661 147.492 398.03 147.931 397.284 148.061C396.539 148.175 395.794 147.963 395.243 147.443L379.593 133.209L377.001 155.438C376.919 156.12 376.563 156.738 376.012 157.144C375.591 157.453 375.073 157.615 374.554 157.615L374.522 157.648ZM335.056 146.647L373.857 154.252L376.514 131.357C376.628 130.431 377.227 129.651 378.102 129.326C378.961 129.001 379.933 129.196 380.613 129.813L396.669 144.405L405.498 128.903C405.936 128.123 406.73 127.668 407.669 127.652C408.56 127.652 409.387 128.156 409.808 128.952L420.501 148.662L454.215 128.936L410.618 48.3571L389.297 85.7297C388.925 86.3634 388.309 86.8184 387.58 86.9321C386.851 87.0621 386.122 86.8671 385.555 86.3797L350.042 56.1241L335.072 146.647H335.056Z" fill="#231F20"/>
<path d="M129.642 181.664L121.282 317.911C121.249 318.545 120.699 319.032 120.067 319.016L76.6152 317.261C75.9834 317.229 75.4811 316.709 75.4973 316.059L76.7772 265.313C76.7934 264.631 76.2426 264.078 75.5621 264.111L51.1146 265.183C50.4828 265.216 49.9805 265.736 49.9967 266.369L50.7096 310.827C50.7096 311.493 50.1912 312.029 49.5269 312.013L1.16652 311.379C0.518474 311.379 3.76329e-05 310.827 0.0162388 310.193L2.78663 173.702C2.78663 173.068 3.32127 172.548 3.95311 172.548H47.4046C48.0364 172.548 48.5548 173.068 48.571 173.702L49.3649 227.892C49.3649 228.558 49.9481 229.094 50.6124 229.046L76.7448 227.193C77.3443 227.144 77.8141 226.657 77.8303 226.056L79.0292 178.852C79.0454 178.186 79.5962 177.683 80.2605 177.715L128.54 180.429C129.188 180.461 129.674 181.014 129.642 181.664Z" fill="#231F20"/>
<path d="M136.414 176.919L128.054 313.167C128.022 313.8 127.471 314.288 126.839 314.272L83.3874 312.517C82.7556 312.484 82.2533 311.964 82.2695 311.314L83.5494 260.569C83.5656 259.886 83.0148 259.334 82.3344 259.366L57.8868 260.439C57.255 260.471 56.7528 260.991 56.769 261.625L57.4818 306.082C57.4818 306.748 56.9634 307.285 56.2991 307.268L7.93874 306.635C7.29069 306.635 6.77225 306.082 6.78846 305.448L9.57505 168.973C9.57505 168.34 10.1097 167.82 10.7415 167.82H54.193C54.8248 167.82 55.3433 168.34 55.3595 168.973L56.1533 223.164C56.1533 223.83 56.7366 224.366 57.4008 224.317L83.5332 222.465C84.1327 222.416 84.6025 221.929 84.6187 221.327L85.8176 174.124C85.8338 173.458 86.3846 172.954 87.0489 172.987L135.328 175.7C135.976 175.733 136.462 176.285 136.43 176.935L136.414 176.919Z" fill="white"/>
<path d="M126.887 315.88C126.887 315.88 126.806 315.88 126.774 315.88L83.3226 314.125C81.8159 314.06 80.617 312.777 80.6494 311.265L81.9131 261.007L58.389 262.031L59.1019 306.05C59.1019 306.813 58.8265 307.528 58.2918 308.064C57.7572 308.601 57.0606 308.893 56.2829 308.893L7.92251 308.259C7.17725 308.259 6.4806 307.951 5.96217 307.414C5.44373 306.878 5.16831 306.163 5.18451 305.416L7.97111 168.924C8.00351 167.413 9.251 166.195 10.7577 166.195H54.2091C55.7159 166.195 56.9795 167.43 56.9957 168.941L57.7896 222.644L83.031 220.856L84.2137 174.059C84.2299 173.295 84.5539 172.597 85.1047 172.077C85.6556 171.557 86.3846 171.297 87.1461 171.346L135.425 174.059C136.171 174.108 136.851 174.433 137.353 174.985C137.856 175.538 138.099 176.269 138.05 177.016L129.69 313.248C129.593 314.71 128.362 315.88 126.904 315.88H126.887ZM83.8896 310.908L126.45 312.614L134.745 177.276L87.3729 174.628L86.1902 221.36C86.1578 222.806 85.0399 223.976 83.598 224.073L57.4818 225.91C56.7203 225.975 55.9589 225.698 55.408 225.178C54.841 224.658 54.517 223.927 54.5008 223.164L53.7069 169.428H11.1627L8.39234 305.01L55.8293 305.627L55.1164 261.641C55.084 260.114 56.2667 258.863 57.7896 258.798L82.2371 257.725C83.0148 257.709 83.76 257.985 84.3109 258.521C84.8617 259.058 85.1695 259.821 85.1371 260.585L83.8734 310.876L83.8896 310.908Z" fill="#231F20"/>
<path d="M205.981 200.431L173.935 205.403C173.223 205.517 172.736 206.167 172.834 206.882L174.114 216.534C174.211 217.298 174.956 217.818 175.717 217.639L193.49 213.463C194.252 213.284 194.997 213.82 195.094 214.6L197.751 238.145C197.832 238.844 197.346 239.477 196.649 239.591L178.925 242.451C178.229 242.565 177.743 243.199 177.824 243.897L178.893 252.899C178.974 253.647 179.687 254.167 180.416 254.037L216.609 247.634C217.354 247.504 218.051 248.024 218.132 248.772L221.064 273.795C221.145 274.51 220.659 275.144 219.947 275.258L152.323 285.007C151.61 285.105 150.946 284.617 150.849 283.918L135.522 187.351C135.409 186.652 135.863 186.002 136.559 185.856L201.169 172.418C201.899 172.272 202.611 172.743 202.725 173.49L207.051 198.936C207.18 199.667 206.678 200.35 205.965 200.464L205.981 200.431Z" fill="#231F20"/>
<path d="M212.316 195.849L180.27 200.821C179.557 200.935 179.071 201.585 179.168 202.3L180.448 211.952C180.545 212.715 181.291 213.235 182.052 213.057L199.825 208.881C200.586 208.702 201.331 209.238 201.429 210.018L204.086 233.563C204.167 234.262 203.681 234.895 202.984 235.009L185.26 237.869C184.563 237.983 184.077 238.616 184.158 239.315L185.227 248.317C185.308 249.064 186.021 249.584 186.75 249.454L222.944 243.052C223.689 242.922 224.386 243.442 224.467 244.19L227.399 269.213C227.48 269.928 226.994 270.562 226.281 270.675L158.658 280.425C157.945 280.522 157.28 280.035 157.183 279.336L141.857 182.768C141.744 182.07 142.197 181.42 142.894 181.274L207.504 167.836C208.233 167.689 208.946 168.161 209.059 168.908L213.385 194.354C213.515 195.085 213.012 195.768 212.3 195.881L212.316 195.849Z" fill="white"/>
<path d="M158.496 282.066C157.086 282.066 155.822 281.026 155.596 279.58L140.269 183.012C140.026 181.452 141.031 179.99 142.57 179.665L207.18 166.227C207.958 166.064 208.768 166.227 209.432 166.682C210.08 167.137 210.534 167.836 210.663 168.616L214.989 194.061C215.119 194.841 214.94 195.621 214.487 196.271C214.033 196.921 213.336 197.344 212.559 197.458L180.821 202.381L182.02 211.399L199.452 207.288C200.262 207.093 201.121 207.256 201.817 207.743C202.498 208.231 202.952 208.978 203.049 209.823L205.706 233.368C205.884 234.928 204.798 236.358 203.259 236.601L185.827 239.412L186.815 247.797L222.685 241.46C223.478 241.314 224.305 241.508 224.937 241.996C225.585 242.483 226.006 243.215 226.103 244.011L229.035 269.034C229.23 270.627 228.128 272.057 226.54 272.284L158.917 282.033C158.771 282.05 158.641 282.066 158.496 282.066ZM143.526 182.801L158.755 278.784L225.779 269.116L222.928 244.726L187.058 251.063C186.264 251.209 185.438 251.014 184.806 250.527C184.158 250.039 183.737 249.308 183.64 248.512L182.571 239.51C182.392 237.934 183.462 236.52 185.017 236.26L202.449 233.449L199.857 210.538L182.425 214.649C181.615 214.844 180.772 214.681 180.092 214.21C179.411 213.739 178.958 212.992 178.844 212.179L177.564 202.511C177.354 200.935 178.455 199.456 180.027 199.212L211.765 194.289L207.553 169.477L143.542 182.785L143.526 182.801Z" fill="#231F20"/>
<path d="M274.593 268.352L240.781 272.17C240.49 272.203 240.23 272.398 240.117 272.674L233.426 288.728C233.248 289.167 232.713 289.362 232.292 289.134L205.236 274.738C204.847 274.527 204.685 274.055 204.879 273.649L255.184 171.264C255.459 170.696 256.27 170.647 256.61 171.199L317.072 268.417C317.332 268.839 317.17 269.408 316.7 269.603L283.504 284C283.099 284.178 282.629 284 282.434 283.594L275.403 268.839C275.257 268.531 274.917 268.336 274.577 268.384L274.593 268.352ZM264.159 245.051L258.343 232.685C258.035 232.036 257.128 232.068 256.853 232.718L251.053 246.595C250.81 247.18 251.28 247.813 251.911 247.732L263.528 246.221C264.078 246.156 264.402 245.555 264.159 245.051Z" fill="#231F20"/>
<path d="M283.147 265.362L249.335 269.181C249.044 269.213 248.785 269.408 248.671 269.684L241.98 285.738C241.802 286.177 241.267 286.372 240.846 286.145L213.79 271.748C213.401 271.537 213.239 271.066 213.434 270.659L263.738 168.275C264.014 167.706 264.824 167.657 265.164 168.21L325.627 265.427C325.886 265.85 325.724 266.418 325.254 266.613L292.058 281.01C291.653 281.189 291.183 281.01 290.989 280.604L283.957 265.85C283.811 265.541 283.471 265.346 283.131 265.395L283.147 265.362ZM272.714 242.061L266.897 229.696C266.59 229.046 265.682 229.078 265.407 229.728L259.607 243.605C259.364 244.19 259.834 244.824 260.466 244.742L272.082 243.231C272.633 243.166 272.957 242.565 272.714 242.061Z" fill="white"/>
<path d="M241.219 287.851C240.83 287.851 240.425 287.753 240.068 287.558L213.012 273.162C211.846 272.544 211.376 271.114 211.976 269.912L262.264 167.527C262.653 166.731 263.447 166.211 264.338 166.162C265.212 166.081 266.055 166.552 266.525 167.316L326.987 264.533C327.36 265.135 327.457 265.866 327.247 266.548C327.036 267.231 326.534 267.783 325.886 268.076L292.69 282.472C291.474 282.992 290.097 282.472 289.53 281.286L282.742 267.036L249.967 270.724L243.454 286.34C243.195 286.973 242.677 287.461 242.029 287.704C241.769 287.802 241.494 287.851 241.202 287.851H241.219ZM215.232 270.659L240.814 284.276L247.164 269.034C247.505 268.222 248.266 267.653 249.141 267.539L282.953 263.737C283.973 263.623 284.978 264.176 285.431 265.118L292.123 279.174L323.747 265.46L264.532 170.273L215.216 270.659H215.232ZM260.336 246.367C259.574 246.367 258.862 246.01 258.392 245.408C257.857 244.71 257.744 243.783 258.084 242.987L263.884 229.111C264.257 228.217 265.115 227.632 266.071 227.616C266.995 227.616 267.918 228.152 268.323 229.013L274.139 241.379C274.463 242.077 274.447 242.906 274.074 243.589C273.702 244.271 273.021 244.742 272.26 244.84L260.644 246.351C260.547 246.351 260.433 246.367 260.336 246.367ZM266.185 232.019L261.616 242.939L270.753 241.752L266.168 232.019H266.185Z" fill="#231F20"/>
<path d="M401.901 233.027C400.638 248.317 394.886 259.691 384.647 267.15C376.433 273.08 365.562 276.379 352.051 277.029C342.362 277.516 331.815 276.655 320.41 274.429C315.177 273.438 310.786 272.382 307.222 271.261C306.639 271.082 306.266 270.513 306.315 269.896L313.67 177.049C313.719 176.448 314.156 175.944 314.756 175.847C327.635 173.588 341.504 173.425 356.36 175.359C378.491 178.04 392.715 188.472 399.034 206.622C400.119 209.726 400.929 213.024 401.48 216.485C401.918 219.231 402.177 222.059 402.242 224.967C402.371 228.201 402.242 230.882 401.901 233.01V233.027ZM368.851 230.134C369.58 227.193 369.645 224.155 369.029 221.002C368.479 218.256 367.344 215.933 365.66 214.064C363.602 211.838 360.686 210.392 356.911 209.726C352.844 208.994 348.989 208.897 345.376 209.433C344.792 209.514 344.355 209.986 344.274 210.571L340.078 241.492C339.997 242.11 340.353 242.727 340.953 242.922C344.598 244.141 348.454 244.628 352.504 244.368C356.344 244.125 359.552 243.052 362.16 241.119C365.481 238.698 367.701 235.025 368.851 230.134Z" fill="#231F20"/>
<path d="M409.548 226.787C408.285 242.077 402.533 253.451 392.294 260.91C384.08 266.841 373.209 270.139 359.698 270.789C350.009 271.277 339.462 270.415 328.057 268.189C322.824 267.198 318.433 266.142 314.869 265.021C314.286 264.842 313.913 264.273 313.962 263.656L321.317 170.809C321.366 170.208 321.803 169.704 322.403 169.607C335.282 167.348 349.151 167.186 364.007 169.119C386.138 171.8 400.362 182.232 406.681 200.382C407.766 203.486 408.576 206.784 409.127 210.245C409.565 212.992 409.824 215.819 409.889 218.727C410.018 221.961 409.889 224.642 409.548 226.771V226.787ZM376.498 223.895C377.227 220.954 377.292 217.915 376.676 214.763C376.126 212.017 374.991 209.693 373.307 207.824C371.249 205.598 368.333 204.152 364.558 203.486C360.491 202.755 356.636 202.657 353.023 203.193C352.439 203.275 352.002 203.746 351.921 204.331L347.725 235.253C347.644 235.87 348 236.488 348.6 236.683C352.245 237.901 356.101 238.389 360.151 238.129C363.991 237.885 367.199 236.813 369.807 234.879C373.128 232.458 375.348 228.786 376.498 223.895Z" fill="white"/>
<path d="M354.416 272.56C346.105 272.56 337.162 271.634 327.749 269.798C322.5 268.791 318.012 267.718 314.383 266.581C313.071 266.174 312.245 264.923 312.342 263.542L319.697 170.695C319.81 169.347 320.799 168.258 322.111 168.014C335.088 165.74 349.248 165.577 364.202 167.527C386.883 170.273 401.691 181.16 408.204 199.862C409.322 203.047 410.164 206.459 410.715 210.002C411.152 212.797 411.428 215.721 411.493 218.695C411.622 221.961 411.493 224.756 411.136 226.982C409.824 242.662 403.797 254.524 393.234 262.226C384.793 268.319 373.533 271.748 359.762 272.414C358.013 272.495 356.214 272.544 354.4 272.544L354.416 272.56ZM315.598 263.558C319.049 264.615 323.342 265.655 328.365 266.597C339.592 268.791 350.107 269.668 359.617 269.164C372.756 268.531 383.432 265.313 391.355 259.594C401.14 252.46 406.713 241.379 407.928 226.641V226.511C408.285 224.496 408.382 221.912 408.269 218.792C408.204 215.933 407.961 213.154 407.523 210.505C406.989 207.142 406.195 203.925 405.158 200.919C399.002 183.24 385.49 173.36 363.813 170.728C349.264 168.827 335.526 168.973 322.921 171.15L315.598 263.526V263.558ZM358.11 239.835C354.627 239.835 351.273 239.299 348.081 238.242C346.753 237.804 345.927 236.455 346.121 235.058L350.317 204.136C350.495 202.836 351.516 201.796 352.78 201.617C356.571 201.065 360.621 201.162 364.85 201.926C368.948 202.657 372.189 204.282 374.489 206.768C376.385 208.881 377.648 211.464 378.264 214.486C378.912 217.866 378.847 221.165 378.07 224.317C376.838 229.582 374.376 233.595 370.747 236.228C367.912 238.324 364.364 239.526 360.248 239.786C359.536 239.835 358.823 239.851 358.11 239.851V239.835ZM349.361 235.236C352.715 236.325 356.312 236.748 360.038 236.52C363.537 236.309 366.486 235.318 368.819 233.595C371.8 231.418 373.841 228.022 374.894 223.537C375.559 220.824 375.623 217.996 375.056 215.088C374.57 212.65 373.566 210.587 372.075 208.929C370.277 206.996 367.636 205.696 364.25 205.095C360.459 204.412 356.83 204.298 353.476 204.77L349.345 235.236H349.361Z" fill="#231F20"/>
<path d="M458.606 178.625L451.607 198.969C451.38 199.651 450.635 199.992 449.954 199.781C442.485 197.441 437.576 197.961 435.26 201.309C432.003 205.875 434.757 211.269 443.522 217.46C446.374 219.524 450.375 221.994 455.527 224.853L457.018 225.682L458.33 226.397C459.432 226.998 460.29 227.453 460.89 227.762C462.64 228.753 463.887 229.533 464.632 230.086C470.254 234.067 473.883 239.153 475.503 245.343C477.042 251.339 476.492 257.384 473.835 263.461C471.064 269.701 467.338 274.543 462.656 278.004C457.39 281.855 450.602 284.178 442.323 284.975C437.803 285.413 432.344 284.877 425.912 283.366C421.213 282.31 416.126 280.766 410.65 278.719C409.889 278.443 409.565 277.533 409.954 276.834L421.311 256.718C421.683 256.068 422.509 255.873 423.141 256.246C427.094 258.603 430.545 259.61 433.51 259.285C436.912 258.96 438.273 256.961 437.544 253.257C437.074 250.917 435.794 248.739 433.737 246.757C431.987 245.083 429.087 243.182 425.004 241.037L422.266 239.672L419.528 238.243C417.309 237.138 415.446 236.114 413.939 235.204C404.591 229.712 398.872 222.806 396.814 214.454C395.032 207.142 395.842 200.171 399.245 193.525C402.533 187.204 407.572 182.395 414.344 179.096C423.109 174.839 432.684 173.117 443.117 173.913C447.767 174.238 452.627 175.229 457.714 176.886C458.411 177.114 458.8 177.878 458.557 178.576L458.606 178.625Z" fill="#231F20"/>
<path d="M462.64 172.645L455.641 192.989C455.414 193.671 454.669 194.013 453.988 193.801C446.52 191.462 441.611 191.982 439.294 195.329C436.037 199.895 438.792 205.29 447.556 211.48C450.408 213.544 454.41 216.014 459.561 218.874L461.052 219.702L462.364 220.417C463.466 221.019 464.325 221.474 464.924 221.782C466.674 222.773 467.921 223.553 468.667 224.106C474.288 228.087 477.917 233.173 479.537 239.364C481.077 245.36 480.526 251.404 477.869 257.481C475.098 263.721 471.372 268.563 466.69 272.024C461.425 275.875 454.636 278.199 446.358 278.995C441.837 279.434 436.378 278.897 429.946 277.386C425.248 276.33 420.16 274.786 414.684 272.739C413.923 272.463 413.599 271.553 413.988 270.854L425.345 250.738C425.717 250.088 426.544 249.893 427.175 250.267C431.129 252.623 434.579 253.63 437.544 253.305C440.946 252.98 442.307 250.982 441.578 247.277C441.108 244.937 439.829 242.76 437.771 240.777C436.021 239.104 433.121 237.203 429.039 235.058L426.301 233.693L423.563 232.263C421.343 231.158 419.48 230.134 417.973 229.224C408.625 223.732 402.906 216.826 400.849 208.474C399.066 201.162 399.877 194.191 403.279 187.546C406.568 181.225 411.606 176.415 418.378 173.117C427.143 168.859 436.718 167.137 447.151 167.933C451.801 168.258 456.662 169.249 461.749 170.907C462.445 171.134 462.834 171.898 462.591 172.597L462.64 172.645Z" fill="white"/>
<path d="M443.215 280.815C439.245 280.815 434.677 280.214 429.589 279.011C424.859 277.939 419.658 276.363 414.133 274.315C413.323 274.023 412.692 273.373 412.4 272.56C412.108 271.748 412.173 270.854 412.594 270.107L423.951 249.991C424.34 249.292 424.972 248.804 425.733 248.609C426.495 248.414 427.337 248.528 428.018 248.934C431.647 251.095 434.79 252.038 437.382 251.745C438.549 251.632 439.326 251.307 439.731 250.77C440.315 249.99 440.201 248.642 440.007 247.634C439.602 245.652 438.484 243.751 436.669 241.996C435.049 240.436 432.23 238.6 428.293 236.536L422.833 233.742C420.598 232.62 418.686 231.58 417.163 230.654C407.491 224.983 401.464 217.655 399.309 208.913C397.43 201.244 398.305 193.818 401.885 186.847C405.32 180.234 410.65 175.148 417.714 171.703C426.689 167.348 436.653 165.545 447.313 166.357C452.06 166.698 457.099 167.722 462.283 169.412C463.045 169.656 463.644 170.192 464.001 170.907C464.357 171.622 464.406 172.434 464.146 173.182L457.148 193.525C456.629 195.036 455.025 195.833 453.486 195.361C446.795 193.265 442.469 193.574 440.59 196.271C439.715 197.506 439.407 198.741 439.634 200.057C440.12 202.966 443.101 206.362 448.464 210.164C451.267 212.195 455.252 214.649 460.323 217.46L465.653 220.369C467.516 221.425 468.796 222.221 469.59 222.822C475.487 226.982 479.359 232.425 481.077 238.974C482.713 245.311 482.113 251.778 479.327 258.164C476.443 264.647 472.506 269.749 467.63 273.373C462.138 277.386 455.025 279.84 446.487 280.652C445.434 280.75 444.332 280.799 443.182 280.799L443.215 280.815ZM415.608 271.39C420.873 273.324 425.814 274.835 430.318 275.843C436.556 277.305 441.902 277.841 446.212 277.419C454.167 276.655 460.728 274.413 465.734 270.74C470.157 267.474 473.738 262.795 476.378 256.848C478.873 251.144 479.392 245.408 477.95 239.786C476.443 234.002 472.992 229.176 467.711 225.438C466.982 224.902 465.783 224.155 464.098 223.196L458.751 220.287C453.567 217.411 449.484 214.893 446.584 212.797C440.428 208.442 437.107 204.445 436.459 200.594C436.086 198.4 436.588 196.304 437.965 194.386C440.687 190.454 446.163 189.707 454.199 192.16L460.987 172.385C456.159 170.842 451.477 169.899 447.07 169.574C436.977 168.811 427.58 170.5 419.123 174.595C412.692 177.731 407.864 182.346 404.753 188.309C401.545 194.549 400.768 201.211 402.452 208.101C404.397 215.965 409.889 222.595 418.816 227.827C420.29 228.721 422.121 229.728 424.308 230.817L429.784 233.612C434.061 235.854 437.042 237.82 438.921 239.607C441.222 241.834 442.648 244.303 443.198 246.952C443.668 249.357 443.377 251.274 442.34 252.672C441.368 253.971 439.812 254.719 437.722 254.93C434.498 255.288 430.772 254.231 426.625 251.827L415.608 271.358V271.39Z" fill="#231F20"/>
</g>
<defs>
<clipPath id="clip0_251_29607">
<rect width="482" height="319" fill="white"/>
</clipPath>
</defs>
</svg>
