<svg width="528" height="101" viewBox="0 0 528 101" fill="none" xmlns="http://www.w3.org/2000/svg">
<g clip-path="url(#clip0_251_38969)">
<path d="M325.008 18.3486L320.041 98.2111C320.019 98.5801 319.701 98.873 319.317 98.8513L293.506 97.8313C293.122 97.8205 292.826 97.5058 292.837 97.126L293.594 67.3838C293.594 66.9823 293.276 66.6676 292.87 66.6785L278.342 67.3078C277.969 67.3187 277.673 67.6333 277.684 68.0023L278.112 94.0661C278.112 94.4567 277.805 94.7714 277.41 94.7605L248.682 94.3916C248.298 94.3916 247.991 94.0769 248.002 93.6863L249.658 13.6828C249.658 13.3138 249.976 13.01 250.349 13.01H276.16C276.544 13.01 276.851 13.3138 276.851 13.6828L277.322 45.4433C277.322 45.8339 277.662 46.1486 278.068 46.116L293.583 45.031C293.934 45.0093 294.219 44.7163 294.23 44.3691L294.943 16.6993C294.943 16.3087 295.283 16.0049 295.677 16.0266L324.361 17.6108C324.745 17.6325 325.041 17.958 325.019 18.3378L325.008 18.3486Z" fill="#231F20"/>
<path d="M328.221 16.4607L323.254 96.3232C323.232 96.6921 322.914 96.9851 322.53 96.9634L296.719 95.9434C296.335 95.9326 296.039 95.6179 296.05 95.2381L296.807 65.4958C296.807 65.0944 296.489 64.7797 296.083 64.7905L281.555 65.4199C281.182 65.4307 280.886 65.7454 280.897 66.1143L281.325 92.1782C281.325 92.5688 281.018 92.8835 280.623 92.8726L251.895 92.5037C251.511 92.5037 251.204 92.189 251.215 91.7984L252.871 11.7948C252.871 11.4259 253.189 11.1221 253.562 11.1221H279.373C279.757 11.1221 280.064 11.4259 280.064 11.7948L280.535 43.5554C280.535 43.946 280.875 44.2607 281.281 44.2281L296.796 43.143C297.147 43.1213 297.432 42.8283 297.443 42.4811L298.156 14.8114C298.156 14.4207 298.495 14.1169 298.89 14.1386L327.574 15.7228C327.958 15.7445 328.254 16.0701 328.232 16.4499L328.221 16.4607Z" fill="white"/>
<path d="M322.574 97.7772C322.574 97.7772 322.53 97.7772 322.519 97.7772L296.708 96.7572C295.886 96.7246 295.228 96.0302 295.25 95.2164L296.006 65.6043L281.741 66.2228L282.158 92.1564C282.158 92.5688 282.004 92.9485 281.719 93.2415C281.423 93.5345 281.083 93.7189 280.623 93.6864L251.884 93.3175C251.478 93.3175 251.094 93.1439 250.809 92.8617C250.524 92.5796 250.371 92.189 250.382 91.7875L252.037 11.784C252.059 10.9701 252.728 10.3191 253.55 10.3191H279.362C280.184 10.3191 280.864 10.981 280.875 11.7948L281.346 43.4251L296.609 42.3617L297.311 14.8114C297.311 14.399 297.497 14.0301 297.794 13.748C298.101 13.4658 298.495 13.3356 298.901 13.3465L327.585 14.9307C327.991 14.9524 328.363 15.126 328.638 15.4299C328.912 15.7337 329.043 16.1135 329.021 16.5149L324.054 96.3774C324.01 97.1695 323.331 97.788 322.541 97.788L322.574 97.7772ZM296.894 95.1296L322.453 96.1387L327.399 16.4932L298.978 14.9524L298.276 42.492C298.254 43.2624 297.651 43.8917 296.872 43.946L281.346 45.0311C280.93 45.0528 280.524 44.9117 280.217 44.6404C279.91 44.3692 279.734 43.9677 279.724 43.5553L279.252 11.925H253.693L252.048 91.679L280.513 92.0479L280.096 66.1252C280.085 65.3114 280.721 64.6386 281.544 64.606L296.072 63.9767C296.489 63.9658 296.905 64.1178 297.201 64.3999C297.497 64.6928 297.662 65.0943 297.651 65.5067L296.894 95.1296Z" fill="#231F20"/>
<path d="M360.896 44.8356L341.861 47.7437C341.444 47.8088 341.148 48.1886 341.203 48.6117L341.96 54.2759C342.026 54.7316 342.464 55.0246 342.914 54.927L353.473 52.4747C353.922 52.3661 354.372 52.6808 354.427 53.1366L356.006 66.9389C356.05 67.3512 355.764 67.7201 355.359 67.7853L344.833 69.4563C344.416 69.5214 344.131 69.9012 344.186 70.3027L344.822 75.5762C344.876 76.0211 345.293 76.3249 345.732 76.2489L367.234 72.4945C367.672 72.4186 368.089 72.7224 368.144 73.1673L369.887 87.8268C369.931 88.2392 369.646 88.6189 369.229 88.684L329.054 94.4025C328.637 94.4676 328.243 94.1746 328.177 93.7623L319.076 37.1532C319.01 36.7517 319.284 36.3611 319.69 36.2743L358.078 28.3966C358.506 28.3097 358.933 28.5919 358.999 29.0259L361.565 43.935C361.642 44.3582 361.346 44.7597 360.918 44.8248L360.896 44.8356Z" fill="#231F20"/>
<path d="M363.856 43.0561L344.821 45.9641C344.405 46.0292 344.109 46.409 344.164 46.8322L344.92 52.4964C344.986 52.9521 345.425 53.2451 345.874 53.1474L356.433 50.6951C356.883 50.5866 357.332 50.9013 357.387 51.357L358.966 65.1593C359.01 65.5717 358.725 65.9406 358.319 66.0057L347.793 67.6767C347.376 67.7419 347.091 68.1216 347.146 68.5231L347.782 73.7966C347.837 74.2415 348.253 74.5454 348.692 74.4694L370.194 70.715C370.633 70.639 371.049 70.9429 371.104 71.3877L372.848 86.0473C372.891 86.4596 372.606 86.8394 372.19 86.9045L332.015 92.6229C331.598 92.688 331.203 92.3951 331.137 91.9827L322.037 35.3737C321.971 34.9722 322.245 34.5816 322.651 34.4948L361.038 26.617C361.466 26.5302 361.894 26.8123 361.959 27.2464L364.525 42.1555C364.602 42.5787 364.306 42.9801 363.878 43.0452L363.856 43.0561Z" fill="white"/>
<path d="M331.883 93.4476C331.115 93.4476 330.425 92.8833 330.304 92.1129L321.203 35.5039C321.072 34.6684 321.62 33.8762 322.464 33.7026L360.852 25.8249C361.269 25.7381 361.718 25.8249 362.08 26.0636C362.442 26.3023 362.683 26.6821 362.76 27.1053L365.326 42.0144C365.403 42.4376 365.304 42.8608 365.052 43.208C364.799 43.5552 364.427 43.7831 363.999 43.8482L344.964 46.7562L345.765 52.3661L356.269 49.8813C356.707 49.7836 357.179 49.8704 357.552 50.1309C357.924 50.3913 358.166 50.8036 358.221 51.2485L359.8 65.0508C359.898 65.8972 359.306 66.6568 358.462 66.7978L347.936 68.4689L348.604 73.699L370.063 69.912C370.501 69.8361 370.951 69.9446 371.302 70.205C371.652 70.4654 371.883 70.856 371.938 71.2901L373.681 85.9496C373.78 86.8068 373.188 87.5773 372.321 87.7075L332.146 93.4259C332.069 93.4367 331.993 93.4476 331.916 93.4476H331.883ZM361.126 27.3874L322.793 35.2977L331.927 91.8525L372.047 86.1015L370.271 71.4854L348.813 75.2724C348.385 75.3483 347.936 75.2398 347.585 74.9902C347.234 74.7298 347.004 74.3392 346.949 73.9051L346.324 68.6316C346.225 67.7853 346.806 67.0148 347.661 66.8846L358.188 65.2136L356.576 51.4547L346.072 53.9395C345.633 54.0372 345.172 53.9504 344.8 53.7008C344.427 53.4512 344.175 53.0498 344.12 52.6049L343.363 46.9407C343.254 46.0943 343.857 45.2914 344.712 45.172L363.714 42.264L361.137 27.3983L361.126 27.3874Z" fill="#231F20"/>
<path d="M401.652 86.5466L381.565 88.7819C381.389 88.8036 381.236 88.9121 381.17 89.0749L377.201 98.4826C377.091 98.743 376.773 98.8515 376.521 98.7213L360.447 90.2793C360.216 90.16 360.118 89.8778 360.238 89.6391L390.117 29.6229C390.282 29.2865 390.764 29.2648 390.962 29.5795L426.882 86.5575C427.036 86.807 426.937 87.1326 426.663 87.2519L406.937 95.6939C406.696 95.7916 406.422 95.6939 406.301 95.4552L402.124 86.807C402.036 86.6226 401.839 86.5141 401.63 86.5358L401.652 86.5466ZM395.446 72.8962L391.992 65.6478C391.817 65.2681 391.269 65.2789 391.104 65.6695L387.661 73.8077C387.519 74.1441 387.804 74.513 388.177 74.4696L395.084 73.5798C395.413 73.5364 395.6 73.1892 395.457 72.8962H395.446Z" fill="#231F20"/>
<path d="M405.929 85.6892L385.841 87.9245C385.666 87.9462 385.512 88.0547 385.446 88.2175L381.477 97.6252C381.368 97.8856 381.05 97.9941 380.797 97.8639L364.723 89.4219C364.493 89.3026 364.394 89.0204 364.515 88.7817L394.394 28.7655C394.558 28.4291 395.041 28.4074 395.238 28.7221L431.159 85.7001C431.312 85.9496 431.214 86.2752 430.939 86.3945L411.214 94.8365C410.973 94.9342 410.698 94.8365 410.578 94.5978L406.4 85.9496C406.313 85.7652 406.115 85.6567 405.907 85.6784L405.929 85.6892ZM399.723 72.0388L396.269 64.7904C396.093 64.4106 395.545 64.4215 395.381 64.8121L391.938 72.9503C391.795 73.2867 392.08 73.6556 392.453 73.6122L399.361 72.7224C399.69 72.679 399.876 72.3318 399.734 72.0388H399.723Z" fill="white"/>
<path d="M381.028 98.732C380.819 98.732 380.6 98.6778 380.414 98.5801L364.339 90.1381C363.714 89.8126 363.462 89.053 363.78 88.4237L393.659 28.4075C393.867 27.9843 394.295 27.713 394.767 27.6804C395.249 27.6479 395.688 27.8866 395.94 28.2881L431.861 85.2661C432.058 85.5916 432.113 85.9822 432.003 86.3403C431.893 86.6984 431.619 86.9914 431.268 87.1433L411.543 95.5744C410.896 95.8565 410.15 95.5744 409.843 94.9451L405.764 86.5031L386.115 88.6841L382.223 97.9182C382.08 98.2546 381.806 98.515 381.455 98.6344C381.313 98.6886 381.159 98.7103 381.017 98.7103L381.028 98.732ZM365.403 88.8577L380.863 96.9742L384.69 87.9028C384.876 87.4688 385.282 87.165 385.753 87.1107L405.841 84.8754C406.4 84.8103 406.927 85.1033 407.168 85.6024L411.203 93.9685L430.271 85.8086L394.876 29.6662L365.403 88.8577ZM392.398 74.4152C391.992 74.4152 391.609 74.2307 391.356 73.9052C391.071 73.5363 391.006 73.048 391.192 72.6248L394.635 64.4866C394.832 64.02 395.293 63.7054 395.808 63.6945C396.291 63.6837 396.795 63.9766 397.014 64.4324L400.468 71.6808C400.644 72.0497 400.633 72.4946 400.435 72.8527C400.238 73.2107 399.865 73.4603 399.459 73.5146L392.563 74.4043C392.508 74.4043 392.453 74.4043 392.398 74.4043V74.4152ZM395.863 65.7996L392.935 72.7116L398.802 71.9629L395.863 65.7996Z" fill="#231F20"/>
<path d="M477.902 67.7852C477.145 76.748 473.735 83.4104 467.65 87.7942C462.77 91.2773 456.312 93.2088 448.286 93.5886C442.529 93.8707 436.268 93.3715 429.492 92.0586C426.389 91.4726 423.779 90.8541 421.663 90.2031C421.312 90.0946 421.093 89.769 421.126 89.411L425.501 34.9938C425.534 34.6466 425.797 34.3536 426.148 34.2885C433.801 32.9647 442.036 32.867 450.862 34.0064C464.009 35.5797 472.463 41.6888 476.213 52.3335C476.86 54.1565 477.342 56.0771 477.66 58.117C477.924 59.723 478.066 61.3831 478.11 63.0867C478.187 64.9856 478.11 66.559 477.902 67.8069V67.7852ZM458.275 66.0924C458.702 64.3671 458.746 62.5876 458.384 60.7429C458.055 59.1262 457.386 57.7698 456.378 56.6739C455.15 55.3718 453.417 54.5254 451.18 54.1239C448.768 53.6899 446.476 53.6356 444.327 53.9503C443.987 54.0045 443.724 54.2758 443.68 54.6122L441.191 72.744C441.137 73.1129 441.356 73.471 441.707 73.5795C443.878 74.2957 446.158 74.5778 448.571 74.4259C450.851 74.2848 452.759 73.6555 454.305 72.527C456.279 71.1055 457.595 68.9571 458.286 66.0816L458.275 66.0924Z" fill="#231F20"/>
<path d="M481.641 65.0183C480.884 73.9811 477.474 80.6436 471.389 85.0273C466.509 88.5105 460.051 90.4419 452.025 90.8217C446.268 91.1038 440.007 90.6047 433.231 89.2917C430.128 88.7058 427.518 88.0873 425.402 87.4362C425.051 87.3277 424.832 87.0022 424.865 86.6441L429.24 32.227C429.273 31.8797 429.536 31.5868 429.887 31.5216C437.54 30.1978 445.775 30.1002 454.601 31.2395C467.748 32.8129 476.202 38.9219 479.952 49.5667C480.599 51.3896 481.081 53.3102 481.399 55.3502C481.663 56.9561 481.805 58.6163 481.849 60.3199C481.926 62.2188 481.849 63.7922 481.641 65.04V65.0183ZM462.014 63.3256C462.441 61.6003 462.485 59.8207 462.123 57.9761C461.794 56.3593 461.125 55.003 460.117 53.907C458.889 52.6049 457.156 51.7585 454.919 51.3571C452.507 50.923 450.215 50.8688 448.066 51.1834C447.726 51.2377 447.463 51.509 447.419 51.8453L444.93 69.9772C444.876 70.3461 445.095 70.7042 445.446 70.8127C447.617 71.5289 449.898 71.811 452.31 71.6591C454.59 71.518 456.498 70.8886 458.044 69.7602C460.018 68.3387 461.334 66.1902 462.025 63.3147L462.014 63.3256Z" fill="white"/>
<path d="M448.889 91.7006C443.965 91.7006 438.659 91.1581 433.077 90.0838C429.963 89.4979 427.299 88.8685 425.161 88.2066C424.448 87.9896 423.988 87.3169 424.053 86.5681L428.428 32.1401C428.483 31.4131 429.031 30.8272 429.744 30.697C437.452 29.3623 445.84 29.2646 454.7 30.404C468.121 32.0099 476.871 38.3577 480.72 49.2628C481.377 51.1183 481.882 53.1149 482.211 55.1874C482.474 56.8259 482.627 58.5403 482.671 60.2656C482.748 62.1754 482.671 63.803 482.463 65.1051C481.684 74.2524 478.132 81.1753 471.882 85.6675C466.893 89.2266 460.226 91.2232 452.068 91.6138C451.027 91.6681 449.974 91.6898 448.9 91.6898L448.889 91.7006ZM442.759 31.2504C438.341 31.2504 434.075 31.5976 430.029 32.3029L425.687 86.6875C427.738 87.2843 430.336 87.9028 433.395 88.4779C440.073 89.7583 446.334 90.2791 451.992 89.9862C459.821 89.6172 466.191 87.7183 470.917 84.3437C476.761 80.1336 480.095 73.6013 480.829 64.9315V64.8664C481.038 63.6836 481.103 62.1537 481.027 60.3199C480.983 58.6488 480.84 57.0103 480.588 55.4478C480.27 53.473 479.799 51.5741 479.174 49.8054C475.555 39.5296 467.255 33.5507 454.503 32.0208C450.479 31.4999 446.564 31.2504 442.77 31.2504H442.759ZM451.093 72.5163C449.042 72.5163 447.058 72.2016 445.183 71.5831C444.459 71.3444 444.009 70.6174 444.108 69.8686L446.597 51.7368C446.696 51.0424 447.244 50.4781 447.946 50.3805C450.183 50.0549 452.573 50.1092 455.073 50.5541C457.474 50.9773 459.382 51.9213 460.72 53.3427C461.827 54.558 462.573 56.0555 462.924 57.8025C463.307 59.7665 463.264 61.6871 462.803 63.51C462.079 66.5591 460.632 68.8812 458.505 70.422C456.838 71.6373 454.766 72.3318 452.343 72.4837C451.915 72.5054 451.498 72.5271 451.082 72.5271L451.093 72.5163ZM450.873 51.8019C449.952 51.8019 449.064 51.867 448.198 51.9972L445.753 70.0965C447.77 70.7259 449.974 71.008 452.266 70.8669C454.371 70.7367 456.147 70.1508 457.562 69.1199C459.36 67.8178 460.588 65.8104 461.224 63.1519C461.63 61.546 461.663 59.8641 461.323 58.1388C461.027 56.6848 460.424 55.4478 459.514 54.4604C458.428 53.2993 456.827 52.5289 454.788 52.1709C453.45 51.9321 452.134 51.8128 450.873 51.8128V51.8019Z" fill="#231F20"/>
<path d="M513.899 34.0609L509.744 45.986C509.601 46.3875 509.173 46.5936 508.768 46.4634C504.327 45.0962 501.421 45.4 500.029 47.3641C498.099 50.0442 499.733 53.2018 504.941 56.8369C506.641 58.0522 509.02 59.4953 512.079 61.1664L512.967 61.6547L513.746 62.0779C514.404 62.4251 514.908 62.6964 515.259 62.8808C516.29 63.4668 517.035 63.9225 517.485 64.248C520.829 66.581 522.978 69.5541 523.943 73.1892C524.864 76.7048 524.535 80.2531 522.956 83.8122C521.311 87.4689 519.097 90.3119 516.322 92.341C513.187 94.598 509.162 95.9652 504.25 96.4318C501.564 96.6922 498.318 96.3775 494.502 95.4877C491.706 94.8692 488.691 93.9578 485.435 92.7642C484.985 92.6014 484.788 92.0697 485.029 91.6574L491.772 79.8625C491.992 79.4827 492.485 79.3633 492.858 79.5912C495.204 80.9692 497.255 81.566 499.02 81.3707C501.048 81.1863 501.849 80.0035 501.421 77.8442C501.136 76.4661 500.391 75.1966 499.163 74.0355C498.121 73.059 496.399 71.9413 493.976 70.6826L492.353 69.8796L490.731 69.0441C489.415 68.3931 488.307 67.7963 487.408 67.2646C481.849 64.0527 478.461 59.9945 477.244 55.1007C476.18 50.8146 476.663 46.7239 478.691 42.8392C480.643 39.1391 483.636 36.3179 487.66 34.3864C492.858 31.8907 498.559 30.8816 504.755 31.3481C507.518 31.5435 510.401 32.1186 513.428 33.0951C513.844 33.2254 514.064 33.6811 513.921 34.0826L513.899 34.0609Z" fill="#231F20"/>
<path d="M516.629 30.0242L512.474 41.9494C512.331 42.3508 511.904 42.557 511.498 42.4268C507.057 41.0596 504.151 41.3634 502.759 43.3274C500.829 46.0076 502.463 49.1652 507.671 52.8002C509.371 54.0155 511.75 55.4587 514.809 57.1297L515.697 57.618L516.476 58.0412C517.134 58.3885 517.638 58.6597 517.989 58.8442C519.02 59.4301 519.765 59.8859 520.215 60.2114C523.559 62.5443 525.708 65.5175 526.673 69.1525C527.594 72.6682 527.265 76.2164 525.686 79.7755C524.042 83.4323 521.827 86.2752 519.053 88.3043C515.917 90.5613 511.893 91.9285 506.98 92.3951C504.294 92.6555 501.048 92.3409 497.233 91.4511C494.437 90.8326 491.421 89.9211 488.165 88.7275C487.715 88.5647 487.518 88.0331 487.759 87.6207L494.502 75.8258C494.722 75.446 495.215 75.3267 495.588 75.5545C497.934 76.9326 499.985 77.5294 501.75 77.3341C503.779 77.1496 504.579 75.9669 504.151 73.8075C503.866 72.4295 503.121 71.1599 501.893 69.9989C500.851 69.0223 499.13 67.9047 496.706 66.646L495.084 65.843L493.461 65.0075C492.145 64.3564 491.038 63.7596 490.138 63.2279C484.579 60.0161 481.191 55.9579 479.974 51.0641C478.91 46.778 479.393 42.6872 481.421 38.8026C483.373 35.1025 486.367 32.2812 490.391 30.3498C495.588 27.8541 501.29 26.8449 507.485 27.3115C510.248 27.5068 513.132 28.0819 516.158 29.0585C516.575 29.1887 516.794 29.6445 516.651 30.046L516.629 30.0242Z" fill="white"/>
<path d="M505.094 93.2958C502.748 93.2958 500.04 92.9486 497.035 92.2433C494.228 91.6139 491.147 90.6916 487.88 89.498C487.441 89.3352 487.09 88.988 486.926 88.554C486.761 88.1199 486.805 87.6316 487.035 87.2301L493.779 75.4352C493.987 75.0663 494.338 74.795 494.755 74.6865C495.171 74.578 495.621 74.6431 496.005 74.8601C498.187 76.1405 500.084 76.6939 501.651 76.5312C502.386 76.4661 502.88 76.2599 503.143 75.9127C503.439 75.5112 503.505 74.8601 503.329 73.9704C503.088 72.7768 502.408 71.6374 501.312 70.5957C500.336 69.6734 498.658 68.5883 496.312 67.373L493.066 65.7346C491.75 65.0835 490.61 64.4759 489.7 63.9225C483.976 60.6129 480.435 56.3485 479.163 51.2595C478.055 46.7998 478.571 42.4811 480.676 38.4229C482.704 34.5708 485.851 31.6085 490.018 29.612C495.325 27.062 501.224 26.0203 507.529 26.4869C510.336 26.6822 513.318 27.279 516.388 28.2665C516.805 28.3967 517.134 28.6896 517.331 29.0694C517.529 29.4601 517.55 29.8941 517.419 30.2956L513.263 42.2207C512.978 43.0345 512.101 43.4685 511.268 43.2081C507.233 41.9603 504.601 42.1664 503.45 43.7941C502.912 44.5428 502.715 45.3023 502.858 46.1162C503.154 47.8632 504.941 49.8814 508.154 52.1276C509.82 53.3211 512.189 54.7535 515.215 56.4136L518.384 58.1172C519.48 58.7357 520.237 59.2023 520.708 59.5387C524.184 61.9584 526.465 65.1269 527.474 68.9356C528.439 72.6249 528.088 76.3684 526.443 80.0903C524.743 83.8664 522.419 86.8395 519.535 88.9446C516.29 91.2884 512.09 92.7098 507.046 93.1873C506.432 93.2415 505.774 93.2741 505.094 93.2741V93.2958ZM495.16 76.2599L488.461 88.0331C491.641 89.1508 494.656 90.0622 497.397 90.6699C501.114 91.5271 504.305 91.8418 506.882 91.6031C511.629 91.1473 515.555 89.8235 518.548 87.6642C521.191 85.7327 523.34 82.9766 524.919 79.4609C526.41 76.0863 526.728 72.69 525.862 69.3696C524.952 65.9516 522.89 63.0869 519.721 60.8842C519.294 60.5695 518.57 60.1355 517.561 59.5604L514.393 57.846C511.322 56.1641 508.888 54.6884 507.178 53.4622C503.548 50.9231 501.597 48.6119 501.213 46.3983C500.994 45.1504 501.29 43.9568 502.079 42.8609C503.68 40.5822 506.926 40.1807 511.728 41.6564L515.829 29.7856C512.912 28.8633 510.061 28.2882 507.386 28.1037C501.366 27.648 495.752 28.6462 490.709 31.066C486.86 32.9106 483.976 35.6342 482.112 39.1716C480.193 42.8609 479.733 46.7998 480.731 50.8688C481.893 55.513 485.182 59.4302 490.511 62.5227C491.399 63.0544 492.496 63.6403 493.779 64.2805L497.024 65.919C499.557 67.232 501.312 68.3713 502.419 69.413C503.768 70.6934 504.601 72.1149 504.919 73.6449C505.182 75.0121 505.018 76.0971 504.437 76.8784C503.888 77.6054 503 78.0286 501.794 78.148C499.875 78.3541 497.627 77.7248 495.138 76.2599H495.16Z" fill="#231F20"/>
<path d="M58.7497 83.6601L30.285 86.8286C30.0328 86.8611 29.8245 87.013 29.7258 87.2409L24.1008 100.577C23.9473 100.946 23.4977 101.108 23.1469 100.913L0.361975 88.9662C0.0330301 88.7926 -0.0985477 88.3911 0.0659246 88.0656L42.4121 3.00551C42.6533 2.52807 43.3331 2.49552 43.6182 2.95126L94.5279 83.7035C94.7472 84.0616 94.6046 84.5282 94.2208 84.6909L66.2715 96.6486C65.9316 96.7897 65.5369 96.6486 65.3724 96.3122L59.4514 84.0507C59.3198 83.7903 59.0457 83.6384 58.7497 83.671V83.6601ZM49.9559 64.313L45.0546 54.0372C44.8024 53.5055 44.0239 53.5164 43.7936 54.0698L38.9143 65.6042C38.706 66.0925 39.1117 66.6134 39.638 66.5374L49.4186 65.2787C49.8791 65.2245 50.1532 64.7253 49.9559 64.313Z" fill="#231F20"/>
<path d="M63.6288 81.8481L35.1641 85.0165C34.9119 85.0491 34.7036 85.201 34.6049 85.4289L28.98 98.7646C28.8265 99.1335 28.3769 99.2963 28.026 99.101L5.25211 87.1433C4.92317 86.9697 4.79159 86.5682 4.95606 86.2427L47.2912 1.1935C47.5325 0.71606 48.2123 0.683507 48.4974 1.13924L99.407 81.8915C99.6263 82.2496 99.4838 82.7162 99.1 82.8789L71.1507 94.8366C70.8108 94.9777 70.416 94.8366 70.2516 94.5002L64.3306 82.2387C64.199 81.9783 63.9249 81.8264 63.6288 81.8589V81.8481ZM54.835 62.501L49.9338 52.2252C49.6816 51.6935 48.9031 51.7043 48.6728 52.2577L43.7934 63.7922C43.5851 64.2805 43.9908 64.8014 44.5171 64.7254L54.2977 63.4667C54.7583 63.4124 55.0324 62.9133 54.835 62.501Z" fill="white"/>
<path d="M28.333 100.002C28.0918 100.002 27.8396 99.9474 27.6203 99.8281L4.84633 87.8704C4.12265 87.4906 3.83757 86.6225 4.19941 85.8847L46.5456 0.835465C46.7868 0.347175 47.2802 0.0324999 47.8284 -5.27825e-05C48.3767 -0.0326054 48.892 0.238667 49.1881 0.705254L100.098 81.4575C100.328 81.8264 100.394 82.2822 100.262 82.6945C100.131 83.1068 99.8236 83.4432 99.4179 83.6168L71.4686 95.5745C70.723 95.8892 69.8568 95.5745 69.5059 94.8475L63.6287 82.6728L35.3395 85.8196L29.7365 99.0793C29.572 99.47 29.254 99.7738 28.8483 99.9149C28.6839 99.9691 28.5084 100.002 28.3439 100.002H28.333ZM5.73448 86.4923L28.2672 98.3198L33.8373 85.1143C34.0457 84.6151 34.5171 84.2679 35.0654 84.2028L63.5301 81.0343C64.166 80.9584 64.7801 81.3056 65.0651 81.8698L70.9313 94.012L98.6175 82.1628L47.9162 1.76864L5.73448 86.4923ZM44.4184 65.5393C43.9469 65.5393 43.5193 65.3223 43.2232 64.9533C42.8943 64.5193 42.8175 63.9659 43.0258 63.4668L47.9052 51.9431C48.1355 51.3897 48.6618 51.0425 49.2648 51.0316C49.8789 51.0208 50.4052 51.3463 50.6683 51.8889L55.5696 62.1646C55.7779 62.5987 55.756 63.0978 55.5257 63.521C55.2955 63.9442 54.8679 64.2263 54.3964 64.2914L44.6157 65.5501C44.55 65.5501 44.4842 65.561 44.4184 65.561V65.5393ZM49.3197 52.8437L44.6377 63.8791L54.0016 62.6746L49.3087 52.8329L49.3197 52.8437Z" fill="#231F20"/>
<path d="M82.3239 31.4892L79.484 31.4023C79.188 31.4023 78.9467 31.6194 78.9467 31.9123L78.8919 34.7227L78.6068 49.252L78.552 51.9756C78.552 52.2577 78.7713 52.4965 79.0564 52.5073L81.8086 52.6267L92.9598 53.0933C93.2558 53.1041 93.4751 53.3537 93.4641 53.6358L91.7646 87.5557L91.6221 90.4203C91.6111 90.7133 91.8414 90.9628 92.1374 90.9628L95.0321 91.0171L112.773 91.3643L115.569 91.4186C115.854 91.4186 116.096 91.2015 116.106 90.9086L116.183 88.1416L117.093 54.6449C117.093 54.352 117.346 54.1241 117.642 54.1349L125.887 54.4822L128.76 54.6015C129.056 54.6124 129.297 54.3845 129.308 54.0915L129.363 51.2486L129.659 36.1984L129.714 33.4423C129.714 33.1602 129.495 32.9215 129.209 32.9106L126.424 32.8238L82.3349 31.4783L82.3239 31.4892Z" fill="#231F20"/>
<path d="M182.542 56.6306C181.566 53.2343 179.911 50.1418 177.597 47.4074C175.273 44.6729 172.433 42.4702 169.154 40.8426C165.788 39.1498 162.082 38.1299 158.157 37.8152C157.257 37.7501 156.358 37.7175 155.481 37.7175C148.551 37.7175 142.115 39.8443 136.358 44.0327C133.266 46.2789 130.679 48.9807 128.65 52.0732C126.578 55.2851 125.207 58.7682 124.571 62.4358C123.946 66.1468 124.133 69.7927 125.13 73.3084C126.084 76.6939 127.74 79.7972 130.054 82.5317C132.356 85.2552 135.196 87.4688 138.497 89.1073C141.852 90.8 145.569 91.82 149.516 92.1347C150.415 92.1998 151.314 92.2324 152.192 92.2324C159.121 92.2324 165.558 90.1056 171.314 85.9171C174.406 83.671 176.983 80.9583 178.968 77.8658C181.073 74.6648 182.455 71.1708 183.08 67.4923C183.705 63.8247 183.529 60.1789 182.553 56.6523V56.6306H182.542ZM146.194 64.4432C146.512 62.6203 147.477 61.112 149.154 59.875C150.733 58.7465 152.4 58.204 154.264 58.204C154.494 58.204 154.735 58.204 154.966 58.2257C157.016 58.3885 158.54 59.1263 159.746 60.5478C160.854 61.8716 161.238 63.3148 160.953 65.0726C160.635 66.9281 159.659 68.4255 157.992 69.6517C156.435 70.7802 154.79 71.3336 152.959 71.3336C152.718 71.3336 152.466 71.3336 152.203 71.301C150.13 71.1491 148.617 70.4329 147.433 69.0223C146.293 67.6768 145.898 66.2228 146.194 64.4541V64.4432Z" fill="#231F20"/>
<path d="M85.2406 29.2103L82.4008 29.1235C82.1047 29.1235 81.8635 29.3406 81.8635 29.6335L81.8087 32.4439L81.5236 46.9732L81.4688 49.6968C81.4688 49.9789 81.688 50.2176 81.9731 50.2285L84.7253 50.3479L95.8765 50.8144C96.1726 50.8253 96.3919 51.0749 96.3809 51.357L94.6814 85.2768L94.5388 88.1415C94.5278 88.4345 94.7581 88.684 95.0542 88.684L97.9489 88.7383L115.69 89.0855L118.486 89.1398C118.771 89.1398 119.012 88.9227 119.023 88.6298L119.1 85.8628L120.01 52.3661C120.01 52.0731 120.262 51.8453 120.558 51.8561L128.804 52.2034L131.677 52.3227C131.973 52.3336 132.214 52.1057 132.225 51.8127L132.28 48.9698L132.576 33.9196L132.631 31.1635C132.631 30.8814 132.411 30.6427 132.126 30.6318L129.341 30.545L85.2516 29.1995L85.2406 29.2103Z" fill="white"/>
<path d="M118.475 89.9428H118.453L95.0212 89.4871C94.6594 89.4871 94.3085 89.3243 94.0563 89.0639C93.8041 88.8035 93.6835 88.4562 93.6945 88.0873L95.5256 51.6067L81.9183 51.0424C81.1946 51.0099 80.6135 50.4022 80.6244 49.6861L81.0192 29.6228C81.0192 29.2647 81.1727 28.9283 81.4358 28.6787C81.699 28.4292 82.0279 28.3098 82.4007 28.3098L132.104 29.8181C132.839 29.8398 133.42 30.4474 133.409 31.1744L133.003 51.8237C133.003 52.1818 132.85 52.5181 132.576 52.7677C132.313 53.0173 131.962 53.1475 131.6 53.1258L120.778 52.67L119.802 88.6299C119.78 89.346 119.177 89.932 118.453 89.932L118.475 89.9428ZM95.3502 87.8703L118.179 88.3152L119.155 52.3445C119.155 51.9864 119.319 51.6501 119.582 51.4113C119.846 51.1618 120.175 51.0316 120.558 51.0533L131.381 51.509L131.775 31.4566L82.6639 29.9591L82.2801 49.4365L95.8874 50.0007C96.2493 50.0116 96.5782 50.1635 96.8195 50.4348C97.0607 50.6952 97.1923 51.0424 97.1703 51.4005L95.3392 87.8811L95.3502 87.8703Z" fill="#231F20"/>
<path d="M184.779 54.3628C183.803 50.9665 182.147 47.874 179.834 45.1395C177.509 42.4051 174.669 40.2024 171.391 38.5748C168.025 36.882 164.319 35.862 160.393 35.5474C159.494 35.4823 158.595 35.4497 157.718 35.4497C150.788 35.4497 144.352 37.5765 138.595 41.7649C135.503 44.0111 132.915 46.7129 130.887 49.8054C128.815 53.0173 127.444 56.5004 126.808 60.168C126.183 63.879 126.369 67.5249 127.367 71.0406C128.321 74.4261 129.977 77.5294 132.29 80.2638C134.593 82.9874 137.433 85.201 140.733 86.8395C144.089 88.5322 147.806 89.5522 151.753 89.8669C152.652 89.932 153.551 89.9645 154.428 89.9645C161.358 89.9645 167.795 87.8378 173.551 83.6493C176.643 81.4032 179.22 78.6905 181.205 75.598C183.31 72.397 184.691 68.903 185.316 65.2245C185.941 61.5569 185.766 57.911 184.79 54.3845V54.3628H184.779ZM148.431 62.1754C148.749 60.3525 149.714 58.8442 151.391 57.6072C152.97 56.4787 154.637 55.9362 156.501 55.9362C156.731 55.9362 156.972 55.9362 157.203 55.9579C159.253 56.1206 160.777 56.8585 161.983 58.28C163.091 59.6038 163.474 61.0469 163.189 62.8048C162.871 64.6603 161.895 66.1577 160.229 67.3838C158.672 68.5123 157.027 69.0657 155.196 69.0657C154.955 69.0657 154.703 69.0657 154.439 69.0332C152.367 68.8813 150.854 68.1651 149.67 66.7545C148.529 65.409 148.135 63.955 148.431 62.1863V62.1754Z" fill="white"/>
<path d="M154.417 90.7567C153.518 90.7567 152.597 90.7242 151.687 90.6482C147.63 90.3227 143.814 89.281 140.361 87.534C136.961 85.8521 134.034 83.5735 131.655 80.7631C129.264 77.9419 127.554 74.73 126.578 71.236C125.547 67.6118 125.361 63.8357 126.008 60.0054C126.666 56.2292 128.08 52.6376 130.207 49.3389C132.29 46.1596 134.944 43.3818 138.124 41.0814C144.768 36.2419 152.246 34.0935 160.47 34.712C164.516 35.0375 168.321 36.0792 171.786 37.8262C175.163 39.508 178.091 41.7867 180.481 44.5971C182.871 47.4183 184.582 50.6193 185.59 54.1133V54.1676C186.61 57.7918 186.786 61.557 186.139 65.3331C185.503 69.1201 184.077 72.7117 181.906 76.0104C179.867 79.1789 177.224 81.9675 174.045 84.2679C168.145 88.5649 161.545 90.7459 154.439 90.7459L154.417 90.7567ZM157.718 36.2419C150.964 36.2419 144.692 38.3144 139.078 42.3944C136.062 44.5863 133.54 47.2122 131.578 50.2179C129.571 53.3321 128.233 56.7175 127.619 60.2766C127.016 63.8574 127.192 67.3948 128.157 70.7911C129.078 74.0572 130.679 77.0629 132.915 79.7105C135.141 82.3473 137.893 84.4958 141.095 86.08C144.363 87.7294 147.97 88.7168 151.819 89.0206C159.538 89.6066 166.731 87.5666 173.058 82.9658C176.062 80.7739 178.573 78.148 180.503 75.1423C182.553 72.0281 183.891 68.6427 184.494 65.0727C185.097 61.5245 184.933 57.9979 183.99 54.5799C183.047 51.2921 181.435 48.2864 179.198 45.6496C176.95 43.0129 174.198 40.8644 171.018 39.291C167.74 37.6417 164.143 36.6434 160.328 36.3396C159.45 36.2745 158.573 36.2419 157.718 36.2419ZM155.196 69.8688C154.933 69.8688 154.659 69.8688 154.374 69.8363C152.071 69.6735 150.371 68.8488 149.045 67.2646C147.762 65.7563 147.29 64.0419 147.619 62.0345C147.97 59.9728 149.045 58.3126 150.898 56.9454C152.839 55.5565 154.9 54.9705 157.257 55.1333C159.516 55.3069 161.27 56.1641 162.608 57.7375C163.869 59.2458 164.319 60.9385 163.99 62.9242C163.628 65.0076 162.553 66.6678 160.7 68.0242C159.001 69.2612 157.192 69.8579 155.174 69.8579L155.196 69.8688ZM149.242 62.3057C148.99 63.8466 149.319 65.0619 150.306 66.2229C151.358 67.4708 152.652 68.0784 154.505 68.2086C156.501 68.3714 158.146 67.8831 159.746 66.7112C161.238 65.6261 162.104 64.2915 162.389 62.653C162.641 61.123 162.323 59.9294 161.369 58.7792C160.317 57.5422 158.968 56.8911 157.148 56.7501C155.251 56.609 153.496 57.0973 151.885 58.2475C150.404 59.3434 149.538 60.6781 149.253 62.2949L149.242 62.3057Z" fill="#231F20"/>
<path d="M251.368 77.3882L227.345 33.5832L224.932 29.1995C224.735 28.8414 224.22 28.8414 224.011 29.1995L221.5 33.529L210.327 52.8544C210.163 53.1365 209.779 53.2016 209.527 52.9954L190.59 37.0772L186.808 33.8979C186.501 33.6375 186.018 33.8111 185.952 34.2126L185.141 39.0629L176.884 88.3476L176.435 91.0169C176.391 91.299 176.577 91.5595 176.852 91.6137L179.538 92.1346L198.957 95.889L201.939 96.4641C202.235 96.5183 202.52 96.3122 202.564 96.0192L202.915 93.0352L204.275 81.4682C204.329 81.045 204.834 80.8605 205.152 81.1426L212.981 88.1631L215.579 90.4852C215.831 90.7131 216.226 90.648 216.391 90.355L218.123 87.3493L222.169 80.3397C222.377 79.9816 222.893 79.9924 223.09 80.3397L228.584 90.3442L229.965 92.8616C230.108 93.122 230.437 93.2088 230.689 93.0569L233.189 91.6137L250.107 81.8479L252.465 80.4916C252.706 80.3505 252.794 80.0467 252.662 79.7971L251.357 77.4208L251.368 77.3882Z" fill="#231F20"/>
<path d="M254.46 73.7749L230.437 29.9699L228.024 25.5862C227.827 25.2281 227.312 25.2281 227.103 25.5862L224.592 29.9157L213.419 49.2411C213.255 49.5232 212.871 49.5883 212.619 49.3822L193.682 33.4639L189.9 30.2846C189.593 30.0242 189.11 30.1978 189.044 30.5993L188.233 35.4496L179.976 84.7343L179.527 87.4036C179.483 87.6858 179.669 87.9462 179.944 88.0004L182.63 88.5213L202.049 92.2757L205.031 92.8508C205.327 92.905 205.612 92.6989 205.656 92.4059L206.007 89.4219L207.367 77.8549C207.421 77.4317 207.926 77.2472 208.244 77.5293L216.073 84.5499L218.671 86.8719C218.923 87.0998 219.318 87.0347 219.483 86.7417L221.215 83.736L225.261 76.7264C225.469 76.3683 225.985 76.3792 226.182 76.7264L231.676 86.7309L233.057 89.2483C233.2 89.5087 233.529 89.5955 233.781 89.4436L236.281 88.0004L253.2 78.2346L255.557 76.8783C255.798 76.7372 255.886 76.4334 255.754 76.1838L254.45 73.8075L254.46 73.7749Z" fill="white"/>
<path d="M205.141 93.6429C205.053 93.6429 204.965 93.6429 204.878 93.6212L179.801 88.7709C179.077 88.6298 178.606 87.957 178.727 87.2409L188.244 30.4365C188.321 29.9591 188.65 29.5684 189.11 29.4057C189.56 29.2429 190.075 29.3297 190.448 29.6444L212.893 48.5141L226.391 25.163C226.632 24.7507 227.081 24.4902 227.564 24.4902H227.575C228.068 24.4902 228.507 24.7615 228.748 25.1847L256.478 75.7498C256.829 76.39 256.61 77.1713 255.974 77.5402L234.198 90.1164C233.891 90.3008 233.507 90.3442 233.156 90.2466C232.805 90.1489 232.509 89.9102 232.334 89.5955L225.711 77.5402L220.185 87.0998C219.976 87.4471 219.636 87.6858 219.231 87.7509C218.825 87.816 218.419 87.6966 218.112 87.4254L208.123 78.4625L206.479 92.4493C206.435 92.8182 206.237 93.1546 205.93 93.3716C205.7 93.5344 205.415 93.6321 205.141 93.6321V93.6429ZM180.404 87.23L204.889 91.961L206.566 77.7247C206.621 77.2255 206.961 76.8132 207.432 76.6287C207.915 76.4551 208.441 76.5528 208.814 76.8891L218.956 85.993L224.56 76.2923C224.801 75.88 225.25 75.6196 225.733 75.6196H225.744C226.237 75.6196 226.676 75.8909 226.917 76.3141L233.649 88.5647L254.91 76.2815L227.564 26.4325L214.154 49.6317C213.957 49.979 213.617 50.2177 213.222 50.2828C212.827 50.3479 212.421 50.2394 212.114 49.9898L189.79 31.2286L180.404 87.23Z" fill="#231F20"/>
</g>
<defs>
<clipPath id="clip0_251_38969">
<rect width="528" height="101" fill="white"/>
</clipPath>
</defs>
</svg>
