<svg width="336" height="175" viewBox="0 0 336 175" fill="none" xmlns="http://www.w3.org/2000/svg">
<path d="M258.36 39.4664L305.435 42.4546L292.388 64.5399L291.495 66.0525L293.129 66.698L328.014 80.4783L294.449 97.2201L292.877 98.0042L293.898 99.434L308.804 120.31L262.162 127.353L261.309 127.482L260.991 128.284L251.678 151.806L204.419 146.521L203.918 146.465L203.486 146.723L170.989 166.033L136.946 149.601L136.493 149.383L135.999 149.482L89.3733 158.828L78.0628 136.198L77.6771 135.426L76.8161 135.372L29.7402 132.384L42.7873 110.298L43.6809 108.786L42.0469 108.14L7.16148 94.3599L40.7264 77.6181L42.2985 76.834L41.2776 75.4042L26.3718 54.5283L73.0137 47.4853L73.8667 47.3565L74.1844 46.5544L83.4981 23.0319L130.757 28.3168L131.257 28.3728L131.69 28.1156L164.187 8.8047L198.23 25.2368L198.683 25.4556L199.177 25.3567L245.802 16.0099L257.113 38.64L257.499 39.4117L258.36 39.4664Z" fill="white" stroke="#231F20" stroke-width="3"/>
<path d="M80.4327 74.7085L72.3694 74.6082L72.2998 80.1998L65.4843 80.1149L65.7065 62.2603L80.5853 62.4455C86.2329 62.5158 89.0322 64.5188 88.9832 68.4545L88.9784 68.8384C88.9289 72.8221 86.0803 74.7788 80.4327 74.7085ZM72.4664 66.8088L72.4249 70.1445L79.6723 70.2347C81.1762 70.2535 81.9349 69.7189 81.9485 68.6309L81.9494 68.5589C81.9629 67.471 81.2177 66.9177 79.7139 66.899L72.4664 66.8088ZM97.3566 66.9985L97.3184 70.0703L105.142 70.1677C106.518 70.1848 107.212 69.6814 107.225 68.6575L107.225 68.6335C107.238 67.6255 106.556 67.113 105.18 67.0959L97.3566 66.9985ZM97.2646 74.39L97.1885 80.5095L90.373 80.4247L90.5952 62.5701L106.818 62.7719C111.826 62.8343 114.31 64.3933 114.272 67.4491L114.269 67.713C114.261 68.321 114.135 68.8715 113.888 69.3644C113.642 69.8574 113.317 70.2534 112.914 70.5524C112.526 70.8516 112.139 71.0868 111.753 71.258C111.383 71.4294 111.005 71.5607 110.62 71.6519C111.752 71.9221 112.642 72.4292 113.289 73.1733C113.936 73.9014 114.253 74.8254 114.239 75.9453L114.206 78.5851C114.194 79.513 114.298 80.1864 114.517 80.6051L114.515 80.7251L107.556 80.6385C107.414 80.4767 107.346 80.1639 107.351 79.6999L107.377 77.6121C107.39 76.5561 107.12 75.7767 106.566 75.2738C106.029 74.7551 105.104 74.4875 103.792 74.4712L97.2646 74.39ZM116.281 62.8897L136.031 63.1355L135.977 67.5032L122.946 67.341L122.918 69.5728L135.685 69.7317L135.631 74.0754L122.864 73.9165L122.834 76.3643L136.057 76.5288L136.001 80.9925L116.059 80.7443L116.281 62.8897ZM150.23 81.5056L148.046 81.4784C140.782 81.388 137.177 79.231 137.23 75.0073L137.233 74.7673L144.72 74.8605C144.827 76.542 146.305 77.4004 149.152 77.4359L149.368 77.4386C150.28 77.4499 151.041 77.4194 151.65 77.3469C152.259 77.2585 152.708 77.1361 152.998 76.9797C153.288 76.8073 153.483 76.6337 153.581 76.4589C153.695 76.2683 153.754 76.053 153.757 75.8131L153.757 75.7891C153.761 75.4531 153.677 75.188 153.503 74.9938C153.346 74.7839 152.948 74.6029 152.31 74.4509C151.688 74.2832 150.777 74.1758 149.577 74.1289L146.267 73.9917C140.429 73.759 137.532 71.9309 137.575 68.5071L137.577 68.2911C137.585 67.6672 137.68 67.1083 137.862 66.6145C138.044 66.1048 138.371 65.6128 138.841 65.1386C139.31 64.6644 139.923 64.272 140.679 63.9614C141.435 63.6508 142.422 63.407 143.641 63.2302C144.875 63.0375 146.3 62.9513 147.916 62.9714L150.052 62.998C157.283 63.0879 160.876 65.0128 160.829 68.7725L160.827 68.9645L153.411 68.8722C153.283 67.6065 151.851 66.9566 149.115 66.9226L148.875 66.9196C147.755 66.9057 146.89 66.9669 146.281 67.1033C145.671 67.2238 145.293 67.3711 145.147 67.5453C145.001 67.7035 144.926 67.9186 144.923 68.1905L144.923 68.2145C144.919 68.4865 144.997 68.7115 145.154 68.8895C145.328 69.0676 145.71 69.2324 146.3 69.3838C146.891 69.5191 147.722 69.6015 148.793 69.6308L152.008 69.7428C155.383 69.8808 157.793 70.3829 159.238 71.2489C160.684 72.099 161.395 73.4279 161.373 75.2358L161.368 75.5717C161.36 76.2277 161.273 76.8267 161.106 77.3686C160.94 77.8946 160.613 78.4346 160.126 78.9886C159.639 79.5265 158.993 79.9825 158.189 80.3566C157.4 80.7148 156.324 81.0054 154.962 81.2285C153.615 81.4357 152.038 81.5281 150.23 81.5056ZM175.165 81.8159L172.981 81.7887C165.718 81.6983 162.113 79.5413 162.165 75.3176L162.168 75.0777L169.656 75.1708C169.763 76.8523 171.24 77.7108 174.088 77.7462L174.304 77.7489C175.216 77.7602 175.976 77.7297 176.585 77.6573C177.194 77.5688 177.644 77.4464 177.934 77.29C178.224 77.1176 178.418 76.944 178.516 76.7692C178.631 76.5786 178.689 76.3633 178.692 76.1234L178.693 76.0994C178.697 75.7634 178.612 75.4983 178.439 75.3041C178.281 75.0942 177.883 74.9132 177.245 74.7613C176.623 74.5935 175.713 74.4862 174.513 74.4392L171.203 74.302C165.365 74.0694 162.467 72.2412 162.51 68.8174L162.513 68.6014C162.521 67.9775 162.615 67.4186 162.798 66.9249C162.98 66.4151 163.306 65.9231 163.776 65.4489C164.246 64.9747 164.859 64.5823 165.615 64.2717C166.371 63.9611 167.358 63.7174 168.576 63.5405C169.811 63.3479 171.236 63.2616 172.852 63.2817L174.988 63.3083C182.219 63.3983 185.811 65.3231 185.765 69.0828L185.762 69.2748L178.347 69.1825C178.219 67.9168 176.786 67.267 174.051 67.2329L173.811 67.2299C172.691 67.216 171.826 67.2772 171.216 67.4137C170.607 67.5341 170.229 67.6814 170.083 67.8556C169.937 68.0138 169.862 68.2289 169.859 68.5008L169.858 68.5248C169.855 68.7968 169.932 69.0218 170.09 69.1998C170.264 69.378 170.646 69.5427 171.236 69.6941C171.826 69.8294 172.657 69.9118 173.729 69.9411L176.944 70.0531C180.318 70.1911 182.728 70.6932 184.174 71.5592C185.619 72.4093 186.331 73.7382 186.308 75.5461L186.304 75.8821C186.296 76.538 186.208 77.137 186.042 77.6789C185.875 78.2049 185.548 78.7449 185.061 79.2989C184.575 79.8368 183.929 80.2928 183.124 80.6669C182.336 81.0251 181.26 81.3157 179.897 81.5388C178.55 81.746 176.973 81.8384 175.165 81.8159ZM195.282 63.8729L214.649 64.1139L214.595 68.4815L201.972 68.3244L201.944 70.5563L214.303 70.7101L214.248 75.1017L201.889 74.9479L201.804 81.8114L195.06 81.7275L195.282 63.8729ZM229.068 63.9573L230.147 63.9707C231.731 63.9904 233.17 64.1203 234.463 64.3604C235.772 64.5848 236.865 64.8784 237.74 65.2413C238.632 65.5884 239.403 66.022 240.052 66.5422C240.718 67.0465 241.24 67.557 241.617 68.0738C241.995 68.5905 242.292 69.1542 242.508 69.765C242.741 70.3759 242.886 70.9298 242.944 71.4265C243.017 71.9235 243.051 72.4439 243.044 72.9879L243.035 73.7078C243.029 74.2518 242.982 74.7713 242.896 75.2662C242.826 75.7614 242.667 76.3195 242.419 76.9404C242.187 77.5456 241.876 78.1098 241.486 78.6329C241.112 79.1403 240.585 79.6458 239.907 80.1494C239.229 80.653 238.447 81.0753 237.563 81.4163C236.679 81.7574 235.579 82.0237 234.265 82.2154C232.966 82.4232 231.517 82.5172 229.917 82.4973L228.837 82.4838C227.237 82.4639 225.783 82.3338 224.473 82.0935C223.18 81.8694 222.088 81.5758 221.196 81.2127C220.321 80.8497 219.55 80.4081 218.885 79.8878C218.219 79.3675 217.697 78.8489 217.32 78.3322C216.958 77.7997 216.661 77.2279 216.429 76.617C216.213 75.9902 216.068 75.4284 215.994 74.9314C215.936 74.4347 215.911 73.9143 215.917 73.3704L215.926 72.6504C215.933 72.1065 215.972 71.5869 216.042 71.0917C216.128 70.5968 216.287 70.0467 216.518 69.4415C216.766 68.8366 217.077 68.2804 217.451 67.773C217.841 67.2658 218.376 66.7684 219.054 66.2808C219.732 65.7772 220.513 65.3629 221.397 65.0379C222.298 64.6971 223.397 64.4308 224.696 64.2389C226.01 64.0312 227.468 63.9374 229.068 63.9573ZM235.983 73.4041L235.987 73.0681C235.993 72.5401 235.903 72.051 235.717 71.6006C235.531 71.1343 235.208 70.6822 234.75 70.2445C234.307 69.8069 233.639 69.4546 232.747 69.1875C231.854 68.9203 230.784 68.779 229.536 68.7635C228.256 68.7475 227.166 68.862 226.267 69.1068C225.368 69.3517 224.692 69.6873 224.239 70.1137C223.785 70.5401 223.46 70.984 223.262 71.4456C223.08 71.8914 222.986 72.3783 222.98 72.9062L222.976 73.1942C222.97 73.7221 223.059 74.2273 223.245 74.7097C223.431 75.176 223.746 75.644 224.188 76.1135C224.63 76.567 225.298 76.9354 226.19 77.2185C227.099 77.5018 228.177 77.6513 229.425 77.6668C230.673 77.6823 231.746 77.5677 232.645 77.3228C233.561 77.0622 234.245 76.7107 234.699 76.2683C235.152 75.8259 235.478 75.3739 235.676 74.9124C235.874 74.4348 235.976 73.932 235.983 73.4041ZM251.61 68.9182L251.572 71.9899L259.395 72.0873C260.771 72.1044 261.466 71.601 261.478 70.5771L261.479 70.5531C261.491 69.5452 260.81 69.0327 259.434 69.0155L251.61 68.9182ZM251.518 76.3096L251.442 82.4291L244.627 82.3443L244.849 64.4897L261.072 64.6916C266.079 64.7539 268.564 66.3129 268.526 69.3687L268.523 69.6327C268.515 70.2406 268.388 70.7911 268.142 71.2841C267.896 71.777 267.571 72.173 267.167 72.472C266.78 72.7712 266.393 73.0064 266.006 73.1776C265.636 73.3491 265.259 73.4804 264.873 73.5716C266.006 73.8417 266.896 74.3488 267.543 75.0929C268.19 75.821 268.506 76.745 268.492 77.8649L268.459 80.5047C268.448 81.4327 268.551 82.106 268.77 82.5248L268.769 82.6448L261.809 82.5581C261.667 82.3964 261.599 82.0835 261.605 81.6195L261.631 79.5317C261.644 78.4758 261.374 77.6963 260.82 77.1934C260.282 76.6747 259.358 76.4072 258.046 76.3908L251.518 76.3096ZM73.0194 93.3537L92.3859 93.5947L92.3315 97.9624L79.7085 97.8053L79.6807 100.037L92.0398 100.191L91.9851 104.583L79.6261 104.429L79.5407 111.292L72.7972 111.208L73.0194 93.3537ZM101.131 98.0479L101.092 101.12L108.916 101.217C110.292 101.234 110.986 100.731 110.999 99.7068L110.999 99.6828C111.012 98.6749 110.33 98.1624 108.954 98.1453L101.131 98.0479ZM101.039 105.439L100.963 111.559L94.1471 111.474L94.3693 93.6194L110.592 93.8213C115.6 93.8836 118.084 95.4427 118.046 98.4984L118.043 98.7624C118.036 99.3704 117.909 99.9208 117.663 100.414C117.416 100.907 117.091 101.303 116.688 101.602C116.3 101.901 115.913 102.136 115.527 102.307C115.157 102.479 114.779 102.61 114.394 102.701C115.527 102.971 116.416 103.479 117.063 104.223C117.71 104.951 118.027 105.875 118.013 106.995L117.98 109.634C117.968 110.562 118.072 111.236 118.291 111.654L118.289 111.774L111.33 111.688C111.188 111.526 111.12 111.213 111.125 110.749L111.151 108.661C111.165 107.606 110.894 106.826 110.34 106.323C109.803 105.804 108.878 105.537 107.566 105.521L101.039 105.439ZM120.055 93.9391L139.805 94.1849L139.751 98.5525L126.72 98.3904L126.692 100.622L139.459 100.781L139.405 105.125L126.638 104.966L126.608 107.414L139.831 107.578L139.775 112.042L119.833 111.794L120.055 93.9391ZM141.967 94.2118L161.718 94.4576L161.663 98.8252L148.632 98.663L148.605 100.895L161.372 101.054L161.317 105.397L148.55 105.239L148.52 107.686L161.743 107.851L161.687 112.315L141.745 112.066L141.967 94.2118ZM170.946 112.43L171.168 94.5752L180.527 94.6916L185.874 104.791L191.566 94.829L200.542 94.9407L200.32 112.795L193.576 112.711L193.715 101.576L187.313 112.633L183.833 112.59L177.732 101.377L177.593 112.513L170.946 112.43ZM209.645 95.054L209.422 112.909L202.631 112.824L202.853 94.9695L209.645 95.054ZM211.946 95.0826L219.578 95.1776L229.818 105.458L229.945 95.3066L236.712 95.3908L236.49 113.245L229.675 113.161L218.626 102.198L218.491 113.021L211.724 112.937L211.946 95.0826ZM245.944 113.363L246.105 100.38L238.402 100.284L238.462 95.4126L260.685 95.6892L260.624 100.561L252.921 100.465L252.759 113.448L245.944 113.363Z" fill="#231F20"/>
</svg>
