<svg width="490" height="121" viewBox="0 0 490 121" fill="none" xmlns="http://www.w3.org/2000/svg">
<g clip-path="url(#clip0_251_32502)">
<path d="M419.885 60.0981C419.885 38.9994 413.355 21.8956 405.3 21.8956C397.246 21.8956 390.716 38.9994 390.716 60.0981C390.716 81.1967 397.246 98.3005 405.3 98.3005C413.355 98.3005 419.885 81.1967 419.885 60.0981Z" fill="#ADBF68" stroke="black" stroke-width="2" stroke-miterlimit="10"/>
<path d="M415.272 60.0981C415.272 41.9704 409.955 27.275 403.396 27.275C396.837 27.275 391.52 41.9704 391.52 60.0981C391.52 78.2257 396.837 92.9211 403.396 92.9211C409.955 92.9211 415.272 78.2257 415.272 60.0981Z" fill="#232323" stroke="black" stroke-width="2" stroke-miterlimit="10"/>
<path d="M411.366 60.0982C411.366 44.9548 406.923 32.6787 401.443 32.6787C395.963 32.6787 391.52 44.9548 391.52 60.0982C391.52 75.2417 395.963 87.5178 401.443 87.5178C406.923 87.5178 411.366 75.2417 411.366 60.0982Z" fill="#383838"/>
<path d="M371.749 34.5682L400.474 34.5682C401.239 34.5852 401.981 34.8229 402.608 35.2517C406.712 37.9213 409.708 48.0368 409.708 60.0982C409.683 74.202 405.579 85.6201 400.442 85.6201L371.716 85.6201L371.749 34.5682Z" fill="#DF2926"/>
<path d="M402.576 35.2517C406.679 37.9213 409.675 48.0368 409.675 60.0982C409.683 74.202 405.579 85.6201 400.442 85.6201L382.098 85.6201C386.261 81.0959 389.866 76.1085 392.842 70.7605C398.842 59.8196 402.174 47.6656 402.576 35.2517Z" fill="#C82127"/>
<path d="M371.749 34.5682L400.474 34.5682C401.239 34.5852 401.981 34.8229 402.608 35.2517C406.712 37.9213 409.708 48.0368 409.708 60.0982C409.683 74.202 405.579 85.6201 400.442 85.6201L371.716 85.6201L371.749 34.5682Z" stroke="black" stroke-width="2" stroke-miterlimit="10"/>
<path d="M380.99 60.0982C380.99 45.9984 376.856 34.5682 371.757 34.5682C366.657 34.5682 362.523 45.9984 362.523 60.0982C362.523 74.198 366.657 85.6282 371.757 85.6282C376.856 85.6282 380.99 74.198 380.99 60.0982Z" fill="#DF2926" stroke="black" stroke-width="2" stroke-miterlimit="10"/>
<path d="M24.3965 0.804283C37.3395 0.804282 47.8367 26.7122 47.8367 58.699C47.8367 90.6859 37.3395 116.594 24.3965 116.594C23.4369 116.59 22.483 116.449 21.5649 116.176C33.1702 112.718 42.1736 88.3138 42.1736 58.7231C42.1736 29.1325 33.1455 4.72826 21.5649 1.27065C22.4794 0.976334 23.434 0.819099 24.3965 0.804283Z" fill="#ADBF68" stroke="black" stroke-width="2" stroke-miterlimit="10"/>
<path d="M21.565 1.19027C33.1702 4.64787 42.1737 29.0521 42.1737 58.6427C42.1737 88.2334 33.1456 112.638 21.565 116.095C9.9844 112.678 0.956298 88.2736 0.956296 58.6749C0.956295 29.0762 9.9844 4.66396 21.565 1.19027Z" fill="black"/>
<path d="M21.565 1.19031C32.9732 4.58359 41.87 28.232 42.1655 57.1472L42.1655 58.675C42.1763 64.705 41.7897 70.7295 41.0082 76.7108C38.2259 97.6815 30.6998 113.402 21.565 116.127C11.076 113.016 2.68805 92.8087 1.20252 67.0777C1.03837 64.3519 0.956296 61.4973 0.956296 58.675C0.956296 53.9469 1.1861 49.3475 1.61288 44.9491C3.89453 21.8073 11.8064 4.10918 21.565 1.19031Z" fill="black" stroke="black" stroke-width="2" stroke-miterlimit="10"/>
<path d="M223.983 63.6762C185.745 45.753 152.842 41.2581 126.176 50.3363C116.91 53.4884 109.441 57.8063 101.554 62.3977C88.3484 70.0446 74.6913 77.9489 53.8692 79.2837C52.1047 79.3962 50.4139 79.4525 48.8381 79.4606C33.3919 79.6053 17.6501 75.8422 2.05615 68.2756C1.86738 65.1236 1.7771 61.9072 1.7771 58.6748C1.7771 53.6572 1.9987 48.6075 2.44189 43.6463C18.7089 53.4562 34.7789 58.1601 50.2006 57.6857C50.9392 57.6857 51.6697 57.6294 52.4001 57.5812C67.9203 56.6002 78.2697 50.6178 90.2525 43.6865C98.3696 38.9906 107.554 33.6755 118.888 29.8319C151.291 18.7998 189.874 23.6083 233.586 44.1207L223.983 63.6762Z" fill="#F1E5E0"/>
<path d="M2.59777 58.6749C2.59777 54.1157 2.78654 49.5323 3.14766 45.0053C19.1684 54.4293 35.0087 58.9643 50.2579 58.4899C51.0787 58.4899 51.8173 58.4256 52.4739 58.3854C68.1992 57.3883 78.6226 51.3576 90.6956 44.3781C98.7717 39.7063 107.931 34.4154 119.183 30.5879C151.192 19.7005 189.315 24.3803 232.519 44.4987L223.598 62.6069C185.474 44.9168 152.612 40.4863 125.93 49.5725C116.582 52.7889 109.088 57.0988 101.144 61.6902C88.0118 69.2889 74.4451 77.1449 53.82 78.4475C52.08 78.5521 50.4057 78.6083 48.8299 78.6164C33.6627 78.7611 18.2082 75.0945 2.86861 67.7209C2.67985 64.7699 2.59777 61.7304 2.59777 58.6749ZM0.956298 58.6749C0.956298 62.0896 1.05479 65.4427 1.25176 68.7341C17.133 76.5097 33.0635 80.3613 48.8545 80.2165C50.5452 80.2165 52.2441 80.1442 53.9349 80.0396C74.9047 78.7209 88.6602 70.7684 101.956 63.1054C109.835 58.5462 117.279 54.2604 126.447 51.1244C153.08 42.0623 186.024 46.6617 224.369 64.794L234.71 43.7911C190.489 22.8847 151.438 17.9556 118.642 29.1164C107.225 32.9921 98.0002 38.3313 89.8585 43.0433C77.966 49.9183 67.6986 55.8525 52.3672 56.8255C51.645 56.8737 50.9227 56.9059 50.2005 56.93C34.549 57.4124 18.2656 52.4994 1.77703 42.3196C1.26818 47.5784 0.956298 53.0703 0.956298 58.7231L0.956298 58.6749Z" fill="black"/>
<path d="M300.591 60.5324C300.777 62.2692 300.59 64.0251 300.041 65.6866C299.004 68.5922 296.974 71.0577 294.296 72.6661C287.549 76.9278 279.933 73.8723 279.005 73.4702C276.747 72.6789 274.821 71.174 273.531 69.1924C273.088 68.4607 271.512 65.8233 272.579 63.612C273.769 61.1595 277.438 60.8299 279.481 60.653C282.337 60.4455 285.196 61.0013 287.754 62.2611L290.217 57.8708" fill="white"/>
<path d="M300.591 60.5324C300.777 62.2692 300.59 64.0251 300.041 65.6866C299.004 68.5922 296.974 71.0577 294.296 72.6661C287.549 76.9278 279.933 73.8723 279.005 73.4702C276.747 72.6789 274.821 71.174 273.531 69.1924C273.088 68.4607 271.512 65.8233 272.579 63.612C273.769 61.1595 277.438 60.8299 279.481 60.653C282.337 60.4455 285.196 61.0013 287.754 62.2611L290.217 57.8708" stroke="#020202" stroke-width="2" stroke-linecap="round" stroke-linejoin="round"/>
<path d="M294.173 64.4723C294.359 66.2065 294.172 67.9598 293.623 69.6185C292.586 72.5241 290.556 74.9897 287.878 76.5981C281.131 80.8678 273.515 77.8123 272.587 77.4022C270.332 76.6092 268.407 75.1081 267.113 73.1324C266.67 72.3927 265.094 69.7633 266.161 67.552C267.351 65.0915 271.02 64.7698 273.063 64.5849C275.919 64.3729 278.78 64.929 281.336 66.1931L283.799 61.7947" fill="white"/>
<path d="M294.173 64.4723C294.359 66.2065 294.172 67.9598 293.623 69.6185C292.586 72.5241 290.556 74.9897 287.878 76.5981C281.131 80.8678 273.515 77.8123 272.587 77.4022C270.332 76.6092 268.407 75.1081 267.113 73.1324C266.67 72.3927 265.094 69.7633 266.161 67.552C267.351 65.0915 271.02 64.7698 273.063 64.5849C275.919 64.3729 278.78 64.929 281.336 66.1931L283.799 61.7947" stroke="#020202" stroke-width="2" stroke-linecap="round" stroke-linejoin="round"/>
<path d="M236.984 68.1391C237.468 67.7163 237.863 67.2038 238.144 66.6311C238.426 66.0585 238.59 65.4369 238.625 64.8021C235.996 63.7858 233.601 62.2628 231.583 60.3233C223.13 52.1296 225.173 39.5858 225.485 37.8731C223.193 38.7201 221.146 40.0998 219.519 41.8935C214.865 47.0237 215.825 53.5931 215.989 54.4213C217.631 64.3679 228.818 67.6406 231.083 68.308C235.104 69.49 236.639 68.4045 236.984 68.1391Z" fill="white" stroke="#020202" stroke-width="2" stroke-linecap="round" stroke-linejoin="round"/>
<path d="M339.362 50.457C339.362 56.4073 332.173 60.5725 329.464 62.1404C327.298 63.3948 320.732 67.1902 297.767 66.4182C291.883 66.2172 286.031 65.7669 280.376 65.0754C276.83 65.6704 270.363 67.544 265.915 73.3978C264.361 75.4535 263.217 77.7777 262.541 80.2486C263.923 83.6289 265.096 87.0874 266.054 90.6054C267.581 96.1375 268.574 99.7398 268.574 102.884C268.58 104.199 268.386 105.508 267.999 106.768C265.841 113.779 259.25 117.221 257.289 118.097C254.425 119.367 251.336 120.08 248.195 120.196C243.016 120.365 238.97 118.853 236.852 115.926C235.657 114.222 235.01 112.205 234.997 110.137C234.974 108.83 235.297 107.539 235.933 106.39C236.634 105.206 237.748 104.31 239.068 103.865C240.333 103.352 241.484 102.603 242.458 101.662C244.785 99.3457 246.138 96.2575 246.25 93.0096L246.25 92.6156C246.173 90.7462 245.629 88.9238 244.666 87.3086C241.998 85.8371 236.089 81.8005 234.037 74.1777C233.588 72.5034 233.361 70.779 233.364 69.0476C233.364 68.5491 233.364 68.0586 233.413 67.6002C233.485 66.518 233.642 65.4427 233.881 64.3839C231.14 63.0812 223.212 58.6105 221.57 49.9986C221.309 48.7225 221.174 47.4245 221.168 46.1229C221.054 43.001 222.134 39.9499 224.197 37.5674C227.036 34.4796 231.009 33.8766 234.866 33.2976C237.47 32.9223 240.112 32.871 242.729 33.1449C243.385 33.1931 244.058 33.2413 244.789 33.2735C247.99 33.4424 252.52 33.0323 261.548 32.2201C264.831 31.9307 267.417 31.6573 269.493 31.416C276.059 30.7245 278.3 30.4913 281.935 31.6653C283.79 32.2604 289.445 34.0776 291.169 38.8378C291.507 39.7781 291.679 40.7679 291.678 41.7647C292.478 42.2337 293.146 42.8914 293.62 43.6778C294.095 44.4643 294.361 45.3546 294.394 46.2677L294.394 46.541C294.359 47.0962 294.222 47.6408 293.992 48.1492C304.186 48.9533 313.181 47.7552 320.756 44.5469C321.06 44.4182 321.388 44.2815 321.717 44.1368C325 42.6975 329.99 40.5184 334.274 42.5929C335.699 43.3101 336.917 44.3675 337.815 45.6674C338.713 46.9674 339.262 48.468 339.412 50.0308L339.362 50.457Z" fill="white"/>
<path d="M221.981 46.1551C221.863 43.2288 222.857 40.3636 224.771 38.1142C227.414 35.2436 231.206 34.6646 234.94 34.0937C238.83 33.4987 241.186 33.8927 244.699 34.0937C247.982 34.2626 252.52 33.8525 261.639 33.0323C274.926 31.8342 277.052 30.9819 281.632 32.4614C283.782 33.1529 288.797 34.8737 290.348 39.1354C290.657 40.0065 290.813 40.9229 290.808 41.8452L290.808 42.199C291.586 42.5711 292.248 43.1398 292.727 43.8465C293.206 44.5533 293.484 45.3724 293.532 46.2194L293.532 46.4526C293.46 47.2999 293.125 48.1052 292.572 48.7604C306.016 50.055 315.101 47.7311 321.043 45.2143C324.326 43.8072 329.53 41.1376 333.872 43.2363C335.169 43.8891 336.278 44.8515 337.095 46.0348C337.913 47.2181 338.413 48.5841 338.55 50.0067L338.55 50.4007C338.55 55.9007 331.573 59.9373 329.046 61.3927C326.337 63.0009 319.64 66.2896 297.808 65.5579C290.422 65.3086 284.422 64.7056 280.368 64.207C278.201 64.5608 270.42 66.0725 265.266 72.8591C263.597 75.0722 262.381 77.5819 261.688 80.2487C263.116 83.6749 264.324 87.1849 265.307 90.7582C266.809 96.2341 267.769 99.7721 267.769 102.82C267.775 104.056 267.593 105.287 267.228 106.47C265.053 113.546 258.068 116.803 256.96 117.301C254.195 118.546 251.21 119.256 248.17 119.392C243.853 119.545 239.692 118.451 237.501 115.476C236.398 113.91 235.803 112.055 235.794 110.153C235.769 108.985 236.052 107.83 236.614 106.8C238.001 104.388 240.086 105.079 243.008 102.249C245.489 99.7813 246.928 96.4876 247.038 93.0257L247.038 92.5996C246.946 90.5259 246.325 88.5078 245.232 86.7297C243.812 85.9256 236.975 82.082 234.801 73.9848C234.369 72.3786 234.151 70.7246 234.152 69.0637C234.152 68.5813 234.152 68.1149 234.201 67.6727C234.289 66.4269 234.492 65.1915 234.809 63.9819C233.619 63.4672 224.139 59.2056 222.342 49.8942C222.088 48.6687 221.958 47.4216 221.956 46.1712L221.981 46.1551ZM220.314 46.1712C220.322 47.521 220.46 48.8671 220.725 50.1917C222.366 58.6186 229.671 63.218 232.921 64.8664C232.748 65.754 232.627 66.6507 232.56 67.552C232.56 68.0506 232.511 68.5572 232.511 69.0557C232.516 70.8474 232.756 72.631 233.225 74.3627C234.871 80.0889 238.759 84.9467 244.042 87.8795C244.876 89.3322 245.346 90.9582 245.413 92.6237L245.413 92.9936C245.291 96.0108 244.031 98.8763 241.875 101.034C240.964 101.91 239.888 102.604 238.707 103.077C237.223 103.59 235.976 104.609 235.194 105.948C234.496 107.216 234.14 108.639 234.16 110.081C234.163 112.321 234.865 114.506 236.171 116.344C238.469 119.488 242.737 121.121 248.211 120.928C251.469 120.833 254.677 120.12 257.658 118.829C259.71 117.904 266.563 114.334 268.812 107.001C269.225 105.666 269.432 104.279 269.427 102.884C269.427 99.6675 268.426 95.9928 266.908 90.4767L266.908 90.3963C265.954 86.936 264.792 83.5341 263.428 80.2085C264.085 77.9289 265.158 75.7848 266.596 73.8803C270.823 68.3079 276.978 66.4906 280.417 65.8876C286.055 66.5791 291.907 67.0213 297.767 67.2224C318.565 67.9219 326.066 65.0513 329.899 62.832C332.723 61.2238 340.208 56.8656 340.208 50.457C340.208 50.2962 340.208 50.1354 340.208 49.9665C340.059 48.2606 339.468 46.6201 338.492 45.2003C337.515 43.7805 336.185 42.6285 334.627 41.8532C329.989 39.6178 324.778 41.8532 321.372 43.381L320.37 43.8072C313.181 46.8547 304.67 48.0608 295.043 47.4175C295.099 47.1526 295.135 46.8838 295.149 46.6135L295.149 46.2757C295.121 45.3023 294.86 44.349 294.387 43.4927C293.914 42.6364 293.241 41.9013 292.424 41.3466C292.381 40.4031 292.196 39.471 291.874 38.5806C290.02 33.4585 284.077 31.5447 282.124 30.9176C278.324 29.6873 276.059 29.9285 269.337 30.6361C267.269 30.8532 264.684 31.1266 261.466 31.4402C252.438 32.2443 247.916 32.6624 244.764 32.4936C244.042 32.4936 243.369 32.4132 242.721 32.3649C240.04 32.0889 237.335 32.1456 234.669 32.5338C230.877 33.1047 226.577 33.748 223.532 37.0528C221.339 39.597 220.194 42.8516 220.323 46.1792L220.314 46.1712Z" fill="#020202"/>
<path d="M237.525 115.46C235.818 113.12 235.162 109.365 236.647 106.784C238.034 104.372 240.119 105.063 243.041 102.233C243.492 101.798 247.268 98.0273 247.062 92.5836C246.97 90.5099 246.35 88.4918 245.257 86.7137C243.837 85.9096 237 82.066 234.825 73.9688C234.272 71.9115 234.069 69.7787 234.226 67.6567C234.989 68.4608 235.917 69.3774 237.074 70.4871C240.406 73.6814 243.928 76.6805 247.62 79.4688C250.091 82.3112 251.865 85.6695 252.807 89.2868C253.497 92.0046 254.95 97.6735 252.118 102.329C249.401 106.784 245.552 105.795 244.165 109.108C242.778 112.421 245.618 116.015 248.17 119.392C243.894 119.529 239.692 118.435 237.525 115.46Z" fill="#F0EFEF"/>
<path d="M292.556 48.8166C290.816 48.5611 289.092 48.2094 287.393 47.7633C284.84 47.0877 282.348 46.2083 279.941 45.1339" fill="#F0EFEF"/>
<path d="M292.433 49.6129C288.065 48.7561 283.841 47.3054 279.884 45.3029C279.861 45.2928 279.84 45.278 279.823 45.2596C279.807 45.2412 279.794 45.2196 279.786 45.1961C279.779 45.1726 279.776 45.1478 279.779 45.1233C279.781 45.0988 279.789 45.0751 279.802 45.0537C279.823 45.0125 279.859 44.9806 279.903 44.9642C279.947 44.9479 279.996 44.9482 280.04 44.9652C284.087 46.5545 288.341 47.5829 292.679 48.0208C292.787 48.0366 292.89 48.0731 292.984 48.1281C293.077 48.1832 293.158 48.2557 293.223 48.3416C293.288 48.4274 293.335 48.525 293.361 48.6286C293.387 48.7322 293.393 48.8399 293.377 48.9455C293.36 49.0511 293.323 49.1525 293.267 49.244C293.211 49.3355 293.137 49.4152 293.049 49.4787C292.961 49.5422 292.862 49.5881 292.756 49.6139C292.65 49.6397 292.541 49.6448 292.433 49.6289L292.433 49.6129Z" fill="#020202"/>
<path d="M290.791 42.199C289.511 41.9658 288.14 41.6602 286.687 41.2582C284.626 40.6872 282.61 39.9697 280.655 39.1113" fill="#F0EFEF"/>
<path d="M290.676 43.0032C287.171 42.1891 283.77 40.9887 280.54 39.425C280.461 39.3854 280.401 39.3166 280.373 39.2338C280.345 39.1509 280.352 39.0606 280.393 38.9827C280.431 38.9096 280.497 38.8534 280.576 38.8251C280.655 38.7968 280.742 38.7986 280.819 38.83C282.454 39.4623 284.126 39.9993 285.826 40.4381C287.295 40.8241 289.453 41.1377 290.964 41.4272C291.181 41.4645 291.375 41.585 291.502 41.7622C291.629 41.9394 291.679 42.1587 291.641 42.372C291.603 42.5853 291.48 42.775 291.299 42.8994C291.118 43.0238 290.894 43.0727 290.676 43.0354L290.676 43.0032Z" fill="#020202"/>
<path d="M237.328 58.8277C236.096 60.3206 235.252 62.0835 234.866 63.9658L237.328 58.8277Z" fill="#F0EFEF"/>
<path d="M237.607 59.0447C236.537 60.5556 235.861 62.3004 235.638 64.1266C235.613 64.3398 235.502 64.5346 235.33 64.6681C235.159 64.8015 234.94 64.8627 234.722 64.8382C234.505 64.8137 234.306 64.7054 234.17 64.5373C234.034 64.3692 233.971 64.1549 233.996 63.9416C234.546 61.939 235.608 60.1068 237.082 58.6185C237.144 58.5644 237.223 58.5337 237.306 58.532C237.388 58.5304 237.469 58.5579 237.532 58.6096C237.596 58.6612 237.639 58.7336 237.652 58.8135C237.666 58.8934 237.65 58.9754 237.607 59.0447Z" fill="#020202"/>
<path d="M227.964 44.8284C230.123 45.891 232.457 46.5715 234.858 46.8386C238.439 47.2278 242.062 46.71 245.38 45.335" fill="#F0EFEF"/>
<path d="M228.128 44.5066C230.775 45.723 233.659 46.3622 236.582 46.3802C239.506 46.3983 242.398 45.7947 245.06 44.6112C245.16 44.5651 245.268 44.5393 245.379 44.5353C245.489 44.5312 245.599 44.5491 245.702 44.5877C245.805 44.6263 245.9 44.685 245.979 44.7601C246.059 44.8352 246.122 44.9253 246.165 45.025C246.208 45.1246 246.23 45.2317 246.23 45.3399C246.23 45.4482 246.207 45.5552 246.164 45.6547C246.121 45.7543 246.057 45.8442 245.977 45.9191C245.898 45.994 245.803 46.0524 245.7 46.0907C242.803 47.205 239.699 47.7065 236.59 47.5622C233.516 47.3915 230.517 46.5684 227.8 45.1499C227.724 45.1015 227.668 45.0273 227.644 44.9414C227.62 44.8555 227.63 44.7641 227.67 44.6844C227.711 44.6048 227.78 44.5427 227.865 44.5099C227.949 44.4771 228.043 44.4759 228.128 44.5066Z" fill="#020202"/>
<path d="M231.633 41.2017C232.57 41.6916 233.573 42.049 234.612 42.2631C236.544 42.654 238.546 42.5599 240.431 41.9897" fill="#F0EFEF"/>
<path d="M231.747 40.9847C233.069 41.5705 234.496 41.8929 235.946 41.9329C237.396 41.9729 238.84 41.7299 240.193 41.2179C240.298 41.1795 240.41 41.1626 240.522 41.1682C240.634 41.1738 240.743 41.2019 240.844 41.2506C240.944 41.2992 241.033 41.3676 241.106 41.4514C241.178 41.5351 241.232 41.6325 241.265 41.7376C241.298 41.8427 241.308 41.9532 241.295 42.0623C241.282 42.1714 241.247 42.2768 241.191 42.372C241.135 42.4672 241.06 42.5502 240.97 42.6158C240.881 42.6815 240.778 42.7284 240.669 42.7537C239.109 43.1315 237.49 43.2107 235.9 42.9869C234.342 42.7443 232.848 42.1974 231.509 41.3787C231.461 41.3429 231.427 41.2912 231.414 41.233C231.401 41.1748 231.409 41.1139 231.438 41.0614C231.467 41.0089 231.514 40.9682 231.571 40.9468C231.627 40.9253 231.69 40.9245 231.747 40.9445L231.747 40.9847Z" fill="#020202"/>
</g>
<defs>
<clipPath id="clip0_251_32502">
<rect width="121" height="490" fill="white" transform="translate(0 121) rotate(-90)"/>
</clipPath>
</defs>
</svg>
