<svg width="429" height="380" viewBox="0 0 429 380" fill="none" xmlns="http://www.w3.org/2000/svg">
<g clip-path="url(#clip0_251_35818)">
<path d="M217.405 269.454C278.766 269.454 328.509 219.577 328.509 158.051C328.509 96.5246 278.766 46.6478 217.405 46.6478C156.045 46.6478 106.302 96.5246 106.302 158.051C106.302 219.577 156.045 269.454 217.405 269.454Z" fill="white" stroke="#262626" stroke-width="2" stroke-linecap="round" stroke-linejoin="round" stroke-dasharray="3 6"/>
<path d="M249.603 43.3417C247.769 44.4364 243.129 44.3488 236.185 44.3488C227.046 44.3488 217.416 39.7837 217.416 37.1562C219.054 36.8278 220.768 36.5213 222.559 36.2585C226.563 35.6847 230.601 35.3848 234.645 35.3608L237.451 36.4556L242.506 38.3167C245.204 39.4589 247.611 41.195 249.548 43.3964L249.603 43.3417Z" fill="#262626" stroke="#262626" stroke-width="2" stroke-miterlimit="10" stroke-dasharray="3 6"/>
<path d="M255.27 40.2654C253.824 41.9563 251.806 43.0519 249.603 43.3417C247.644 41.1534 245.218 39.4359 242.506 38.3167L237.451 36.4447L234.645 35.3499C234.48 33.7262 234.199 32.1165 233.804 30.533C232.685 25.7015 230.247 21.2779 226.762 17.7571C234.623 15.0311 242.102 16.323 245.683 20.7458C247.158 22.6267 248.005 24.9243 248.107 27.3144C252.474 27.1611 256.23 29.7338 257.126 33.1604C258.075 36.795 255.564 39.9041 255.27 40.2654Z" fill="white" stroke="#262626" stroke-width="2" stroke-linecap="round" stroke-linejoin="round" stroke-dasharray="3 6"/>
<path d="M234.645 35.3609C230.601 35.3848 226.563 35.6847 222.559 36.2586C220.768 36.5213 219.054 36.8279 217.416 37.1563C203.703 32.0985 194.346 24.4133 194.805 17.4506C194.883 16.0582 195.365 14.719 196.191 13.597C200.755 7.42256 216.761 8.79101 225.965 16.9579C226.26 17.2207 226.544 17.4834 226.817 17.7571C230.299 21.2822 232.734 25.7098 233.848 30.5439C234.228 32.1285 234.494 33.7383 234.645 35.3609Z" fill="white" stroke="#262626" stroke-width="2" stroke-linecap="round" stroke-linejoin="round" stroke-dasharray="3 6"/>
<path d="M230.922 298.279C230.255 296.553 229.41 294.902 228.4 293.352C227.752 292.355 227.041 291.4 226.271 290.495C226.686 290.035 227.101 289.597 227.505 289.181C227.974 288.557 228.182 287.835 227.93 287.441C227.679 287.046 226.413 286.817 225.234 287.681L224.24 288.36C220.826 285.348 216.639 283.353 212.154 282.602C208.732 281.983 205.224 282.016 201.814 282.7C202.185 282.12 202.349 281.496 202.109 281.146C201.77 280.609 200.515 280.489 199.27 281.387C197.261 282.7 194.903 284.331 192.468 286.324C191.37 286.984 190.316 287.716 189.313 288.513C189.307 288.473 189.307 288.433 189.313 288.393C186.058 289.446 182.69 290.108 179.279 290.364C172.585 290.763 165.883 289.718 159.626 287.298C155.256 285.62 151.152 283.315 147.442 280.456H148.042C148.047 279.51 147.856 278.574 147.48 277.707C147.104 276.84 146.552 276.061 145.858 275.42H146.011C146.011 275.157 146.011 274.84 145.935 274.501C145.616 271.872 145.124 269.268 144.461 266.706C144.275 265.994 144.09 265.305 143.882 264.659C143.675 264.013 143.588 263.717 143.435 263.29C142.78 261.462 142.092 260.093 141.153 257.937C141.153 257.882 141.153 257.827 141.076 257.762C139.465 254.045 138.108 250.223 137.015 246.321C136.07 242.971 135.366 239.558 134.908 236.107C134.661 234.175 134.523 232.231 134.493 230.283C134.493 229.911 134.493 229.55 134.493 229.188C134.493 226.101 134.602 224.054 133.073 222.521C132.601 222.057 132.045 221.685 131.436 221.426C130.034 220.811 128.462 220.706 126.992 221.131C126.82 221.176 126.652 221.235 126.49 221.306C122.679 222.937 122.035 228.893 121.959 232.363C121.959 233.228 121.959 233.951 121.959 234.399C122.092 238.8 123.348 243.093 125.605 246.869C124.867 245.716 123.733 244.874 122.417 244.504C122.214 244.45 122.005 244.417 121.795 244.406C118.771 244.11 116.445 247.088 116.238 247.361C115.521 248.324 115.062 249.455 114.905 250.646C114.673 252.37 114.88 254.125 115.506 255.747L115.32 255.868C115.222 255.924 115.128 255.987 115.037 256.054L114.807 256.207L114.381 256.525L114.196 256.667C113.985 256.841 113.784 257.027 113.595 257.225C113.595 257.28 113.486 257.346 113.421 257.4C113.355 257.455 113.126 257.74 112.984 257.926L112.853 258.079L112.776 258.2C112.69 258.319 112.61 258.444 112.536 258.572L112.329 258.933C112.252 259.086 112.187 259.24 112.121 259.393C112.056 259.546 112.001 259.623 111.958 259.743C111.658 260.596 111.55 261.504 111.641 262.403C111.641 262.491 111.641 262.59 111.641 262.677C111.949 264.352 112.447 265.987 113.126 267.549C113.522 268.568 113.97 269.565 114.469 270.537C115.276 272.102 116.207 273.6 117.253 275.015C117.81 276.602 120.004 282.131 125.693 284.737C127.068 285.361 131.665 287.452 134.929 285.448C135.127 285.321 135.316 285.182 135.497 285.032L135.672 284.89C135.825 284.737 135.967 284.583 136.098 284.43L136.196 284.31C136.312 284.149 136.422 283.985 136.523 283.817C136.529 283.792 136.529 283.766 136.523 283.74C136.676 283.488 136.818 283.215 136.96 282.93V283.029C136.764 283.467 136.556 283.915 136.36 284.408C136.447 285.525 136.95 286.568 137.768 287.331C138.326 287.82 139.048 288.078 139.788 288.054C139.788 287.911 139.886 287.714 139.963 287.484C148.239 298.049 160.118 301.256 164.791 302.198C168.641 302.969 172.578 303.216 176.495 302.931C175.239 304.705 173.995 306.544 172.783 308.493C170.755 311.753 168.907 315.123 167.247 318.587L166.832 318.663L165.981 318.838L165.129 319.024L164.474 319.167L163.557 319.386L163.066 319.506L162.279 319.703L161.766 319.835C161.112 320.003 160.544 320.411 160.174 320.979C159.805 321.546 159.66 322.231 159.768 322.9C159.774 322.94 159.774 322.98 159.768 323.02C159.768 323.086 159.768 323.152 159.768 323.217C159.804 323.311 159.844 323.402 159.888 323.491C160.201 324.107 160.694 324.613 161.3 324.941C161.907 325.27 162.599 325.406 163.284 325.33V325.396C158.13 335.689 154.654 346.744 152.988 358.14C152.143 363.909 151.778 369.739 151.896 375.569L198.975 376.718C200.55 377.26 202.168 377.667 203.812 377.934C204.183 377.999 204.784 378.109 205.526 378.218C209.739 378.836 214.036 378.484 218.093 377.189L235.966 377.616C234.874 374.419 233.924 370.993 233.018 367.38C233.149 367.271 233.291 367.161 233.411 367.041C233.627 366.829 233.831 366.606 234.023 366.373L234.176 366.176C234.32 366.001 234.455 365.818 234.58 365.628L234.743 365.355C234.853 365.191 234.951 365.026 235.049 364.851L235.213 364.512C235.289 364.358 235.366 364.205 235.431 364.052L235.595 363.647C235.595 363.516 235.693 363.384 235.737 363.264C235.801 363.092 235.856 362.916 235.901 362.738C235.935 362.652 235.964 362.565 235.988 362.476C236.054 362.246 236.097 362.027 236.152 361.808C236.148 361.779 236.148 361.749 236.152 361.72V361.578C236.152 361.435 236.206 361.293 236.228 361.14V360.943C236.261 360.78 236.283 360.616 236.294 360.45V360.22V359.958C238.182 359.541 240.015 358.902 241.753 358.053C251.579 353.312 255.291 343.438 256.274 339.442C259.942 326.239 250.007 309.051 230.922 298.279ZM243.882 334.231C243.729 335.993 243.183 342.419 237.746 346.941C236.68 347.819 235.506 348.555 234.252 349.13C233.446 347.814 232.319 346.725 230.977 345.967C230.483 345.704 229.959 345.505 229.415 345.375C229.241 343.613 229.099 341.872 228.989 340.186C229.598 340.324 230.235 340.252 230.798 339.982C231.36 339.712 231.816 339.259 232.09 338.697C232.26 338.254 232.299 337.771 232.205 337.305C232.11 336.84 231.885 336.411 231.555 336.07C230.704 335.315 229.612 334.384 228.28 333.366C229.022 327.049 229.623 322.966 229.623 322.966L231.599 311.602C234.425 313.734 236.955 316.233 239.122 319.035C240.148 320.349 244.57 326.239 243.882 334.231Z" fill="white" stroke="#262626" stroke-width="2" stroke-linecap="round" stroke-linejoin="round" stroke-dasharray="3 6"/>
<path d="M412.983 141.881C398.472 129.631 367.956 119.252 327.941 112.465C324.928 111.961 321.87 111.469 318.759 111.009" stroke="#262626" stroke-width="2" stroke-linecap="round" stroke-linejoin="round" stroke-dasharray="3 6"/>
<path d="M19.3169 170.608C31.6872 184.478 64.2124 196.291 108.235 203.746C111.237 204.261 114.294 204.742 117.406 205.213C143.409 209.013 169.616 211.254 195.886 211.924V211.924C203.164 212.143 210.571 212.249 218.104 212.241C225.638 212.234 233.044 212.128 240.323 211.924C266.592 211.254 292.799 209.013 318.802 205.213C321.914 204.742 324.971 204.261 327.985 203.746C370.566 196.532 402.359 185.256 415.603 171.998" stroke="#262626" stroke-width="2" stroke-linecap="round" stroke-linejoin="round" stroke-dasharray="3 6"/>
<path d="M117.351 111.009C114.239 111.469 111.171 111.961 108.169 112.465C66.4505 119.537 35.0717 130.517 21.3694 143.447" stroke="#262626" stroke-width="2" stroke-linecap="round" stroke-linejoin="round" stroke-dasharray="3 6"/>
<path d="M68.6233 288.338C68.6233 269.552 83.1554 239.074 108.18 203.746C109.941 201.257 111.761 198.743 113.639 196.203" stroke="#262626" stroke-width="2" stroke-linecap="round" stroke-linejoin="round" stroke-dasharray="3 6"/>
<path d="M367.487 27.8945C367.487 46.6697 352.955 77.1588 327.941 112.465C326.183 114.961 324.371 117.468 322.482 119.997C313.431 132.291 303.179 145.089 291.911 158.105C280.993 170.739 268.983 183.591 256.263 196.422C250.942 201.743 245.625 206.921 240.312 211.957C232.851 219 225.423 225.711 218.028 232.089C205.046 243.409 192.294 253.7 180.032 262.743C143.609 289.74 111.575 306.161 91.2786 307.737" stroke="#262626" stroke-width="2" stroke-linecap="round" stroke-linejoin="round" stroke-dasharray="3 6"/>
<path d="M256.045 53.3916C291.081 27.4348 322.067 11.2433 342.495 8.64868" stroke="#262626" stroke-width="2" stroke-linecap="round" stroke-linejoin="round" stroke-dasharray="3 6"/>
<path d="M89.1931 8.28735C109.337 8.82379 142.343 25.4423 180.054 53.3915" stroke="#262626" stroke-width="2" stroke-linecap="round" stroke-linejoin="round" stroke-dasharray="3 6"/>
<path d="M344.821 307.825C324.524 306.249 292.49 289.816 256.056 262.819C243.795 253.744 231.031 243.453 218.05 232.166C210.698 225.751 203.292 219.014 195.831 211.957C190.518 206.928 185.2 201.75 179.88 196.422C167.116 183.624 155.183 170.772 144.232 158.106C132.931 145.1 122.679 132.302 113.661 120.008C111.79 117.475 109.97 114.961 108.202 112.465C84.7058 79.3703 70.4576 50.4576 68.7871 31.5073" stroke="#262626" stroke-width="2" stroke-linecap="round" stroke-linejoin="round" stroke-dasharray="3 6"/>
<path d="M322.482 196.214C324.371 198.754 326.183 201.261 327.941 203.746C351.044 236.337 365.205 264.867 367.246 283.828" stroke="#262626" stroke-width="2" stroke-linecap="round" stroke-linejoin="round" stroke-dasharray="3 6"/>
<path d="M371.887 297.009C371.889 300.192 370.823 303.283 368.86 305.785C366.898 308.287 364.152 310.053 361.067 310.801C357.981 311.548 354.734 311.232 351.849 309.904C348.964 308.576 346.608 306.313 345.162 303.48C343.715 300.646 343.262 297.407 343.874 294.284C344.487 291.161 346.13 288.335 348.539 286.262C350.947 284.189 353.982 282.989 357.154 282.855C360.325 282.721 363.45 283.662 366.024 285.525C367.838 286.837 369.315 288.562 370.335 290.559C371.354 292.555 371.886 294.766 371.887 297.009Z" fill="white" stroke="#262626" stroke-width="2" stroke-linecap="round" stroke-linejoin="round" stroke-dasharray="3 6"/>
<path d="M428.17 154.537C428.172 157.72 427.106 160.811 425.143 163.313C423.181 165.814 420.435 167.581 417.35 168.328C414.264 169.076 411.017 168.76 408.132 167.432C405.247 166.104 402.891 163.841 401.445 161.008C399.998 158.174 399.545 154.935 400.157 151.812C400.77 148.689 402.413 145.863 404.822 143.79C407.23 141.716 410.265 140.516 413.437 140.383C416.608 140.249 419.733 141.189 422.307 143.052C424.122 144.364 425.6 146.089 426.619 148.086C427.638 150.082 428.17 152.293 428.17 154.537Z" fill="white" stroke="#262626" stroke-width="2" stroke-linecap="round" stroke-linejoin="round" stroke-dasharray="3 6"/>
<path d="M369.19 14.7136C369.205 17.899 368.149 20.9965 366.193 23.5068C364.238 26.0171 361.496 27.7938 358.41 28.5505C355.324 29.3073 352.074 28.9999 349.183 27.6779C346.293 26.356 343.931 24.0966 342.478 21.2639C341.025 18.4313 340.565 15.1905 341.174 12.064C341.782 8.93756 343.423 6.10766 345.831 4.03057C348.24 1.95349 351.276 0.750253 354.45 0.614868C357.624 0.479483 360.751 1.41984 363.327 3.28432C365.134 4.59039 366.608 6.30683 367.627 8.29328C368.646 10.2797 369.181 12.4798 369.19 14.7136Z" fill="white" stroke="#262626" stroke-width="2" stroke-linecap="round" stroke-linejoin="round" stroke-dasharray="3 6"/>
<path d="M87.6866 16.3448C87.689 19.5278 86.623 22.6191 84.6603 25.1209C82.6975 27.6227 79.9523 29.3894 76.8665 30.1365C73.7806 30.8837 70.5338 30.5679 67.6488 29.2399C64.7637 27.912 62.4083 25.6491 60.9617 22.8157C59.5152 19.9823 59.0616 16.7433 59.6742 13.62C60.2867 10.4967 61.9296 7.67104 64.3385 5.59784C66.7473 3.52464 69.7819 2.32458 72.9536 2.19087C76.1253 2.05715 79.2496 2.99757 81.8235 4.86072C83.6377 6.17284 85.1152 7.89814 86.1345 9.89466C87.1538 11.8912 87.6858 14.1018 87.6866 16.3448Z" fill="white" stroke="#262626" stroke-width="2" stroke-linecap="round" stroke-linejoin="round" stroke-dasharray="3 6"/>
<path d="M29.5471 155.325C29.5471 158.507 28.4791 161.597 26.5149 164.097C24.5508 166.598 21.8049 168.362 18.7191 169.108C15.6333 169.853 12.3871 169.535 9.50315 168.206C6.61916 166.877 4.26509 164.613 2.81983 161.78C1.37457 158.946 0.922209 155.708 1.53555 152.585C2.14889 149.462 3.79225 146.638 6.20113 144.565C8.61001 142.493 11.6443 141.293 14.8155 141.16C17.9868 141.027 21.1106 141.967 23.6841 143.83C25.5004 145.142 26.9793 146.869 27.9988 148.868C29.0182 150.867 29.549 153.08 29.5471 155.325Z" fill="white" stroke="#262626" stroke-width="2" stroke-linecap="round" stroke-linejoin="round" stroke-dasharray="3 6"/>
<path d="M92.021 295.827C92.021 299.009 90.9529 302.099 88.9888 304.599C87.0247 307.099 84.2787 308.864 81.193 309.609C78.1072 310.355 74.861 310.037 71.977 308.708C69.093 307.379 66.739 305.115 65.2937 302.282C63.8484 299.448 63.3961 296.209 64.0094 293.087C64.6228 289.964 66.2661 287.139 68.675 285.067C71.0839 282.994 74.1181 281.795 77.2894 281.662C80.4607 281.528 83.5845 282.469 86.158 284.332C87.9736 285.645 89.4521 287.372 90.4715 289.37C91.4908 291.369 92.0219 293.582 92.021 295.827Z" fill="white" stroke="#262626" stroke-width="2" stroke-linecap="round" stroke-linejoin="round" stroke-dasharray="3 6"/>
</g>
<defs>
<clipPath id="clip0_251_35818">
<rect width="427.96" height="379.05" fill="white" transform="translate(0.755859)"/>
</clipPath>
</defs>
</svg>
